M48
; DRILL file {KiCad 8.0.5-8.0.5-0~ubuntu20.04.1} date 2024-10-09T10:56:53+0200
; FORMAT={-:-/ absolute / metric / decimal}
; #@! TF.CreationDate,2024-10-09T10:56:53+02:00
; #@! TF.GenerationSoftware,Kicad,Pcbnew,8.0.5-8.0.5-0~ubuntu20.04.1
; #@! TF.FileFunction,Plated,1,2,PTH
FMAT,2
METRIC
; #@! TA.AperFunction,Plated,PTH,ViaDrill
T1C0.300
; #@! TA.AperFunction,Plated,PTH,ComponentDrill
T2C0.750
; #@! TA.AperFunction,Plated,PTH,ComponentDrill
T3C0.800
; #@! TA.AperFunction,Plated,PTH,ComponentDrill
T4C0.900
; #@! TA.AperFunction,Plated,PTH,ComponentDrill
T5C1.000
%
G90
G05
T1
X121.5Y-85.0
X122.5Y-82.5
X122.75Y-97.0
X126.25Y-78.25
X127.875Y-99.5
X129.5Y-99.25
X130.0Y-85.75
X131.5Y-78.75
X131.5Y-87.0
X132.0Y-94.5
X132.0Y-99.5
X132.418Y-101.234
X134.25Y-79.0
X134.8Y-100.327
X135.075Y-89.5
X138.0Y-90.0
X139.0Y-87.0
X142.25Y-97.75
X143.25Y-86.0
X143.75Y-77.75
X145.25Y-85.0
X145.39Y-97.057
X145.624Y-97.822
X145.799Y-88.451
X146.0Y-93.5
X146.599Y-88.401
X146.646Y-97.648
X147.0Y-84.75
X147.478Y-88.433
X148.0Y-93.5
X148.75Y-85.0
X149.0Y-92.5
X150.025Y-93.5
X150.625Y-88.375
X150.75Y-85.0
X151.25Y-89.5
X151.5Y-79.5
X152.25Y-87.265
X153.75Y-90.15
X153.75Y-99.0
X154.25Y-85.5
X154.75Y-101.5
X156.25Y-99.0
X156.75Y-80.0
X158.0Y-85.25
X159.75Y-82.0
X161.75Y-85.0
T2
X148.23Y-99.36
X149.5Y-99.36
X150.77Y-99.36
T3
X125.96Y-95.5
X128.5Y-95.5
X140.0Y-101.0
X143.0Y-101.0
X155.0Y-94.5
X155.0Y-97.04
X157.5Y-94.46
X157.5Y-97.0
X160.0Y-94.46
X160.0Y-97.0
T4
X128.475Y-76.0
X128.475Y-78.54
X137.142Y-76.0
X137.142Y-78.54
X145.808Y-76.0
X145.808Y-78.54
X154.475Y-76.0
X154.475Y-78.54
T5
X122.5Y-88.42
X122.5Y-90.96
X122.5Y-93.5
M30
