%TF.GenerationSoftware,KiCad,Pcbnew,8.0.5-8.0.5-0~ubuntu20.04.1*%
%TF.CreationDate,2024-10-09T10:56:54+02:00*%
%TF.ProjectId,LIN_eval,4c494e5f-6576-4616-9c2e-6b696361645f,rev?*%
%TF.SameCoordinates,Original*%
%TF.FileFunction,Drillmap*%
%TF.FilePolarity,Positive*%
%FSLAX45Y45*%
G04 Gerber Fmt 4.5, Leading zero omitted, Abs format (unit mm)*
G04 Created by KiCad (PCBNEW 8.0.5-8.0.5-0~ubuntu20.04.1) date 2024-10-09 10:56:54*
%MOMM*%
%LPD*%
G01*
G04 APERTURE LIST*
%ADD10C,0.050000*%
%ADD11C,0.200000*%
%ADD12C,0.100000*%
G04 APERTURE END LIST*
D10*
X12000000Y-7375000D02*
X16300000Y-7375000D01*
X16300000Y-10375000D01*
X12000000Y-10375000D01*
X12000000Y-7375000D01*
D11*
D12*
X12135000Y-8485000D02*
X12165000Y-8515000D01*
X12165000Y-8485000D02*
X12135000Y-8515000D01*
X12235000Y-8235000D02*
X12265000Y-8265000D01*
X12265000Y-8235000D02*
X12235000Y-8265000D01*
X12260000Y-9685000D02*
X12290000Y-9715000D01*
X12290000Y-9685000D02*
X12260000Y-9715000D01*
X12610000Y-7810000D02*
X12640000Y-7840000D01*
X12640000Y-7810000D02*
X12610000Y-7840000D01*
X12772500Y-9935000D02*
X12802500Y-9965000D01*
X12802500Y-9935000D02*
X12772500Y-9965000D01*
X12935000Y-9910000D02*
X12965000Y-9940000D01*
X12965000Y-9910000D02*
X12935000Y-9940000D01*
X12985000Y-8560000D02*
X13015000Y-8590000D01*
X13015000Y-8560000D02*
X12985000Y-8590000D01*
X13135000Y-7860000D02*
X13165000Y-7890000D01*
X13165000Y-7860000D02*
X13135000Y-7890000D01*
X13135000Y-8685000D02*
X13165000Y-8715000D01*
X13165000Y-8685000D02*
X13135000Y-8715000D01*
X13185000Y-9435000D02*
X13215000Y-9465000D01*
X13215000Y-9435000D02*
X13185000Y-9465000D01*
X13185000Y-9935000D02*
X13215000Y-9965000D01*
X13215000Y-9935000D02*
X13185000Y-9965000D01*
X13226827Y-10108428D02*
X13256827Y-10138428D01*
X13256827Y-10108428D02*
X13226827Y-10138428D01*
X13410000Y-7885000D02*
X13440000Y-7915000D01*
X13440000Y-7885000D02*
X13410000Y-7915000D01*
X13465000Y-10017699D02*
X13495000Y-10047699D01*
X13495000Y-10017699D02*
X13465000Y-10047699D01*
X13492500Y-8935000D02*
X13522500Y-8965000D01*
X13522500Y-8935000D02*
X13492500Y-8965000D01*
X13785000Y-8985000D02*
X13815000Y-9015000D01*
X13815000Y-8985000D02*
X13785000Y-9015000D01*
X13885000Y-8685000D02*
X13915000Y-8715000D01*
X13915000Y-8685000D02*
X13885000Y-8715000D01*
X14210000Y-9760000D02*
X14240000Y-9790000D01*
X14240000Y-9760000D02*
X14210000Y-9790000D01*
X14310000Y-8585000D02*
X14340000Y-8615000D01*
X14340000Y-8585000D02*
X14310000Y-8615000D01*
X14360000Y-7760000D02*
X14390000Y-7790000D01*
X14390000Y-7760000D02*
X14360000Y-7790000D01*
X14510000Y-8485000D02*
X14540000Y-8515000D01*
X14540000Y-8485000D02*
X14510000Y-8515000D01*
X14523976Y-9690701D02*
X14553976Y-9720701D01*
X14553976Y-9690701D02*
X14523976Y-9720701D01*
X14547374Y-9767203D02*
X14577374Y-9797203D01*
X14577374Y-9767203D02*
X14547374Y-9797203D01*
X14564926Y-8830074D02*
X14594926Y-8860074D01*
X14594926Y-8830074D02*
X14564926Y-8860074D01*
X14585000Y-9335000D02*
X14615000Y-9365000D01*
X14615000Y-9335000D02*
X14585000Y-9365000D01*
X14644853Y-8825147D02*
X14674853Y-8855147D01*
X14674853Y-8825147D02*
X14644853Y-8855147D01*
X14649603Y-9749827D02*
X14679603Y-9779827D01*
X14679603Y-9749827D02*
X14649603Y-9779827D01*
X14685000Y-8460000D02*
X14715000Y-8490000D01*
X14715000Y-8460000D02*
X14685000Y-8490000D01*
X14732811Y-8828253D02*
X14762811Y-8858253D01*
X14762811Y-8828253D02*
X14732811Y-8858253D01*
X14785000Y-9335000D02*
X14815000Y-9365000D01*
X14815000Y-9335000D02*
X14785000Y-9365000D01*
X14860000Y-8485000D02*
X14890000Y-8515000D01*
X14890000Y-8485000D02*
X14860000Y-8515000D01*
X14885000Y-9235000D02*
X14915000Y-9265000D01*
X14915000Y-9235000D02*
X14885000Y-9265000D01*
X14987500Y-9335000D02*
X15017500Y-9365000D01*
X15017500Y-9335000D02*
X14987500Y-9365000D01*
X15047500Y-8822500D02*
X15077500Y-8852500D01*
X15077500Y-8822500D02*
X15047500Y-8852500D01*
X15060000Y-8485000D02*
X15090000Y-8515000D01*
X15090000Y-8485000D02*
X15060000Y-8515000D01*
X15110000Y-8935000D02*
X15140000Y-8965000D01*
X15140000Y-8935000D02*
X15110000Y-8965000D01*
X15135000Y-7935000D02*
X15165000Y-7965000D01*
X15165000Y-7935000D02*
X15135000Y-7965000D01*
X15210000Y-8711500D02*
X15240000Y-8741500D01*
X15240000Y-8711500D02*
X15210000Y-8741500D01*
X15360000Y-9000000D02*
X15390000Y-9030000D01*
X15390000Y-9000000D02*
X15360000Y-9030000D01*
X15360000Y-9885000D02*
X15390000Y-9915000D01*
X15390000Y-9885000D02*
X15360000Y-9915000D01*
X15410000Y-8535000D02*
X15440000Y-8565000D01*
X15440000Y-8535000D02*
X15410000Y-8565000D01*
X15460000Y-10135000D02*
X15490000Y-10165000D01*
X15490000Y-10135000D02*
X15460000Y-10165000D01*
X15610000Y-9885000D02*
X15640000Y-9915000D01*
X15640000Y-9885000D02*
X15610000Y-9915000D01*
X15660000Y-7985000D02*
X15690000Y-8015000D01*
X15690000Y-7985000D02*
X15660000Y-8015000D01*
X15785000Y-8510000D02*
X15815000Y-8540000D01*
X15815000Y-8510000D02*
X15785000Y-8540000D01*
X15960000Y-8185000D02*
X15990000Y-8215000D01*
X15990000Y-8185000D02*
X15960000Y-8215000D01*
X16160000Y-8485000D02*
X16190000Y-8515000D01*
X16190000Y-8485000D02*
X16160000Y-8515000D01*
X14860500Y-9936000D02*
G75*
G02*
X14785500Y-9936000I-37500J0D01*
G01*
X14785500Y-9936000D02*
G75*
G02*
X14860500Y-9936000I37500J0D01*
G01*
X14987500Y-9936000D02*
G75*
G02*
X14912500Y-9936000I-37500J0D01*
G01*
X14912500Y-9936000D02*
G75*
G02*
X14987500Y-9936000I37500J0D01*
G01*
X15114500Y-9936000D02*
G75*
G02*
X15039500Y-9936000I-37500J0D01*
G01*
X15039500Y-9936000D02*
G75*
G02*
X15114500Y-9936000I37500J0D01*
G01*
X12596000Y-9510000D02*
X12596000Y-9590000D01*
X12556000Y-9550000D02*
X12636000Y-9550000D01*
X12850000Y-9510000D02*
X12850000Y-9590000D01*
X12810000Y-9550000D02*
X12890000Y-9550000D01*
X14000000Y-10060000D02*
X14000000Y-10140000D01*
X13960000Y-10100000D02*
X14040000Y-10100000D01*
X14300000Y-10060000D02*
X14300000Y-10140000D01*
X14260000Y-10100000D02*
X14340000Y-10100000D01*
X15500000Y-9410000D02*
X15500000Y-9490000D01*
X15460000Y-9450000D02*
X15540000Y-9450000D01*
X15500000Y-9664000D02*
X15500000Y-9744000D01*
X15460000Y-9704000D02*
X15540000Y-9704000D01*
X15750000Y-9406000D02*
X15750000Y-9486000D01*
X15710000Y-9446000D02*
X15790000Y-9446000D01*
X15750000Y-9660000D02*
X15750000Y-9740000D01*
X15710000Y-9700000D02*
X15790000Y-9700000D01*
X16000000Y-9406000D02*
X16000000Y-9486000D01*
X15960000Y-9446000D02*
X16040000Y-9446000D01*
X16000000Y-9660000D02*
X16000000Y-9740000D01*
X15960000Y-9700000D02*
X16040000Y-9700000D01*
X12879320Y-7631820D02*
X12879320Y-7568180D01*
X12815680Y-7568180D01*
X12815680Y-7631820D01*
X12879320Y-7631820D01*
X12879320Y-7885820D02*
X12879320Y-7822180D01*
X12815680Y-7822180D01*
X12815680Y-7885820D01*
X12879320Y-7885820D01*
X13745987Y-7631820D02*
X13745987Y-7568180D01*
X13682346Y-7568180D01*
X13682346Y-7631820D01*
X13745987Y-7631820D01*
X13745987Y-7885820D02*
X13745987Y-7822180D01*
X13682346Y-7822180D01*
X13682346Y-7885820D01*
X13745987Y-7885820D01*
X14612653Y-7631820D02*
X14612653Y-7568180D01*
X14549013Y-7568180D01*
X14549013Y-7631820D01*
X14612653Y-7631820D01*
X14612653Y-7885820D02*
X14612653Y-7822180D01*
X14549013Y-7822180D01*
X14549013Y-7885820D01*
X14612653Y-7885820D01*
X15479320Y-7631820D02*
X15479320Y-7568180D01*
X15415680Y-7568180D01*
X15415680Y-7631820D01*
X15479320Y-7631820D01*
X15479320Y-7885820D02*
X15479320Y-7822180D01*
X15415680Y-7822180D01*
X15415680Y-7885820D01*
X15479320Y-7885820D01*
X12250000Y-8892000D02*
X12300000Y-8842000D01*
X12250000Y-8792000D01*
X12200000Y-8842000D01*
X12250000Y-8892000D01*
X12250000Y-9146000D02*
X12300000Y-9096000D01*
X12250000Y-9046000D01*
X12200000Y-9096000D01*
X12250000Y-9146000D01*
X12250000Y-9400000D02*
X12300000Y-9350000D01*
X12250000Y-9300000D01*
X12200000Y-9350000D01*
X12250000Y-9400000D01*
D11*
X12258277Y-10688984D02*
X12258277Y-10488984D01*
X12258277Y-10488984D02*
X12305896Y-10488984D01*
X12305896Y-10488984D02*
X12334467Y-10498508D01*
X12334467Y-10498508D02*
X12353515Y-10517555D01*
X12353515Y-10517555D02*
X12363039Y-10536603D01*
X12363039Y-10536603D02*
X12372562Y-10574698D01*
X12372562Y-10574698D02*
X12372562Y-10603270D01*
X12372562Y-10603270D02*
X12363039Y-10641365D01*
X12363039Y-10641365D02*
X12353515Y-10660412D01*
X12353515Y-10660412D02*
X12334467Y-10679460D01*
X12334467Y-10679460D02*
X12305896Y-10688984D01*
X12305896Y-10688984D02*
X12258277Y-10688984D01*
X12458277Y-10688984D02*
X12458277Y-10555650D01*
X12458277Y-10593746D02*
X12467801Y-10574698D01*
X12467801Y-10574698D02*
X12477324Y-10565174D01*
X12477324Y-10565174D02*
X12496372Y-10555650D01*
X12496372Y-10555650D02*
X12515420Y-10555650D01*
X12582086Y-10688984D02*
X12582086Y-10555650D01*
X12582086Y-10488984D02*
X12572562Y-10498508D01*
X12572562Y-10498508D02*
X12582086Y-10508031D01*
X12582086Y-10508031D02*
X12591610Y-10498508D01*
X12591610Y-10498508D02*
X12582086Y-10488984D01*
X12582086Y-10488984D02*
X12582086Y-10508031D01*
X12705896Y-10688984D02*
X12686848Y-10679460D01*
X12686848Y-10679460D02*
X12677324Y-10660412D01*
X12677324Y-10660412D02*
X12677324Y-10488984D01*
X12810658Y-10688984D02*
X12791610Y-10679460D01*
X12791610Y-10679460D02*
X12782086Y-10660412D01*
X12782086Y-10660412D02*
X12782086Y-10488984D01*
X13039229Y-10688984D02*
X13039229Y-10488984D01*
X13039229Y-10488984D02*
X13105896Y-10631841D01*
X13105896Y-10631841D02*
X13172562Y-10488984D01*
X13172562Y-10488984D02*
X13172562Y-10688984D01*
X13353515Y-10688984D02*
X13353515Y-10584222D01*
X13353515Y-10584222D02*
X13343991Y-10565174D01*
X13343991Y-10565174D02*
X13324943Y-10555650D01*
X13324943Y-10555650D02*
X13286848Y-10555650D01*
X13286848Y-10555650D02*
X13267801Y-10565174D01*
X13353515Y-10679460D02*
X13334467Y-10688984D01*
X13334467Y-10688984D02*
X13286848Y-10688984D01*
X13286848Y-10688984D02*
X13267801Y-10679460D01*
X13267801Y-10679460D02*
X13258277Y-10660412D01*
X13258277Y-10660412D02*
X13258277Y-10641365D01*
X13258277Y-10641365D02*
X13267801Y-10622317D01*
X13267801Y-10622317D02*
X13286848Y-10612793D01*
X13286848Y-10612793D02*
X13334467Y-10612793D01*
X13334467Y-10612793D02*
X13353515Y-10603270D01*
X13448753Y-10555650D02*
X13448753Y-10755650D01*
X13448753Y-10565174D02*
X13467801Y-10555650D01*
X13467801Y-10555650D02*
X13505896Y-10555650D01*
X13505896Y-10555650D02*
X13524943Y-10565174D01*
X13524943Y-10565174D02*
X13534467Y-10574698D01*
X13534467Y-10574698D02*
X13543991Y-10593746D01*
X13543991Y-10593746D02*
X13543991Y-10650889D01*
X13543991Y-10650889D02*
X13534467Y-10669936D01*
X13534467Y-10669936D02*
X13524943Y-10679460D01*
X13524943Y-10679460D02*
X13505896Y-10688984D01*
X13505896Y-10688984D02*
X13467801Y-10688984D01*
X13467801Y-10688984D02*
X13448753Y-10679460D01*
X13629705Y-10669936D02*
X13639229Y-10679460D01*
X13639229Y-10679460D02*
X13629705Y-10688984D01*
X13629705Y-10688984D02*
X13620182Y-10679460D01*
X13620182Y-10679460D02*
X13629705Y-10669936D01*
X13629705Y-10669936D02*
X13629705Y-10688984D01*
X13629705Y-10565174D02*
X13639229Y-10574698D01*
X13639229Y-10574698D02*
X13629705Y-10584222D01*
X13629705Y-10584222D02*
X13620182Y-10574698D01*
X13620182Y-10574698D02*
X13629705Y-10565174D01*
X13629705Y-10565174D02*
X13629705Y-10584222D01*
D12*
X11967500Y-11002500D02*
X11997500Y-11032500D01*
X11997500Y-11002500D02*
X11967500Y-11032500D01*
D11*
X12296372Y-10908984D02*
X12315420Y-10908984D01*
X12315420Y-10908984D02*
X12334467Y-10918508D01*
X12334467Y-10918508D02*
X12343991Y-10928031D01*
X12343991Y-10928031D02*
X12353515Y-10947079D01*
X12353515Y-10947079D02*
X12363039Y-10985174D01*
X12363039Y-10985174D02*
X12363039Y-11032793D01*
X12363039Y-11032793D02*
X12353515Y-11070889D01*
X12353515Y-11070889D02*
X12343991Y-11089936D01*
X12343991Y-11089936D02*
X12334467Y-11099460D01*
X12334467Y-11099460D02*
X12315420Y-11108984D01*
X12315420Y-11108984D02*
X12296372Y-11108984D01*
X12296372Y-11108984D02*
X12277324Y-11099460D01*
X12277324Y-11099460D02*
X12267801Y-11089936D01*
X12267801Y-11089936D02*
X12258277Y-11070889D01*
X12258277Y-11070889D02*
X12248753Y-11032793D01*
X12248753Y-11032793D02*
X12248753Y-10985174D01*
X12248753Y-10985174D02*
X12258277Y-10947079D01*
X12258277Y-10947079D02*
X12267801Y-10928031D01*
X12267801Y-10928031D02*
X12277324Y-10918508D01*
X12277324Y-10918508D02*
X12296372Y-10908984D01*
X12448753Y-11089936D02*
X12458277Y-11099460D01*
X12458277Y-11099460D02*
X12448753Y-11108984D01*
X12448753Y-11108984D02*
X12439229Y-11099460D01*
X12439229Y-11099460D02*
X12448753Y-11089936D01*
X12448753Y-11089936D02*
X12448753Y-11108984D01*
X12524943Y-10908984D02*
X12648753Y-10908984D01*
X12648753Y-10908984D02*
X12582086Y-10985174D01*
X12582086Y-10985174D02*
X12610658Y-10985174D01*
X12610658Y-10985174D02*
X12629705Y-10994698D01*
X12629705Y-10994698D02*
X12639229Y-11004222D01*
X12639229Y-11004222D02*
X12648753Y-11023270D01*
X12648753Y-11023270D02*
X12648753Y-11070889D01*
X12648753Y-11070889D02*
X12639229Y-11089936D01*
X12639229Y-11089936D02*
X12629705Y-11099460D01*
X12629705Y-11099460D02*
X12610658Y-11108984D01*
X12610658Y-11108984D02*
X12553515Y-11108984D01*
X12553515Y-11108984D02*
X12534467Y-11099460D01*
X12534467Y-11099460D02*
X12524943Y-11089936D01*
X12772562Y-10908984D02*
X12791610Y-10908984D01*
X12791610Y-10908984D02*
X12810658Y-10918508D01*
X12810658Y-10918508D02*
X12820182Y-10928031D01*
X12820182Y-10928031D02*
X12829705Y-10947079D01*
X12829705Y-10947079D02*
X12839229Y-10985174D01*
X12839229Y-10985174D02*
X12839229Y-11032793D01*
X12839229Y-11032793D02*
X12829705Y-11070889D01*
X12829705Y-11070889D02*
X12820182Y-11089936D01*
X12820182Y-11089936D02*
X12810658Y-11099460D01*
X12810658Y-11099460D02*
X12791610Y-11108984D01*
X12791610Y-11108984D02*
X12772562Y-11108984D01*
X12772562Y-11108984D02*
X12753515Y-11099460D01*
X12753515Y-11099460D02*
X12743991Y-11089936D01*
X12743991Y-11089936D02*
X12734467Y-11070889D01*
X12734467Y-11070889D02*
X12724943Y-11032793D01*
X12724943Y-11032793D02*
X12724943Y-10985174D01*
X12724943Y-10985174D02*
X12734467Y-10947079D01*
X12734467Y-10947079D02*
X12743991Y-10928031D01*
X12743991Y-10928031D02*
X12753515Y-10918508D01*
X12753515Y-10918508D02*
X12772562Y-10908984D01*
X12963039Y-10908984D02*
X12982086Y-10908984D01*
X12982086Y-10908984D02*
X13001134Y-10918508D01*
X13001134Y-10918508D02*
X13010658Y-10928031D01*
X13010658Y-10928031D02*
X13020182Y-10947079D01*
X13020182Y-10947079D02*
X13029705Y-10985174D01*
X13029705Y-10985174D02*
X13029705Y-11032793D01*
X13029705Y-11032793D02*
X13020182Y-11070889D01*
X13020182Y-11070889D02*
X13010658Y-11089936D01*
X13010658Y-11089936D02*
X13001134Y-11099460D01*
X13001134Y-11099460D02*
X12982086Y-11108984D01*
X12982086Y-11108984D02*
X12963039Y-11108984D01*
X12963039Y-11108984D02*
X12943991Y-11099460D01*
X12943991Y-11099460D02*
X12934467Y-11089936D01*
X12934467Y-11089936D02*
X12924943Y-11070889D01*
X12924943Y-11070889D02*
X12915420Y-11032793D01*
X12915420Y-11032793D02*
X12915420Y-10985174D01*
X12915420Y-10985174D02*
X12924943Y-10947079D01*
X12924943Y-10947079D02*
X12934467Y-10928031D01*
X12934467Y-10928031D02*
X12943991Y-10918508D01*
X12943991Y-10918508D02*
X12963039Y-10908984D01*
X13115420Y-11108984D02*
X13115420Y-10975650D01*
X13115420Y-10994698D02*
X13124943Y-10985174D01*
X13124943Y-10985174D02*
X13143991Y-10975650D01*
X13143991Y-10975650D02*
X13172563Y-10975650D01*
X13172563Y-10975650D02*
X13191610Y-10985174D01*
X13191610Y-10985174D02*
X13201134Y-11004222D01*
X13201134Y-11004222D02*
X13201134Y-11108984D01*
X13201134Y-11004222D02*
X13210658Y-10985174D01*
X13210658Y-10985174D02*
X13229705Y-10975650D01*
X13229705Y-10975650D02*
X13258277Y-10975650D01*
X13258277Y-10975650D02*
X13277324Y-10985174D01*
X13277324Y-10985174D02*
X13286848Y-11004222D01*
X13286848Y-11004222D02*
X13286848Y-11108984D01*
X13382086Y-11108984D02*
X13382086Y-10975650D01*
X13382086Y-10994698D02*
X13391610Y-10985174D01*
X13391610Y-10985174D02*
X13410658Y-10975650D01*
X13410658Y-10975650D02*
X13439229Y-10975650D01*
X13439229Y-10975650D02*
X13458277Y-10985174D01*
X13458277Y-10985174D02*
X13467801Y-11004222D01*
X13467801Y-11004222D02*
X13467801Y-11108984D01*
X13467801Y-11004222D02*
X13477324Y-10985174D01*
X13477324Y-10985174D02*
X13496372Y-10975650D01*
X13496372Y-10975650D02*
X13524943Y-10975650D01*
X13524943Y-10975650D02*
X13543991Y-10985174D01*
X13543991Y-10985174D02*
X13553515Y-11004222D01*
X13553515Y-11004222D02*
X13553515Y-11108984D01*
X13943991Y-10899460D02*
X13772563Y-11156603D01*
X14201134Y-10908984D02*
X14220182Y-10908984D01*
X14220182Y-10908984D02*
X14239229Y-10918508D01*
X14239229Y-10918508D02*
X14248753Y-10928031D01*
X14248753Y-10928031D02*
X14258277Y-10947079D01*
X14258277Y-10947079D02*
X14267801Y-10985174D01*
X14267801Y-10985174D02*
X14267801Y-11032793D01*
X14267801Y-11032793D02*
X14258277Y-11070889D01*
X14258277Y-11070889D02*
X14248753Y-11089936D01*
X14248753Y-11089936D02*
X14239229Y-11099460D01*
X14239229Y-11099460D02*
X14220182Y-11108984D01*
X14220182Y-11108984D02*
X14201134Y-11108984D01*
X14201134Y-11108984D02*
X14182086Y-11099460D01*
X14182086Y-11099460D02*
X14172563Y-11089936D01*
X14172563Y-11089936D02*
X14163039Y-11070889D01*
X14163039Y-11070889D02*
X14153515Y-11032793D01*
X14153515Y-11032793D02*
X14153515Y-10985174D01*
X14153515Y-10985174D02*
X14163039Y-10947079D01*
X14163039Y-10947079D02*
X14172563Y-10928031D01*
X14172563Y-10928031D02*
X14182086Y-10918508D01*
X14182086Y-10918508D02*
X14201134Y-10908984D01*
X14353515Y-11089936D02*
X14363039Y-11099460D01*
X14363039Y-11099460D02*
X14353515Y-11108984D01*
X14353515Y-11108984D02*
X14343991Y-11099460D01*
X14343991Y-11099460D02*
X14353515Y-11089936D01*
X14353515Y-11089936D02*
X14353515Y-11108984D01*
X14486848Y-10908984D02*
X14505896Y-10908984D01*
X14505896Y-10908984D02*
X14524944Y-10918508D01*
X14524944Y-10918508D02*
X14534467Y-10928031D01*
X14534467Y-10928031D02*
X14543991Y-10947079D01*
X14543991Y-10947079D02*
X14553515Y-10985174D01*
X14553515Y-10985174D02*
X14553515Y-11032793D01*
X14553515Y-11032793D02*
X14543991Y-11070889D01*
X14543991Y-11070889D02*
X14534467Y-11089936D01*
X14534467Y-11089936D02*
X14524944Y-11099460D01*
X14524944Y-11099460D02*
X14505896Y-11108984D01*
X14505896Y-11108984D02*
X14486848Y-11108984D01*
X14486848Y-11108984D02*
X14467801Y-11099460D01*
X14467801Y-11099460D02*
X14458277Y-11089936D01*
X14458277Y-11089936D02*
X14448753Y-11070889D01*
X14448753Y-11070889D02*
X14439229Y-11032793D01*
X14439229Y-11032793D02*
X14439229Y-10985174D01*
X14439229Y-10985174D02*
X14448753Y-10947079D01*
X14448753Y-10947079D02*
X14458277Y-10928031D01*
X14458277Y-10928031D02*
X14467801Y-10918508D01*
X14467801Y-10918508D02*
X14486848Y-10908984D01*
X14743991Y-11108984D02*
X14629706Y-11108984D01*
X14686848Y-11108984D02*
X14686848Y-10908984D01*
X14686848Y-10908984D02*
X14667801Y-10937555D01*
X14667801Y-10937555D02*
X14648753Y-10956603D01*
X14648753Y-10956603D02*
X14629706Y-10966127D01*
X14934467Y-11108984D02*
X14820182Y-11108984D01*
X14877325Y-11108984D02*
X14877325Y-10908984D01*
X14877325Y-10908984D02*
X14858277Y-10937555D01*
X14858277Y-10937555D02*
X14839229Y-10956603D01*
X14839229Y-10956603D02*
X14820182Y-10966127D01*
X15048753Y-10994698D02*
X15029706Y-10985174D01*
X15029706Y-10985174D02*
X15020182Y-10975650D01*
X15020182Y-10975650D02*
X15010658Y-10956603D01*
X15010658Y-10956603D02*
X15010658Y-10947079D01*
X15010658Y-10947079D02*
X15020182Y-10928031D01*
X15020182Y-10928031D02*
X15029706Y-10918508D01*
X15029706Y-10918508D02*
X15048753Y-10908984D01*
X15048753Y-10908984D02*
X15086848Y-10908984D01*
X15086848Y-10908984D02*
X15105896Y-10918508D01*
X15105896Y-10918508D02*
X15115420Y-10928031D01*
X15115420Y-10928031D02*
X15124944Y-10947079D01*
X15124944Y-10947079D02*
X15124944Y-10956603D01*
X15124944Y-10956603D02*
X15115420Y-10975650D01*
X15115420Y-10975650D02*
X15105896Y-10985174D01*
X15105896Y-10985174D02*
X15086848Y-10994698D01*
X15086848Y-10994698D02*
X15048753Y-10994698D01*
X15048753Y-10994698D02*
X15029706Y-11004222D01*
X15029706Y-11004222D02*
X15020182Y-11013746D01*
X15020182Y-11013746D02*
X15010658Y-11032793D01*
X15010658Y-11032793D02*
X15010658Y-11070889D01*
X15010658Y-11070889D02*
X15020182Y-11089936D01*
X15020182Y-11089936D02*
X15029706Y-11099460D01*
X15029706Y-11099460D02*
X15048753Y-11108984D01*
X15048753Y-11108984D02*
X15086848Y-11108984D01*
X15086848Y-11108984D02*
X15105896Y-11099460D01*
X15105896Y-11099460D02*
X15115420Y-11089936D01*
X15115420Y-11089936D02*
X15124944Y-11070889D01*
X15124944Y-11070889D02*
X15124944Y-11032793D01*
X15124944Y-11032793D02*
X15115420Y-11013746D01*
X15115420Y-11013746D02*
X15105896Y-11004222D01*
X15105896Y-11004222D02*
X15086848Y-10994698D01*
X15201134Y-10908984D02*
X15201134Y-10947079D01*
X15277325Y-10908984D02*
X15277325Y-10947079D01*
X15572563Y-11185174D02*
X15563039Y-11175650D01*
X15563039Y-11175650D02*
X15543991Y-11147079D01*
X15543991Y-11147079D02*
X15534468Y-11128031D01*
X15534468Y-11128031D02*
X15524944Y-11099460D01*
X15524944Y-11099460D02*
X15515420Y-11051841D01*
X15515420Y-11051841D02*
X15515420Y-11013746D01*
X15515420Y-11013746D02*
X15524944Y-10966127D01*
X15524944Y-10966127D02*
X15534468Y-10937555D01*
X15534468Y-10937555D02*
X15543991Y-10918508D01*
X15543991Y-10918508D02*
X15563039Y-10889936D01*
X15563039Y-10889936D02*
X15572563Y-10880412D01*
X15734468Y-10975650D02*
X15734468Y-11108984D01*
X15686848Y-10899460D02*
X15639229Y-11042317D01*
X15639229Y-11042317D02*
X15763039Y-11042317D01*
X15820182Y-10908984D02*
X15953515Y-10908984D01*
X15953515Y-10908984D02*
X15867801Y-11108984D01*
X16182087Y-11108984D02*
X16182087Y-10908984D01*
X16267801Y-11108984D02*
X16267801Y-11004222D01*
X16267801Y-11004222D02*
X16258277Y-10985174D01*
X16258277Y-10985174D02*
X16239230Y-10975650D01*
X16239230Y-10975650D02*
X16210658Y-10975650D01*
X16210658Y-10975650D02*
X16191610Y-10985174D01*
X16191610Y-10985174D02*
X16182087Y-10994698D01*
X16391610Y-11108984D02*
X16372563Y-11099460D01*
X16372563Y-11099460D02*
X16363039Y-11089936D01*
X16363039Y-11089936D02*
X16353515Y-11070889D01*
X16353515Y-11070889D02*
X16353515Y-11013746D01*
X16353515Y-11013746D02*
X16363039Y-10994698D01*
X16363039Y-10994698D02*
X16372563Y-10985174D01*
X16372563Y-10985174D02*
X16391610Y-10975650D01*
X16391610Y-10975650D02*
X16420182Y-10975650D01*
X16420182Y-10975650D02*
X16439230Y-10985174D01*
X16439230Y-10985174D02*
X16448753Y-10994698D01*
X16448753Y-10994698D02*
X16458277Y-11013746D01*
X16458277Y-11013746D02*
X16458277Y-11070889D01*
X16458277Y-11070889D02*
X16448753Y-11089936D01*
X16448753Y-11089936D02*
X16439230Y-11099460D01*
X16439230Y-11099460D02*
X16420182Y-11108984D01*
X16420182Y-11108984D02*
X16391610Y-11108984D01*
X16572563Y-11108984D02*
X16553515Y-11099460D01*
X16553515Y-11099460D02*
X16543991Y-11080412D01*
X16543991Y-11080412D02*
X16543991Y-10908984D01*
X16724944Y-11099460D02*
X16705896Y-11108984D01*
X16705896Y-11108984D02*
X16667801Y-11108984D01*
X16667801Y-11108984D02*
X16648753Y-11099460D01*
X16648753Y-11099460D02*
X16639230Y-11080412D01*
X16639230Y-11080412D02*
X16639230Y-11004222D01*
X16639230Y-11004222D02*
X16648753Y-10985174D01*
X16648753Y-10985174D02*
X16667801Y-10975650D01*
X16667801Y-10975650D02*
X16705896Y-10975650D01*
X16705896Y-10975650D02*
X16724944Y-10985174D01*
X16724944Y-10985174D02*
X16734468Y-11004222D01*
X16734468Y-11004222D02*
X16734468Y-11023270D01*
X16734468Y-11023270D02*
X16639230Y-11042317D01*
X16810658Y-11099460D02*
X16829706Y-11108984D01*
X16829706Y-11108984D02*
X16867801Y-11108984D01*
X16867801Y-11108984D02*
X16886849Y-11099460D01*
X16886849Y-11099460D02*
X16896373Y-11080412D01*
X16896373Y-11080412D02*
X16896373Y-11070889D01*
X16896373Y-11070889D02*
X16886849Y-11051841D01*
X16886849Y-11051841D02*
X16867801Y-11042317D01*
X16867801Y-11042317D02*
X16839230Y-11042317D01*
X16839230Y-11042317D02*
X16820182Y-11032793D01*
X16820182Y-11032793D02*
X16810658Y-11013746D01*
X16810658Y-11013746D02*
X16810658Y-11004222D01*
X16810658Y-11004222D02*
X16820182Y-10985174D01*
X16820182Y-10985174D02*
X16839230Y-10975650D01*
X16839230Y-10975650D02*
X16867801Y-10975650D01*
X16867801Y-10975650D02*
X16886849Y-10985174D01*
X16963039Y-11185174D02*
X16972563Y-11175650D01*
X16972563Y-11175650D02*
X16991611Y-11147079D01*
X16991611Y-11147079D02*
X17001134Y-11128031D01*
X17001134Y-11128031D02*
X17010658Y-11099460D01*
X17010658Y-11099460D02*
X17020182Y-11051841D01*
X17020182Y-11051841D02*
X17020182Y-11013746D01*
X17020182Y-11013746D02*
X17010658Y-10966127D01*
X17010658Y-10966127D02*
X17001134Y-10937555D01*
X17001134Y-10937555D02*
X16991611Y-10918508D01*
X16991611Y-10918508D02*
X16972563Y-10889936D01*
X16972563Y-10889936D02*
X16963039Y-10880412D01*
D12*
X11997500Y-11281500D02*
G75*
G02*
X11922500Y-11281500I-37500J0D01*
G01*
X11922500Y-11281500D02*
G75*
G02*
X11997500Y-11281500I37500J0D01*
G01*
D11*
X12296372Y-11172984D02*
X12315420Y-11172984D01*
X12315420Y-11172984D02*
X12334467Y-11182508D01*
X12334467Y-11182508D02*
X12343991Y-11192031D01*
X12343991Y-11192031D02*
X12353515Y-11211079D01*
X12353515Y-11211079D02*
X12363039Y-11249174D01*
X12363039Y-11249174D02*
X12363039Y-11296793D01*
X12363039Y-11296793D02*
X12353515Y-11334888D01*
X12353515Y-11334888D02*
X12343991Y-11353936D01*
X12343991Y-11353936D02*
X12334467Y-11363460D01*
X12334467Y-11363460D02*
X12315420Y-11372984D01*
X12315420Y-11372984D02*
X12296372Y-11372984D01*
X12296372Y-11372984D02*
X12277324Y-11363460D01*
X12277324Y-11363460D02*
X12267801Y-11353936D01*
X12267801Y-11353936D02*
X12258277Y-11334888D01*
X12258277Y-11334888D02*
X12248753Y-11296793D01*
X12248753Y-11296793D02*
X12248753Y-11249174D01*
X12248753Y-11249174D02*
X12258277Y-11211079D01*
X12258277Y-11211079D02*
X12267801Y-11192031D01*
X12267801Y-11192031D02*
X12277324Y-11182508D01*
X12277324Y-11182508D02*
X12296372Y-11172984D01*
X12448753Y-11353936D02*
X12458277Y-11363460D01*
X12458277Y-11363460D02*
X12448753Y-11372984D01*
X12448753Y-11372984D02*
X12439229Y-11363460D01*
X12439229Y-11363460D02*
X12448753Y-11353936D01*
X12448753Y-11353936D02*
X12448753Y-11372984D01*
X12524943Y-11172984D02*
X12658277Y-11172984D01*
X12658277Y-11172984D02*
X12572562Y-11372984D01*
X12829705Y-11172984D02*
X12734467Y-11172984D01*
X12734467Y-11172984D02*
X12724943Y-11268222D01*
X12724943Y-11268222D02*
X12734467Y-11258698D01*
X12734467Y-11258698D02*
X12753515Y-11249174D01*
X12753515Y-11249174D02*
X12801134Y-11249174D01*
X12801134Y-11249174D02*
X12820182Y-11258698D01*
X12820182Y-11258698D02*
X12829705Y-11268222D01*
X12829705Y-11268222D02*
X12839229Y-11287269D01*
X12839229Y-11287269D02*
X12839229Y-11334888D01*
X12839229Y-11334888D02*
X12829705Y-11353936D01*
X12829705Y-11353936D02*
X12820182Y-11363460D01*
X12820182Y-11363460D02*
X12801134Y-11372984D01*
X12801134Y-11372984D02*
X12753515Y-11372984D01*
X12753515Y-11372984D02*
X12734467Y-11363460D01*
X12734467Y-11363460D02*
X12724943Y-11353936D01*
X12963039Y-11172984D02*
X12982086Y-11172984D01*
X12982086Y-11172984D02*
X13001134Y-11182508D01*
X13001134Y-11182508D02*
X13010658Y-11192031D01*
X13010658Y-11192031D02*
X13020182Y-11211079D01*
X13020182Y-11211079D02*
X13029705Y-11249174D01*
X13029705Y-11249174D02*
X13029705Y-11296793D01*
X13029705Y-11296793D02*
X13020182Y-11334888D01*
X13020182Y-11334888D02*
X13010658Y-11353936D01*
X13010658Y-11353936D02*
X13001134Y-11363460D01*
X13001134Y-11363460D02*
X12982086Y-11372984D01*
X12982086Y-11372984D02*
X12963039Y-11372984D01*
X12963039Y-11372984D02*
X12943991Y-11363460D01*
X12943991Y-11363460D02*
X12934467Y-11353936D01*
X12934467Y-11353936D02*
X12924943Y-11334888D01*
X12924943Y-11334888D02*
X12915420Y-11296793D01*
X12915420Y-11296793D02*
X12915420Y-11249174D01*
X12915420Y-11249174D02*
X12924943Y-11211079D01*
X12924943Y-11211079D02*
X12934467Y-11192031D01*
X12934467Y-11192031D02*
X12943991Y-11182508D01*
X12943991Y-11182508D02*
X12963039Y-11172984D01*
X13115420Y-11372984D02*
X13115420Y-11239650D01*
X13115420Y-11258698D02*
X13124943Y-11249174D01*
X13124943Y-11249174D02*
X13143991Y-11239650D01*
X13143991Y-11239650D02*
X13172563Y-11239650D01*
X13172563Y-11239650D02*
X13191610Y-11249174D01*
X13191610Y-11249174D02*
X13201134Y-11268222D01*
X13201134Y-11268222D02*
X13201134Y-11372984D01*
X13201134Y-11268222D02*
X13210658Y-11249174D01*
X13210658Y-11249174D02*
X13229705Y-11239650D01*
X13229705Y-11239650D02*
X13258277Y-11239650D01*
X13258277Y-11239650D02*
X13277324Y-11249174D01*
X13277324Y-11249174D02*
X13286848Y-11268222D01*
X13286848Y-11268222D02*
X13286848Y-11372984D01*
X13382086Y-11372984D02*
X13382086Y-11239650D01*
X13382086Y-11258698D02*
X13391610Y-11249174D01*
X13391610Y-11249174D02*
X13410658Y-11239650D01*
X13410658Y-11239650D02*
X13439229Y-11239650D01*
X13439229Y-11239650D02*
X13458277Y-11249174D01*
X13458277Y-11249174D02*
X13467801Y-11268222D01*
X13467801Y-11268222D02*
X13467801Y-11372984D01*
X13467801Y-11268222D02*
X13477324Y-11249174D01*
X13477324Y-11249174D02*
X13496372Y-11239650D01*
X13496372Y-11239650D02*
X13524943Y-11239650D01*
X13524943Y-11239650D02*
X13543991Y-11249174D01*
X13543991Y-11249174D02*
X13553515Y-11268222D01*
X13553515Y-11268222D02*
X13553515Y-11372984D01*
X13943991Y-11163460D02*
X13772563Y-11420603D01*
X14201134Y-11172984D02*
X14220182Y-11172984D01*
X14220182Y-11172984D02*
X14239229Y-11182508D01*
X14239229Y-11182508D02*
X14248753Y-11192031D01*
X14248753Y-11192031D02*
X14258277Y-11211079D01*
X14258277Y-11211079D02*
X14267801Y-11249174D01*
X14267801Y-11249174D02*
X14267801Y-11296793D01*
X14267801Y-11296793D02*
X14258277Y-11334888D01*
X14258277Y-11334888D02*
X14248753Y-11353936D01*
X14248753Y-11353936D02*
X14239229Y-11363460D01*
X14239229Y-11363460D02*
X14220182Y-11372984D01*
X14220182Y-11372984D02*
X14201134Y-11372984D01*
X14201134Y-11372984D02*
X14182086Y-11363460D01*
X14182086Y-11363460D02*
X14172563Y-11353936D01*
X14172563Y-11353936D02*
X14163039Y-11334888D01*
X14163039Y-11334888D02*
X14153515Y-11296793D01*
X14153515Y-11296793D02*
X14153515Y-11249174D01*
X14153515Y-11249174D02*
X14163039Y-11211079D01*
X14163039Y-11211079D02*
X14172563Y-11192031D01*
X14172563Y-11192031D02*
X14182086Y-11182508D01*
X14182086Y-11182508D02*
X14201134Y-11172984D01*
X14353515Y-11353936D02*
X14363039Y-11363460D01*
X14363039Y-11363460D02*
X14353515Y-11372984D01*
X14353515Y-11372984D02*
X14343991Y-11363460D01*
X14343991Y-11363460D02*
X14353515Y-11353936D01*
X14353515Y-11353936D02*
X14353515Y-11372984D01*
X14486848Y-11172984D02*
X14505896Y-11172984D01*
X14505896Y-11172984D02*
X14524944Y-11182508D01*
X14524944Y-11182508D02*
X14534467Y-11192031D01*
X14534467Y-11192031D02*
X14543991Y-11211079D01*
X14543991Y-11211079D02*
X14553515Y-11249174D01*
X14553515Y-11249174D02*
X14553515Y-11296793D01*
X14553515Y-11296793D02*
X14543991Y-11334888D01*
X14543991Y-11334888D02*
X14534467Y-11353936D01*
X14534467Y-11353936D02*
X14524944Y-11363460D01*
X14524944Y-11363460D02*
X14505896Y-11372984D01*
X14505896Y-11372984D02*
X14486848Y-11372984D01*
X14486848Y-11372984D02*
X14467801Y-11363460D01*
X14467801Y-11363460D02*
X14458277Y-11353936D01*
X14458277Y-11353936D02*
X14448753Y-11334888D01*
X14448753Y-11334888D02*
X14439229Y-11296793D01*
X14439229Y-11296793D02*
X14439229Y-11249174D01*
X14439229Y-11249174D02*
X14448753Y-11211079D01*
X14448753Y-11211079D02*
X14458277Y-11192031D01*
X14458277Y-11192031D02*
X14467801Y-11182508D01*
X14467801Y-11182508D02*
X14486848Y-11172984D01*
X14629706Y-11192031D02*
X14639229Y-11182508D01*
X14639229Y-11182508D02*
X14658277Y-11172984D01*
X14658277Y-11172984D02*
X14705896Y-11172984D01*
X14705896Y-11172984D02*
X14724944Y-11182508D01*
X14724944Y-11182508D02*
X14734467Y-11192031D01*
X14734467Y-11192031D02*
X14743991Y-11211079D01*
X14743991Y-11211079D02*
X14743991Y-11230127D01*
X14743991Y-11230127D02*
X14734467Y-11258698D01*
X14734467Y-11258698D02*
X14620182Y-11372984D01*
X14620182Y-11372984D02*
X14743991Y-11372984D01*
X14839229Y-11372984D02*
X14877325Y-11372984D01*
X14877325Y-11372984D02*
X14896372Y-11363460D01*
X14896372Y-11363460D02*
X14905896Y-11353936D01*
X14905896Y-11353936D02*
X14924944Y-11325365D01*
X14924944Y-11325365D02*
X14934467Y-11287269D01*
X14934467Y-11287269D02*
X14934467Y-11211079D01*
X14934467Y-11211079D02*
X14924944Y-11192031D01*
X14924944Y-11192031D02*
X14915420Y-11182508D01*
X14915420Y-11182508D02*
X14896372Y-11172984D01*
X14896372Y-11172984D02*
X14858277Y-11172984D01*
X14858277Y-11172984D02*
X14839229Y-11182508D01*
X14839229Y-11182508D02*
X14829706Y-11192031D01*
X14829706Y-11192031D02*
X14820182Y-11211079D01*
X14820182Y-11211079D02*
X14820182Y-11258698D01*
X14820182Y-11258698D02*
X14829706Y-11277746D01*
X14829706Y-11277746D02*
X14839229Y-11287269D01*
X14839229Y-11287269D02*
X14858277Y-11296793D01*
X14858277Y-11296793D02*
X14896372Y-11296793D01*
X14896372Y-11296793D02*
X14915420Y-11287269D01*
X14915420Y-11287269D02*
X14924944Y-11277746D01*
X14924944Y-11277746D02*
X14934467Y-11258698D01*
X15115420Y-11172984D02*
X15020182Y-11172984D01*
X15020182Y-11172984D02*
X15010658Y-11268222D01*
X15010658Y-11268222D02*
X15020182Y-11258698D01*
X15020182Y-11258698D02*
X15039229Y-11249174D01*
X15039229Y-11249174D02*
X15086848Y-11249174D01*
X15086848Y-11249174D02*
X15105896Y-11258698D01*
X15105896Y-11258698D02*
X15115420Y-11268222D01*
X15115420Y-11268222D02*
X15124944Y-11287269D01*
X15124944Y-11287269D02*
X15124944Y-11334888D01*
X15124944Y-11334888D02*
X15115420Y-11353936D01*
X15115420Y-11353936D02*
X15105896Y-11363460D01*
X15105896Y-11363460D02*
X15086848Y-11372984D01*
X15086848Y-11372984D02*
X15039229Y-11372984D01*
X15039229Y-11372984D02*
X15020182Y-11363460D01*
X15020182Y-11363460D02*
X15010658Y-11353936D01*
X15201134Y-11172984D02*
X15201134Y-11211079D01*
X15277325Y-11172984D02*
X15277325Y-11211079D01*
X15572563Y-11449174D02*
X15563039Y-11439650D01*
X15563039Y-11439650D02*
X15543991Y-11411079D01*
X15543991Y-11411079D02*
X15534468Y-11392031D01*
X15534468Y-11392031D02*
X15524944Y-11363460D01*
X15524944Y-11363460D02*
X15515420Y-11315841D01*
X15515420Y-11315841D02*
X15515420Y-11277746D01*
X15515420Y-11277746D02*
X15524944Y-11230127D01*
X15524944Y-11230127D02*
X15534468Y-11201555D01*
X15534468Y-11201555D02*
X15543991Y-11182508D01*
X15543991Y-11182508D02*
X15563039Y-11153936D01*
X15563039Y-11153936D02*
X15572563Y-11144412D01*
X15629706Y-11172984D02*
X15753515Y-11172984D01*
X15753515Y-11172984D02*
X15686848Y-11249174D01*
X15686848Y-11249174D02*
X15715420Y-11249174D01*
X15715420Y-11249174D02*
X15734468Y-11258698D01*
X15734468Y-11258698D02*
X15743991Y-11268222D01*
X15743991Y-11268222D02*
X15753515Y-11287269D01*
X15753515Y-11287269D02*
X15753515Y-11334888D01*
X15753515Y-11334888D02*
X15743991Y-11353936D01*
X15743991Y-11353936D02*
X15734468Y-11363460D01*
X15734468Y-11363460D02*
X15715420Y-11372984D01*
X15715420Y-11372984D02*
X15658277Y-11372984D01*
X15658277Y-11372984D02*
X15639229Y-11363460D01*
X15639229Y-11363460D02*
X15629706Y-11353936D01*
X15991610Y-11372984D02*
X15991610Y-11172984D01*
X16077325Y-11372984D02*
X16077325Y-11268222D01*
X16077325Y-11268222D02*
X16067801Y-11249174D01*
X16067801Y-11249174D02*
X16048753Y-11239650D01*
X16048753Y-11239650D02*
X16020182Y-11239650D01*
X16020182Y-11239650D02*
X16001134Y-11249174D01*
X16001134Y-11249174D02*
X15991610Y-11258698D01*
X16201134Y-11372984D02*
X16182087Y-11363460D01*
X16182087Y-11363460D02*
X16172563Y-11353936D01*
X16172563Y-11353936D02*
X16163039Y-11334888D01*
X16163039Y-11334888D02*
X16163039Y-11277746D01*
X16163039Y-11277746D02*
X16172563Y-11258698D01*
X16172563Y-11258698D02*
X16182087Y-11249174D01*
X16182087Y-11249174D02*
X16201134Y-11239650D01*
X16201134Y-11239650D02*
X16229706Y-11239650D01*
X16229706Y-11239650D02*
X16248753Y-11249174D01*
X16248753Y-11249174D02*
X16258277Y-11258698D01*
X16258277Y-11258698D02*
X16267801Y-11277746D01*
X16267801Y-11277746D02*
X16267801Y-11334888D01*
X16267801Y-11334888D02*
X16258277Y-11353936D01*
X16258277Y-11353936D02*
X16248753Y-11363460D01*
X16248753Y-11363460D02*
X16229706Y-11372984D01*
X16229706Y-11372984D02*
X16201134Y-11372984D01*
X16382087Y-11372984D02*
X16363039Y-11363460D01*
X16363039Y-11363460D02*
X16353515Y-11344412D01*
X16353515Y-11344412D02*
X16353515Y-11172984D01*
X16534468Y-11363460D02*
X16515420Y-11372984D01*
X16515420Y-11372984D02*
X16477325Y-11372984D01*
X16477325Y-11372984D02*
X16458277Y-11363460D01*
X16458277Y-11363460D02*
X16448753Y-11344412D01*
X16448753Y-11344412D02*
X16448753Y-11268222D01*
X16448753Y-11268222D02*
X16458277Y-11249174D01*
X16458277Y-11249174D02*
X16477325Y-11239650D01*
X16477325Y-11239650D02*
X16515420Y-11239650D01*
X16515420Y-11239650D02*
X16534468Y-11249174D01*
X16534468Y-11249174D02*
X16543991Y-11268222D01*
X16543991Y-11268222D02*
X16543991Y-11287269D01*
X16543991Y-11287269D02*
X16448753Y-11306317D01*
X16620182Y-11363460D02*
X16639230Y-11372984D01*
X16639230Y-11372984D02*
X16677325Y-11372984D01*
X16677325Y-11372984D02*
X16696372Y-11363460D01*
X16696372Y-11363460D02*
X16705896Y-11344412D01*
X16705896Y-11344412D02*
X16705896Y-11334888D01*
X16705896Y-11334888D02*
X16696372Y-11315841D01*
X16696372Y-11315841D02*
X16677325Y-11306317D01*
X16677325Y-11306317D02*
X16648753Y-11306317D01*
X16648753Y-11306317D02*
X16629706Y-11296793D01*
X16629706Y-11296793D02*
X16620182Y-11277746D01*
X16620182Y-11277746D02*
X16620182Y-11268222D01*
X16620182Y-11268222D02*
X16629706Y-11249174D01*
X16629706Y-11249174D02*
X16648753Y-11239650D01*
X16648753Y-11239650D02*
X16677325Y-11239650D01*
X16677325Y-11239650D02*
X16696372Y-11249174D01*
X16772563Y-11449174D02*
X16782087Y-11439650D01*
X16782087Y-11439650D02*
X16801134Y-11411079D01*
X16801134Y-11411079D02*
X16810658Y-11392031D01*
X16810658Y-11392031D02*
X16820182Y-11363460D01*
X16820182Y-11363460D02*
X16829706Y-11315841D01*
X16829706Y-11315841D02*
X16829706Y-11277746D01*
X16829706Y-11277746D02*
X16820182Y-11230127D01*
X16820182Y-11230127D02*
X16810658Y-11201555D01*
X16810658Y-11201555D02*
X16801134Y-11182508D01*
X16801134Y-11182508D02*
X16782087Y-11153936D01*
X16782087Y-11153936D02*
X16772563Y-11144412D01*
D12*
X11957500Y-11505500D02*
X11957500Y-11585500D01*
X11917500Y-11545500D02*
X11997500Y-11545500D01*
D11*
X12296372Y-11436984D02*
X12315420Y-11436984D01*
X12315420Y-11436984D02*
X12334467Y-11446508D01*
X12334467Y-11446508D02*
X12343991Y-11456031D01*
X12343991Y-11456031D02*
X12353515Y-11475079D01*
X12353515Y-11475079D02*
X12363039Y-11513174D01*
X12363039Y-11513174D02*
X12363039Y-11560793D01*
X12363039Y-11560793D02*
X12353515Y-11598888D01*
X12353515Y-11598888D02*
X12343991Y-11617936D01*
X12343991Y-11617936D02*
X12334467Y-11627460D01*
X12334467Y-11627460D02*
X12315420Y-11636984D01*
X12315420Y-11636984D02*
X12296372Y-11636984D01*
X12296372Y-11636984D02*
X12277324Y-11627460D01*
X12277324Y-11627460D02*
X12267801Y-11617936D01*
X12267801Y-11617936D02*
X12258277Y-11598888D01*
X12258277Y-11598888D02*
X12248753Y-11560793D01*
X12248753Y-11560793D02*
X12248753Y-11513174D01*
X12248753Y-11513174D02*
X12258277Y-11475079D01*
X12258277Y-11475079D02*
X12267801Y-11456031D01*
X12267801Y-11456031D02*
X12277324Y-11446508D01*
X12277324Y-11446508D02*
X12296372Y-11436984D01*
X12448753Y-11617936D02*
X12458277Y-11627460D01*
X12458277Y-11627460D02*
X12448753Y-11636984D01*
X12448753Y-11636984D02*
X12439229Y-11627460D01*
X12439229Y-11627460D02*
X12448753Y-11617936D01*
X12448753Y-11617936D02*
X12448753Y-11636984D01*
X12572562Y-11522698D02*
X12553515Y-11513174D01*
X12553515Y-11513174D02*
X12543991Y-11503650D01*
X12543991Y-11503650D02*
X12534467Y-11484603D01*
X12534467Y-11484603D02*
X12534467Y-11475079D01*
X12534467Y-11475079D02*
X12543991Y-11456031D01*
X12543991Y-11456031D02*
X12553515Y-11446508D01*
X12553515Y-11446508D02*
X12572562Y-11436984D01*
X12572562Y-11436984D02*
X12610658Y-11436984D01*
X12610658Y-11436984D02*
X12629705Y-11446508D01*
X12629705Y-11446508D02*
X12639229Y-11456031D01*
X12639229Y-11456031D02*
X12648753Y-11475079D01*
X12648753Y-11475079D02*
X12648753Y-11484603D01*
X12648753Y-11484603D02*
X12639229Y-11503650D01*
X12639229Y-11503650D02*
X12629705Y-11513174D01*
X12629705Y-11513174D02*
X12610658Y-11522698D01*
X12610658Y-11522698D02*
X12572562Y-11522698D01*
X12572562Y-11522698D02*
X12553515Y-11532222D01*
X12553515Y-11532222D02*
X12543991Y-11541746D01*
X12543991Y-11541746D02*
X12534467Y-11560793D01*
X12534467Y-11560793D02*
X12534467Y-11598888D01*
X12534467Y-11598888D02*
X12543991Y-11617936D01*
X12543991Y-11617936D02*
X12553515Y-11627460D01*
X12553515Y-11627460D02*
X12572562Y-11636984D01*
X12572562Y-11636984D02*
X12610658Y-11636984D01*
X12610658Y-11636984D02*
X12629705Y-11627460D01*
X12629705Y-11627460D02*
X12639229Y-11617936D01*
X12639229Y-11617936D02*
X12648753Y-11598888D01*
X12648753Y-11598888D02*
X12648753Y-11560793D01*
X12648753Y-11560793D02*
X12639229Y-11541746D01*
X12639229Y-11541746D02*
X12629705Y-11532222D01*
X12629705Y-11532222D02*
X12610658Y-11522698D01*
X12772562Y-11436984D02*
X12791610Y-11436984D01*
X12791610Y-11436984D02*
X12810658Y-11446508D01*
X12810658Y-11446508D02*
X12820182Y-11456031D01*
X12820182Y-11456031D02*
X12829705Y-11475079D01*
X12829705Y-11475079D02*
X12839229Y-11513174D01*
X12839229Y-11513174D02*
X12839229Y-11560793D01*
X12839229Y-11560793D02*
X12829705Y-11598888D01*
X12829705Y-11598888D02*
X12820182Y-11617936D01*
X12820182Y-11617936D02*
X12810658Y-11627460D01*
X12810658Y-11627460D02*
X12791610Y-11636984D01*
X12791610Y-11636984D02*
X12772562Y-11636984D01*
X12772562Y-11636984D02*
X12753515Y-11627460D01*
X12753515Y-11627460D02*
X12743991Y-11617936D01*
X12743991Y-11617936D02*
X12734467Y-11598888D01*
X12734467Y-11598888D02*
X12724943Y-11560793D01*
X12724943Y-11560793D02*
X12724943Y-11513174D01*
X12724943Y-11513174D02*
X12734467Y-11475079D01*
X12734467Y-11475079D02*
X12743991Y-11456031D01*
X12743991Y-11456031D02*
X12753515Y-11446508D01*
X12753515Y-11446508D02*
X12772562Y-11436984D01*
X12963039Y-11436984D02*
X12982086Y-11436984D01*
X12982086Y-11436984D02*
X13001134Y-11446508D01*
X13001134Y-11446508D02*
X13010658Y-11456031D01*
X13010658Y-11456031D02*
X13020182Y-11475079D01*
X13020182Y-11475079D02*
X13029705Y-11513174D01*
X13029705Y-11513174D02*
X13029705Y-11560793D01*
X13029705Y-11560793D02*
X13020182Y-11598888D01*
X13020182Y-11598888D02*
X13010658Y-11617936D01*
X13010658Y-11617936D02*
X13001134Y-11627460D01*
X13001134Y-11627460D02*
X12982086Y-11636984D01*
X12982086Y-11636984D02*
X12963039Y-11636984D01*
X12963039Y-11636984D02*
X12943991Y-11627460D01*
X12943991Y-11627460D02*
X12934467Y-11617936D01*
X12934467Y-11617936D02*
X12924943Y-11598888D01*
X12924943Y-11598888D02*
X12915420Y-11560793D01*
X12915420Y-11560793D02*
X12915420Y-11513174D01*
X12915420Y-11513174D02*
X12924943Y-11475079D01*
X12924943Y-11475079D02*
X12934467Y-11456031D01*
X12934467Y-11456031D02*
X12943991Y-11446508D01*
X12943991Y-11446508D02*
X12963039Y-11436984D01*
X13115420Y-11636984D02*
X13115420Y-11503650D01*
X13115420Y-11522698D02*
X13124943Y-11513174D01*
X13124943Y-11513174D02*
X13143991Y-11503650D01*
X13143991Y-11503650D02*
X13172563Y-11503650D01*
X13172563Y-11503650D02*
X13191610Y-11513174D01*
X13191610Y-11513174D02*
X13201134Y-11532222D01*
X13201134Y-11532222D02*
X13201134Y-11636984D01*
X13201134Y-11532222D02*
X13210658Y-11513174D01*
X13210658Y-11513174D02*
X13229705Y-11503650D01*
X13229705Y-11503650D02*
X13258277Y-11503650D01*
X13258277Y-11503650D02*
X13277324Y-11513174D01*
X13277324Y-11513174D02*
X13286848Y-11532222D01*
X13286848Y-11532222D02*
X13286848Y-11636984D01*
X13382086Y-11636984D02*
X13382086Y-11503650D01*
X13382086Y-11522698D02*
X13391610Y-11513174D01*
X13391610Y-11513174D02*
X13410658Y-11503650D01*
X13410658Y-11503650D02*
X13439229Y-11503650D01*
X13439229Y-11503650D02*
X13458277Y-11513174D01*
X13458277Y-11513174D02*
X13467801Y-11532222D01*
X13467801Y-11532222D02*
X13467801Y-11636984D01*
X13467801Y-11532222D02*
X13477324Y-11513174D01*
X13477324Y-11513174D02*
X13496372Y-11503650D01*
X13496372Y-11503650D02*
X13524943Y-11503650D01*
X13524943Y-11503650D02*
X13543991Y-11513174D01*
X13543991Y-11513174D02*
X13553515Y-11532222D01*
X13553515Y-11532222D02*
X13553515Y-11636984D01*
X13943991Y-11427460D02*
X13772563Y-11684603D01*
X14201134Y-11436984D02*
X14220182Y-11436984D01*
X14220182Y-11436984D02*
X14239229Y-11446508D01*
X14239229Y-11446508D02*
X14248753Y-11456031D01*
X14248753Y-11456031D02*
X14258277Y-11475079D01*
X14258277Y-11475079D02*
X14267801Y-11513174D01*
X14267801Y-11513174D02*
X14267801Y-11560793D01*
X14267801Y-11560793D02*
X14258277Y-11598888D01*
X14258277Y-11598888D02*
X14248753Y-11617936D01*
X14248753Y-11617936D02*
X14239229Y-11627460D01*
X14239229Y-11627460D02*
X14220182Y-11636984D01*
X14220182Y-11636984D02*
X14201134Y-11636984D01*
X14201134Y-11636984D02*
X14182086Y-11627460D01*
X14182086Y-11627460D02*
X14172563Y-11617936D01*
X14172563Y-11617936D02*
X14163039Y-11598888D01*
X14163039Y-11598888D02*
X14153515Y-11560793D01*
X14153515Y-11560793D02*
X14153515Y-11513174D01*
X14153515Y-11513174D02*
X14163039Y-11475079D01*
X14163039Y-11475079D02*
X14172563Y-11456031D01*
X14172563Y-11456031D02*
X14182086Y-11446508D01*
X14182086Y-11446508D02*
X14201134Y-11436984D01*
X14353515Y-11617936D02*
X14363039Y-11627460D01*
X14363039Y-11627460D02*
X14353515Y-11636984D01*
X14353515Y-11636984D02*
X14343991Y-11627460D01*
X14343991Y-11627460D02*
X14353515Y-11617936D01*
X14353515Y-11617936D02*
X14353515Y-11636984D01*
X14486848Y-11436984D02*
X14505896Y-11436984D01*
X14505896Y-11436984D02*
X14524944Y-11446508D01*
X14524944Y-11446508D02*
X14534467Y-11456031D01*
X14534467Y-11456031D02*
X14543991Y-11475079D01*
X14543991Y-11475079D02*
X14553515Y-11513174D01*
X14553515Y-11513174D02*
X14553515Y-11560793D01*
X14553515Y-11560793D02*
X14543991Y-11598888D01*
X14543991Y-11598888D02*
X14534467Y-11617936D01*
X14534467Y-11617936D02*
X14524944Y-11627460D01*
X14524944Y-11627460D02*
X14505896Y-11636984D01*
X14505896Y-11636984D02*
X14486848Y-11636984D01*
X14486848Y-11636984D02*
X14467801Y-11627460D01*
X14467801Y-11627460D02*
X14458277Y-11617936D01*
X14458277Y-11617936D02*
X14448753Y-11598888D01*
X14448753Y-11598888D02*
X14439229Y-11560793D01*
X14439229Y-11560793D02*
X14439229Y-11513174D01*
X14439229Y-11513174D02*
X14448753Y-11475079D01*
X14448753Y-11475079D02*
X14458277Y-11456031D01*
X14458277Y-11456031D02*
X14467801Y-11446508D01*
X14467801Y-11446508D02*
X14486848Y-11436984D01*
X14620182Y-11436984D02*
X14743991Y-11436984D01*
X14743991Y-11436984D02*
X14677325Y-11513174D01*
X14677325Y-11513174D02*
X14705896Y-11513174D01*
X14705896Y-11513174D02*
X14724944Y-11522698D01*
X14724944Y-11522698D02*
X14734467Y-11532222D01*
X14734467Y-11532222D02*
X14743991Y-11551269D01*
X14743991Y-11551269D02*
X14743991Y-11598888D01*
X14743991Y-11598888D02*
X14734467Y-11617936D01*
X14734467Y-11617936D02*
X14724944Y-11627460D01*
X14724944Y-11627460D02*
X14705896Y-11636984D01*
X14705896Y-11636984D02*
X14648753Y-11636984D01*
X14648753Y-11636984D02*
X14629706Y-11627460D01*
X14629706Y-11627460D02*
X14620182Y-11617936D01*
X14934467Y-11636984D02*
X14820182Y-11636984D01*
X14877325Y-11636984D02*
X14877325Y-11436984D01*
X14877325Y-11436984D02*
X14858277Y-11465555D01*
X14858277Y-11465555D02*
X14839229Y-11484603D01*
X14839229Y-11484603D02*
X14820182Y-11494127D01*
X15115420Y-11436984D02*
X15020182Y-11436984D01*
X15020182Y-11436984D02*
X15010658Y-11532222D01*
X15010658Y-11532222D02*
X15020182Y-11522698D01*
X15020182Y-11522698D02*
X15039229Y-11513174D01*
X15039229Y-11513174D02*
X15086848Y-11513174D01*
X15086848Y-11513174D02*
X15105896Y-11522698D01*
X15105896Y-11522698D02*
X15115420Y-11532222D01*
X15115420Y-11532222D02*
X15124944Y-11551269D01*
X15124944Y-11551269D02*
X15124944Y-11598888D01*
X15124944Y-11598888D02*
X15115420Y-11617936D01*
X15115420Y-11617936D02*
X15105896Y-11627460D01*
X15105896Y-11627460D02*
X15086848Y-11636984D01*
X15086848Y-11636984D02*
X15039229Y-11636984D01*
X15039229Y-11636984D02*
X15020182Y-11627460D01*
X15020182Y-11627460D02*
X15010658Y-11617936D01*
X15201134Y-11436984D02*
X15201134Y-11475079D01*
X15277325Y-11436984D02*
X15277325Y-11475079D01*
X15572563Y-11713174D02*
X15563039Y-11703650D01*
X15563039Y-11703650D02*
X15543991Y-11675079D01*
X15543991Y-11675079D02*
X15534468Y-11656031D01*
X15534468Y-11656031D02*
X15524944Y-11627460D01*
X15524944Y-11627460D02*
X15515420Y-11579841D01*
X15515420Y-11579841D02*
X15515420Y-11541746D01*
X15515420Y-11541746D02*
X15524944Y-11494127D01*
X15524944Y-11494127D02*
X15534468Y-11465555D01*
X15534468Y-11465555D02*
X15543991Y-11446508D01*
X15543991Y-11446508D02*
X15563039Y-11417936D01*
X15563039Y-11417936D02*
X15572563Y-11408412D01*
X15753515Y-11636984D02*
X15639229Y-11636984D01*
X15696372Y-11636984D02*
X15696372Y-11436984D01*
X15696372Y-11436984D02*
X15677325Y-11465555D01*
X15677325Y-11465555D02*
X15658277Y-11484603D01*
X15658277Y-11484603D02*
X15639229Y-11494127D01*
X15877325Y-11436984D02*
X15896372Y-11436984D01*
X15896372Y-11436984D02*
X15915420Y-11446508D01*
X15915420Y-11446508D02*
X15924944Y-11456031D01*
X15924944Y-11456031D02*
X15934468Y-11475079D01*
X15934468Y-11475079D02*
X15943991Y-11513174D01*
X15943991Y-11513174D02*
X15943991Y-11560793D01*
X15943991Y-11560793D02*
X15934468Y-11598888D01*
X15934468Y-11598888D02*
X15924944Y-11617936D01*
X15924944Y-11617936D02*
X15915420Y-11627460D01*
X15915420Y-11627460D02*
X15896372Y-11636984D01*
X15896372Y-11636984D02*
X15877325Y-11636984D01*
X15877325Y-11636984D02*
X15858277Y-11627460D01*
X15858277Y-11627460D02*
X15848753Y-11617936D01*
X15848753Y-11617936D02*
X15839229Y-11598888D01*
X15839229Y-11598888D02*
X15829706Y-11560793D01*
X15829706Y-11560793D02*
X15829706Y-11513174D01*
X15829706Y-11513174D02*
X15839229Y-11475079D01*
X15839229Y-11475079D02*
X15848753Y-11456031D01*
X15848753Y-11456031D02*
X15858277Y-11446508D01*
X15858277Y-11446508D02*
X15877325Y-11436984D01*
X16182087Y-11636984D02*
X16182087Y-11436984D01*
X16267801Y-11636984D02*
X16267801Y-11532222D01*
X16267801Y-11532222D02*
X16258277Y-11513174D01*
X16258277Y-11513174D02*
X16239230Y-11503650D01*
X16239230Y-11503650D02*
X16210658Y-11503650D01*
X16210658Y-11503650D02*
X16191610Y-11513174D01*
X16191610Y-11513174D02*
X16182087Y-11522698D01*
X16391610Y-11636984D02*
X16372563Y-11627460D01*
X16372563Y-11627460D02*
X16363039Y-11617936D01*
X16363039Y-11617936D02*
X16353515Y-11598888D01*
X16353515Y-11598888D02*
X16353515Y-11541746D01*
X16353515Y-11541746D02*
X16363039Y-11522698D01*
X16363039Y-11522698D02*
X16372563Y-11513174D01*
X16372563Y-11513174D02*
X16391610Y-11503650D01*
X16391610Y-11503650D02*
X16420182Y-11503650D01*
X16420182Y-11503650D02*
X16439230Y-11513174D01*
X16439230Y-11513174D02*
X16448753Y-11522698D01*
X16448753Y-11522698D02*
X16458277Y-11541746D01*
X16458277Y-11541746D02*
X16458277Y-11598888D01*
X16458277Y-11598888D02*
X16448753Y-11617936D01*
X16448753Y-11617936D02*
X16439230Y-11627460D01*
X16439230Y-11627460D02*
X16420182Y-11636984D01*
X16420182Y-11636984D02*
X16391610Y-11636984D01*
X16572563Y-11636984D02*
X16553515Y-11627460D01*
X16553515Y-11627460D02*
X16543991Y-11608412D01*
X16543991Y-11608412D02*
X16543991Y-11436984D01*
X16724944Y-11627460D02*
X16705896Y-11636984D01*
X16705896Y-11636984D02*
X16667801Y-11636984D01*
X16667801Y-11636984D02*
X16648753Y-11627460D01*
X16648753Y-11627460D02*
X16639230Y-11608412D01*
X16639230Y-11608412D02*
X16639230Y-11532222D01*
X16639230Y-11532222D02*
X16648753Y-11513174D01*
X16648753Y-11513174D02*
X16667801Y-11503650D01*
X16667801Y-11503650D02*
X16705896Y-11503650D01*
X16705896Y-11503650D02*
X16724944Y-11513174D01*
X16724944Y-11513174D02*
X16734468Y-11532222D01*
X16734468Y-11532222D02*
X16734468Y-11551269D01*
X16734468Y-11551269D02*
X16639230Y-11570317D01*
X16810658Y-11627460D02*
X16829706Y-11636984D01*
X16829706Y-11636984D02*
X16867801Y-11636984D01*
X16867801Y-11636984D02*
X16886849Y-11627460D01*
X16886849Y-11627460D02*
X16896373Y-11608412D01*
X16896373Y-11608412D02*
X16896373Y-11598888D01*
X16896373Y-11598888D02*
X16886849Y-11579841D01*
X16886849Y-11579841D02*
X16867801Y-11570317D01*
X16867801Y-11570317D02*
X16839230Y-11570317D01*
X16839230Y-11570317D02*
X16820182Y-11560793D01*
X16820182Y-11560793D02*
X16810658Y-11541746D01*
X16810658Y-11541746D02*
X16810658Y-11532222D01*
X16810658Y-11532222D02*
X16820182Y-11513174D01*
X16820182Y-11513174D02*
X16839230Y-11503650D01*
X16839230Y-11503650D02*
X16867801Y-11503650D01*
X16867801Y-11503650D02*
X16886849Y-11513174D01*
X16963039Y-11713174D02*
X16972563Y-11703650D01*
X16972563Y-11703650D02*
X16991611Y-11675079D01*
X16991611Y-11675079D02*
X17001134Y-11656031D01*
X17001134Y-11656031D02*
X17010658Y-11627460D01*
X17010658Y-11627460D02*
X17020182Y-11579841D01*
X17020182Y-11579841D02*
X17020182Y-11541746D01*
X17020182Y-11541746D02*
X17010658Y-11494127D01*
X17010658Y-11494127D02*
X17001134Y-11465555D01*
X17001134Y-11465555D02*
X16991611Y-11446508D01*
X16991611Y-11446508D02*
X16972563Y-11417936D01*
X16972563Y-11417936D02*
X16963039Y-11408412D01*
D12*
X11984320Y-11841320D02*
X11984320Y-11777680D01*
X11920680Y-11777680D01*
X11920680Y-11841320D01*
X11984320Y-11841320D01*
D11*
X12296372Y-11700984D02*
X12315420Y-11700984D01*
X12315420Y-11700984D02*
X12334467Y-11710508D01*
X12334467Y-11710508D02*
X12343991Y-11720031D01*
X12343991Y-11720031D02*
X12353515Y-11739079D01*
X12353515Y-11739079D02*
X12363039Y-11777174D01*
X12363039Y-11777174D02*
X12363039Y-11824793D01*
X12363039Y-11824793D02*
X12353515Y-11862888D01*
X12353515Y-11862888D02*
X12343991Y-11881936D01*
X12343991Y-11881936D02*
X12334467Y-11891460D01*
X12334467Y-11891460D02*
X12315420Y-11900984D01*
X12315420Y-11900984D02*
X12296372Y-11900984D01*
X12296372Y-11900984D02*
X12277324Y-11891460D01*
X12277324Y-11891460D02*
X12267801Y-11881936D01*
X12267801Y-11881936D02*
X12258277Y-11862888D01*
X12258277Y-11862888D02*
X12248753Y-11824793D01*
X12248753Y-11824793D02*
X12248753Y-11777174D01*
X12248753Y-11777174D02*
X12258277Y-11739079D01*
X12258277Y-11739079D02*
X12267801Y-11720031D01*
X12267801Y-11720031D02*
X12277324Y-11710508D01*
X12277324Y-11710508D02*
X12296372Y-11700984D01*
X12448753Y-11881936D02*
X12458277Y-11891460D01*
X12458277Y-11891460D02*
X12448753Y-11900984D01*
X12448753Y-11900984D02*
X12439229Y-11891460D01*
X12439229Y-11891460D02*
X12448753Y-11881936D01*
X12448753Y-11881936D02*
X12448753Y-11900984D01*
X12553515Y-11900984D02*
X12591610Y-11900984D01*
X12591610Y-11900984D02*
X12610658Y-11891460D01*
X12610658Y-11891460D02*
X12620182Y-11881936D01*
X12620182Y-11881936D02*
X12639229Y-11853365D01*
X12639229Y-11853365D02*
X12648753Y-11815269D01*
X12648753Y-11815269D02*
X12648753Y-11739079D01*
X12648753Y-11739079D02*
X12639229Y-11720031D01*
X12639229Y-11720031D02*
X12629705Y-11710508D01*
X12629705Y-11710508D02*
X12610658Y-11700984D01*
X12610658Y-11700984D02*
X12572562Y-11700984D01*
X12572562Y-11700984D02*
X12553515Y-11710508D01*
X12553515Y-11710508D02*
X12543991Y-11720031D01*
X12543991Y-11720031D02*
X12534467Y-11739079D01*
X12534467Y-11739079D02*
X12534467Y-11786698D01*
X12534467Y-11786698D02*
X12543991Y-11805746D01*
X12543991Y-11805746D02*
X12553515Y-11815269D01*
X12553515Y-11815269D02*
X12572562Y-11824793D01*
X12572562Y-11824793D02*
X12610658Y-11824793D01*
X12610658Y-11824793D02*
X12629705Y-11815269D01*
X12629705Y-11815269D02*
X12639229Y-11805746D01*
X12639229Y-11805746D02*
X12648753Y-11786698D01*
X12772562Y-11700984D02*
X12791610Y-11700984D01*
X12791610Y-11700984D02*
X12810658Y-11710508D01*
X12810658Y-11710508D02*
X12820182Y-11720031D01*
X12820182Y-11720031D02*
X12829705Y-11739079D01*
X12829705Y-11739079D02*
X12839229Y-11777174D01*
X12839229Y-11777174D02*
X12839229Y-11824793D01*
X12839229Y-11824793D02*
X12829705Y-11862888D01*
X12829705Y-11862888D02*
X12820182Y-11881936D01*
X12820182Y-11881936D02*
X12810658Y-11891460D01*
X12810658Y-11891460D02*
X12791610Y-11900984D01*
X12791610Y-11900984D02*
X12772562Y-11900984D01*
X12772562Y-11900984D02*
X12753515Y-11891460D01*
X12753515Y-11891460D02*
X12743991Y-11881936D01*
X12743991Y-11881936D02*
X12734467Y-11862888D01*
X12734467Y-11862888D02*
X12724943Y-11824793D01*
X12724943Y-11824793D02*
X12724943Y-11777174D01*
X12724943Y-11777174D02*
X12734467Y-11739079D01*
X12734467Y-11739079D02*
X12743991Y-11720031D01*
X12743991Y-11720031D02*
X12753515Y-11710508D01*
X12753515Y-11710508D02*
X12772562Y-11700984D01*
X12963039Y-11700984D02*
X12982086Y-11700984D01*
X12982086Y-11700984D02*
X13001134Y-11710508D01*
X13001134Y-11710508D02*
X13010658Y-11720031D01*
X13010658Y-11720031D02*
X13020182Y-11739079D01*
X13020182Y-11739079D02*
X13029705Y-11777174D01*
X13029705Y-11777174D02*
X13029705Y-11824793D01*
X13029705Y-11824793D02*
X13020182Y-11862888D01*
X13020182Y-11862888D02*
X13010658Y-11881936D01*
X13010658Y-11881936D02*
X13001134Y-11891460D01*
X13001134Y-11891460D02*
X12982086Y-11900984D01*
X12982086Y-11900984D02*
X12963039Y-11900984D01*
X12963039Y-11900984D02*
X12943991Y-11891460D01*
X12943991Y-11891460D02*
X12934467Y-11881936D01*
X12934467Y-11881936D02*
X12924943Y-11862888D01*
X12924943Y-11862888D02*
X12915420Y-11824793D01*
X12915420Y-11824793D02*
X12915420Y-11777174D01*
X12915420Y-11777174D02*
X12924943Y-11739079D01*
X12924943Y-11739079D02*
X12934467Y-11720031D01*
X12934467Y-11720031D02*
X12943991Y-11710508D01*
X12943991Y-11710508D02*
X12963039Y-11700984D01*
X13115420Y-11900984D02*
X13115420Y-11767650D01*
X13115420Y-11786698D02*
X13124943Y-11777174D01*
X13124943Y-11777174D02*
X13143991Y-11767650D01*
X13143991Y-11767650D02*
X13172563Y-11767650D01*
X13172563Y-11767650D02*
X13191610Y-11777174D01*
X13191610Y-11777174D02*
X13201134Y-11796222D01*
X13201134Y-11796222D02*
X13201134Y-11900984D01*
X13201134Y-11796222D02*
X13210658Y-11777174D01*
X13210658Y-11777174D02*
X13229705Y-11767650D01*
X13229705Y-11767650D02*
X13258277Y-11767650D01*
X13258277Y-11767650D02*
X13277324Y-11777174D01*
X13277324Y-11777174D02*
X13286848Y-11796222D01*
X13286848Y-11796222D02*
X13286848Y-11900984D01*
X13382086Y-11900984D02*
X13382086Y-11767650D01*
X13382086Y-11786698D02*
X13391610Y-11777174D01*
X13391610Y-11777174D02*
X13410658Y-11767650D01*
X13410658Y-11767650D02*
X13439229Y-11767650D01*
X13439229Y-11767650D02*
X13458277Y-11777174D01*
X13458277Y-11777174D02*
X13467801Y-11796222D01*
X13467801Y-11796222D02*
X13467801Y-11900984D01*
X13467801Y-11796222D02*
X13477324Y-11777174D01*
X13477324Y-11777174D02*
X13496372Y-11767650D01*
X13496372Y-11767650D02*
X13524943Y-11767650D01*
X13524943Y-11767650D02*
X13543991Y-11777174D01*
X13543991Y-11777174D02*
X13553515Y-11796222D01*
X13553515Y-11796222D02*
X13553515Y-11900984D01*
X13943991Y-11691460D02*
X13772563Y-11948603D01*
X14201134Y-11700984D02*
X14220182Y-11700984D01*
X14220182Y-11700984D02*
X14239229Y-11710508D01*
X14239229Y-11710508D02*
X14248753Y-11720031D01*
X14248753Y-11720031D02*
X14258277Y-11739079D01*
X14258277Y-11739079D02*
X14267801Y-11777174D01*
X14267801Y-11777174D02*
X14267801Y-11824793D01*
X14267801Y-11824793D02*
X14258277Y-11862888D01*
X14258277Y-11862888D02*
X14248753Y-11881936D01*
X14248753Y-11881936D02*
X14239229Y-11891460D01*
X14239229Y-11891460D02*
X14220182Y-11900984D01*
X14220182Y-11900984D02*
X14201134Y-11900984D01*
X14201134Y-11900984D02*
X14182086Y-11891460D01*
X14182086Y-11891460D02*
X14172563Y-11881936D01*
X14172563Y-11881936D02*
X14163039Y-11862888D01*
X14163039Y-11862888D02*
X14153515Y-11824793D01*
X14153515Y-11824793D02*
X14153515Y-11777174D01*
X14153515Y-11777174D02*
X14163039Y-11739079D01*
X14163039Y-11739079D02*
X14172563Y-11720031D01*
X14172563Y-11720031D02*
X14182086Y-11710508D01*
X14182086Y-11710508D02*
X14201134Y-11700984D01*
X14353515Y-11881936D02*
X14363039Y-11891460D01*
X14363039Y-11891460D02*
X14353515Y-11900984D01*
X14353515Y-11900984D02*
X14343991Y-11891460D01*
X14343991Y-11891460D02*
X14353515Y-11881936D01*
X14353515Y-11881936D02*
X14353515Y-11900984D01*
X14486848Y-11700984D02*
X14505896Y-11700984D01*
X14505896Y-11700984D02*
X14524944Y-11710508D01*
X14524944Y-11710508D02*
X14534467Y-11720031D01*
X14534467Y-11720031D02*
X14543991Y-11739079D01*
X14543991Y-11739079D02*
X14553515Y-11777174D01*
X14553515Y-11777174D02*
X14553515Y-11824793D01*
X14553515Y-11824793D02*
X14543991Y-11862888D01*
X14543991Y-11862888D02*
X14534467Y-11881936D01*
X14534467Y-11881936D02*
X14524944Y-11891460D01*
X14524944Y-11891460D02*
X14505896Y-11900984D01*
X14505896Y-11900984D02*
X14486848Y-11900984D01*
X14486848Y-11900984D02*
X14467801Y-11891460D01*
X14467801Y-11891460D02*
X14458277Y-11881936D01*
X14458277Y-11881936D02*
X14448753Y-11862888D01*
X14448753Y-11862888D02*
X14439229Y-11824793D01*
X14439229Y-11824793D02*
X14439229Y-11777174D01*
X14439229Y-11777174D02*
X14448753Y-11739079D01*
X14448753Y-11739079D02*
X14458277Y-11720031D01*
X14458277Y-11720031D02*
X14467801Y-11710508D01*
X14467801Y-11710508D02*
X14486848Y-11700984D01*
X14620182Y-11700984D02*
X14743991Y-11700984D01*
X14743991Y-11700984D02*
X14677325Y-11777174D01*
X14677325Y-11777174D02*
X14705896Y-11777174D01*
X14705896Y-11777174D02*
X14724944Y-11786698D01*
X14724944Y-11786698D02*
X14734467Y-11796222D01*
X14734467Y-11796222D02*
X14743991Y-11815269D01*
X14743991Y-11815269D02*
X14743991Y-11862888D01*
X14743991Y-11862888D02*
X14734467Y-11881936D01*
X14734467Y-11881936D02*
X14724944Y-11891460D01*
X14724944Y-11891460D02*
X14705896Y-11900984D01*
X14705896Y-11900984D02*
X14648753Y-11900984D01*
X14648753Y-11900984D02*
X14629706Y-11891460D01*
X14629706Y-11891460D02*
X14620182Y-11881936D01*
X14924944Y-11700984D02*
X14829706Y-11700984D01*
X14829706Y-11700984D02*
X14820182Y-11796222D01*
X14820182Y-11796222D02*
X14829706Y-11786698D01*
X14829706Y-11786698D02*
X14848753Y-11777174D01*
X14848753Y-11777174D02*
X14896372Y-11777174D01*
X14896372Y-11777174D02*
X14915420Y-11786698D01*
X14915420Y-11786698D02*
X14924944Y-11796222D01*
X14924944Y-11796222D02*
X14934467Y-11815269D01*
X14934467Y-11815269D02*
X14934467Y-11862888D01*
X14934467Y-11862888D02*
X14924944Y-11881936D01*
X14924944Y-11881936D02*
X14915420Y-11891460D01*
X14915420Y-11891460D02*
X14896372Y-11900984D01*
X14896372Y-11900984D02*
X14848753Y-11900984D01*
X14848753Y-11900984D02*
X14829706Y-11891460D01*
X14829706Y-11891460D02*
X14820182Y-11881936D01*
X15105896Y-11767650D02*
X15105896Y-11900984D01*
X15058277Y-11691460D02*
X15010658Y-11834317D01*
X15010658Y-11834317D02*
X15134467Y-11834317D01*
X15201134Y-11700984D02*
X15201134Y-11739079D01*
X15277325Y-11700984D02*
X15277325Y-11739079D01*
X15572563Y-11977174D02*
X15563039Y-11967650D01*
X15563039Y-11967650D02*
X15543991Y-11939079D01*
X15543991Y-11939079D02*
X15534468Y-11920031D01*
X15534468Y-11920031D02*
X15524944Y-11891460D01*
X15524944Y-11891460D02*
X15515420Y-11843841D01*
X15515420Y-11843841D02*
X15515420Y-11805746D01*
X15515420Y-11805746D02*
X15524944Y-11758127D01*
X15524944Y-11758127D02*
X15534468Y-11729555D01*
X15534468Y-11729555D02*
X15543991Y-11710508D01*
X15543991Y-11710508D02*
X15563039Y-11681936D01*
X15563039Y-11681936D02*
X15572563Y-11672412D01*
X15677325Y-11786698D02*
X15658277Y-11777174D01*
X15658277Y-11777174D02*
X15648753Y-11767650D01*
X15648753Y-11767650D02*
X15639229Y-11748603D01*
X15639229Y-11748603D02*
X15639229Y-11739079D01*
X15639229Y-11739079D02*
X15648753Y-11720031D01*
X15648753Y-11720031D02*
X15658277Y-11710508D01*
X15658277Y-11710508D02*
X15677325Y-11700984D01*
X15677325Y-11700984D02*
X15715420Y-11700984D01*
X15715420Y-11700984D02*
X15734468Y-11710508D01*
X15734468Y-11710508D02*
X15743991Y-11720031D01*
X15743991Y-11720031D02*
X15753515Y-11739079D01*
X15753515Y-11739079D02*
X15753515Y-11748603D01*
X15753515Y-11748603D02*
X15743991Y-11767650D01*
X15743991Y-11767650D02*
X15734468Y-11777174D01*
X15734468Y-11777174D02*
X15715420Y-11786698D01*
X15715420Y-11786698D02*
X15677325Y-11786698D01*
X15677325Y-11786698D02*
X15658277Y-11796222D01*
X15658277Y-11796222D02*
X15648753Y-11805746D01*
X15648753Y-11805746D02*
X15639229Y-11824793D01*
X15639229Y-11824793D02*
X15639229Y-11862888D01*
X15639229Y-11862888D02*
X15648753Y-11881936D01*
X15648753Y-11881936D02*
X15658277Y-11891460D01*
X15658277Y-11891460D02*
X15677325Y-11900984D01*
X15677325Y-11900984D02*
X15715420Y-11900984D01*
X15715420Y-11900984D02*
X15734468Y-11891460D01*
X15734468Y-11891460D02*
X15743991Y-11881936D01*
X15743991Y-11881936D02*
X15753515Y-11862888D01*
X15753515Y-11862888D02*
X15753515Y-11824793D01*
X15753515Y-11824793D02*
X15743991Y-11805746D01*
X15743991Y-11805746D02*
X15734468Y-11796222D01*
X15734468Y-11796222D02*
X15715420Y-11786698D01*
X15991610Y-11900984D02*
X15991610Y-11700984D01*
X16077325Y-11900984D02*
X16077325Y-11796222D01*
X16077325Y-11796222D02*
X16067801Y-11777174D01*
X16067801Y-11777174D02*
X16048753Y-11767650D01*
X16048753Y-11767650D02*
X16020182Y-11767650D01*
X16020182Y-11767650D02*
X16001134Y-11777174D01*
X16001134Y-11777174D02*
X15991610Y-11786698D01*
X16201134Y-11900984D02*
X16182087Y-11891460D01*
X16182087Y-11891460D02*
X16172563Y-11881936D01*
X16172563Y-11881936D02*
X16163039Y-11862888D01*
X16163039Y-11862888D02*
X16163039Y-11805746D01*
X16163039Y-11805746D02*
X16172563Y-11786698D01*
X16172563Y-11786698D02*
X16182087Y-11777174D01*
X16182087Y-11777174D02*
X16201134Y-11767650D01*
X16201134Y-11767650D02*
X16229706Y-11767650D01*
X16229706Y-11767650D02*
X16248753Y-11777174D01*
X16248753Y-11777174D02*
X16258277Y-11786698D01*
X16258277Y-11786698D02*
X16267801Y-11805746D01*
X16267801Y-11805746D02*
X16267801Y-11862888D01*
X16267801Y-11862888D02*
X16258277Y-11881936D01*
X16258277Y-11881936D02*
X16248753Y-11891460D01*
X16248753Y-11891460D02*
X16229706Y-11900984D01*
X16229706Y-11900984D02*
X16201134Y-11900984D01*
X16382087Y-11900984D02*
X16363039Y-11891460D01*
X16363039Y-11891460D02*
X16353515Y-11872412D01*
X16353515Y-11872412D02*
X16353515Y-11700984D01*
X16534468Y-11891460D02*
X16515420Y-11900984D01*
X16515420Y-11900984D02*
X16477325Y-11900984D01*
X16477325Y-11900984D02*
X16458277Y-11891460D01*
X16458277Y-11891460D02*
X16448753Y-11872412D01*
X16448753Y-11872412D02*
X16448753Y-11796222D01*
X16448753Y-11796222D02*
X16458277Y-11777174D01*
X16458277Y-11777174D02*
X16477325Y-11767650D01*
X16477325Y-11767650D02*
X16515420Y-11767650D01*
X16515420Y-11767650D02*
X16534468Y-11777174D01*
X16534468Y-11777174D02*
X16543991Y-11796222D01*
X16543991Y-11796222D02*
X16543991Y-11815269D01*
X16543991Y-11815269D02*
X16448753Y-11834317D01*
X16620182Y-11891460D02*
X16639230Y-11900984D01*
X16639230Y-11900984D02*
X16677325Y-11900984D01*
X16677325Y-11900984D02*
X16696372Y-11891460D01*
X16696372Y-11891460D02*
X16705896Y-11872412D01*
X16705896Y-11872412D02*
X16705896Y-11862888D01*
X16705896Y-11862888D02*
X16696372Y-11843841D01*
X16696372Y-11843841D02*
X16677325Y-11834317D01*
X16677325Y-11834317D02*
X16648753Y-11834317D01*
X16648753Y-11834317D02*
X16629706Y-11824793D01*
X16629706Y-11824793D02*
X16620182Y-11805746D01*
X16620182Y-11805746D02*
X16620182Y-11796222D01*
X16620182Y-11796222D02*
X16629706Y-11777174D01*
X16629706Y-11777174D02*
X16648753Y-11767650D01*
X16648753Y-11767650D02*
X16677325Y-11767650D01*
X16677325Y-11767650D02*
X16696372Y-11777174D01*
X16772563Y-11977174D02*
X16782087Y-11967650D01*
X16782087Y-11967650D02*
X16801134Y-11939079D01*
X16801134Y-11939079D02*
X16810658Y-11920031D01*
X16810658Y-11920031D02*
X16820182Y-11891460D01*
X16820182Y-11891460D02*
X16829706Y-11843841D01*
X16829706Y-11843841D02*
X16829706Y-11805746D01*
X16829706Y-11805746D02*
X16820182Y-11758127D01*
X16820182Y-11758127D02*
X16810658Y-11729555D01*
X16810658Y-11729555D02*
X16801134Y-11710508D01*
X16801134Y-11710508D02*
X16782087Y-11681936D01*
X16782087Y-11681936D02*
X16772563Y-11672412D01*
D12*
X11947500Y-12123500D02*
X11997500Y-12073500D01*
X11947500Y-12023500D01*
X11897500Y-12073500D01*
X11947500Y-12123500D01*
D11*
X12363039Y-12164984D02*
X12248753Y-12164984D01*
X12305896Y-12164984D02*
X12305896Y-11964984D01*
X12305896Y-11964984D02*
X12286848Y-11993555D01*
X12286848Y-11993555D02*
X12267801Y-12012603D01*
X12267801Y-12012603D02*
X12248753Y-12022127D01*
X12448753Y-12145936D02*
X12458277Y-12155460D01*
X12458277Y-12155460D02*
X12448753Y-12164984D01*
X12448753Y-12164984D02*
X12439229Y-12155460D01*
X12439229Y-12155460D02*
X12448753Y-12145936D01*
X12448753Y-12145936D02*
X12448753Y-12164984D01*
X12582086Y-11964984D02*
X12601134Y-11964984D01*
X12601134Y-11964984D02*
X12620182Y-11974508D01*
X12620182Y-11974508D02*
X12629705Y-11984031D01*
X12629705Y-11984031D02*
X12639229Y-12003079D01*
X12639229Y-12003079D02*
X12648753Y-12041174D01*
X12648753Y-12041174D02*
X12648753Y-12088793D01*
X12648753Y-12088793D02*
X12639229Y-12126888D01*
X12639229Y-12126888D02*
X12629705Y-12145936D01*
X12629705Y-12145936D02*
X12620182Y-12155460D01*
X12620182Y-12155460D02*
X12601134Y-12164984D01*
X12601134Y-12164984D02*
X12582086Y-12164984D01*
X12582086Y-12164984D02*
X12563039Y-12155460D01*
X12563039Y-12155460D02*
X12553515Y-12145936D01*
X12553515Y-12145936D02*
X12543991Y-12126888D01*
X12543991Y-12126888D02*
X12534467Y-12088793D01*
X12534467Y-12088793D02*
X12534467Y-12041174D01*
X12534467Y-12041174D02*
X12543991Y-12003079D01*
X12543991Y-12003079D02*
X12553515Y-11984031D01*
X12553515Y-11984031D02*
X12563039Y-11974508D01*
X12563039Y-11974508D02*
X12582086Y-11964984D01*
X12772562Y-11964984D02*
X12791610Y-11964984D01*
X12791610Y-11964984D02*
X12810658Y-11974508D01*
X12810658Y-11974508D02*
X12820182Y-11984031D01*
X12820182Y-11984031D02*
X12829705Y-12003079D01*
X12829705Y-12003079D02*
X12839229Y-12041174D01*
X12839229Y-12041174D02*
X12839229Y-12088793D01*
X12839229Y-12088793D02*
X12829705Y-12126888D01*
X12829705Y-12126888D02*
X12820182Y-12145936D01*
X12820182Y-12145936D02*
X12810658Y-12155460D01*
X12810658Y-12155460D02*
X12791610Y-12164984D01*
X12791610Y-12164984D02*
X12772562Y-12164984D01*
X12772562Y-12164984D02*
X12753515Y-12155460D01*
X12753515Y-12155460D02*
X12743991Y-12145936D01*
X12743991Y-12145936D02*
X12734467Y-12126888D01*
X12734467Y-12126888D02*
X12724943Y-12088793D01*
X12724943Y-12088793D02*
X12724943Y-12041174D01*
X12724943Y-12041174D02*
X12734467Y-12003079D01*
X12734467Y-12003079D02*
X12743991Y-11984031D01*
X12743991Y-11984031D02*
X12753515Y-11974508D01*
X12753515Y-11974508D02*
X12772562Y-11964984D01*
X12963039Y-11964984D02*
X12982086Y-11964984D01*
X12982086Y-11964984D02*
X13001134Y-11974508D01*
X13001134Y-11974508D02*
X13010658Y-11984031D01*
X13010658Y-11984031D02*
X13020182Y-12003079D01*
X13020182Y-12003079D02*
X13029705Y-12041174D01*
X13029705Y-12041174D02*
X13029705Y-12088793D01*
X13029705Y-12088793D02*
X13020182Y-12126888D01*
X13020182Y-12126888D02*
X13010658Y-12145936D01*
X13010658Y-12145936D02*
X13001134Y-12155460D01*
X13001134Y-12155460D02*
X12982086Y-12164984D01*
X12982086Y-12164984D02*
X12963039Y-12164984D01*
X12963039Y-12164984D02*
X12943991Y-12155460D01*
X12943991Y-12155460D02*
X12934467Y-12145936D01*
X12934467Y-12145936D02*
X12924943Y-12126888D01*
X12924943Y-12126888D02*
X12915420Y-12088793D01*
X12915420Y-12088793D02*
X12915420Y-12041174D01*
X12915420Y-12041174D02*
X12924943Y-12003079D01*
X12924943Y-12003079D02*
X12934467Y-11984031D01*
X12934467Y-11984031D02*
X12943991Y-11974508D01*
X12943991Y-11974508D02*
X12963039Y-11964984D01*
X13115420Y-12164984D02*
X13115420Y-12031650D01*
X13115420Y-12050698D02*
X13124943Y-12041174D01*
X13124943Y-12041174D02*
X13143991Y-12031650D01*
X13143991Y-12031650D02*
X13172563Y-12031650D01*
X13172563Y-12031650D02*
X13191610Y-12041174D01*
X13191610Y-12041174D02*
X13201134Y-12060222D01*
X13201134Y-12060222D02*
X13201134Y-12164984D01*
X13201134Y-12060222D02*
X13210658Y-12041174D01*
X13210658Y-12041174D02*
X13229705Y-12031650D01*
X13229705Y-12031650D02*
X13258277Y-12031650D01*
X13258277Y-12031650D02*
X13277324Y-12041174D01*
X13277324Y-12041174D02*
X13286848Y-12060222D01*
X13286848Y-12060222D02*
X13286848Y-12164984D01*
X13382086Y-12164984D02*
X13382086Y-12031650D01*
X13382086Y-12050698D02*
X13391610Y-12041174D01*
X13391610Y-12041174D02*
X13410658Y-12031650D01*
X13410658Y-12031650D02*
X13439229Y-12031650D01*
X13439229Y-12031650D02*
X13458277Y-12041174D01*
X13458277Y-12041174D02*
X13467801Y-12060222D01*
X13467801Y-12060222D02*
X13467801Y-12164984D01*
X13467801Y-12060222D02*
X13477324Y-12041174D01*
X13477324Y-12041174D02*
X13496372Y-12031650D01*
X13496372Y-12031650D02*
X13524943Y-12031650D01*
X13524943Y-12031650D02*
X13543991Y-12041174D01*
X13543991Y-12041174D02*
X13553515Y-12060222D01*
X13553515Y-12060222D02*
X13553515Y-12164984D01*
X13943991Y-11955460D02*
X13772563Y-12212603D01*
X14201134Y-11964984D02*
X14220182Y-11964984D01*
X14220182Y-11964984D02*
X14239229Y-11974508D01*
X14239229Y-11974508D02*
X14248753Y-11984031D01*
X14248753Y-11984031D02*
X14258277Y-12003079D01*
X14258277Y-12003079D02*
X14267801Y-12041174D01*
X14267801Y-12041174D02*
X14267801Y-12088793D01*
X14267801Y-12088793D02*
X14258277Y-12126888D01*
X14258277Y-12126888D02*
X14248753Y-12145936D01*
X14248753Y-12145936D02*
X14239229Y-12155460D01*
X14239229Y-12155460D02*
X14220182Y-12164984D01*
X14220182Y-12164984D02*
X14201134Y-12164984D01*
X14201134Y-12164984D02*
X14182086Y-12155460D01*
X14182086Y-12155460D02*
X14172563Y-12145936D01*
X14172563Y-12145936D02*
X14163039Y-12126888D01*
X14163039Y-12126888D02*
X14153515Y-12088793D01*
X14153515Y-12088793D02*
X14153515Y-12041174D01*
X14153515Y-12041174D02*
X14163039Y-12003079D01*
X14163039Y-12003079D02*
X14172563Y-11984031D01*
X14172563Y-11984031D02*
X14182086Y-11974508D01*
X14182086Y-11974508D02*
X14201134Y-11964984D01*
X14353515Y-12145936D02*
X14363039Y-12155460D01*
X14363039Y-12155460D02*
X14353515Y-12164984D01*
X14353515Y-12164984D02*
X14343991Y-12155460D01*
X14343991Y-12155460D02*
X14353515Y-12145936D01*
X14353515Y-12145936D02*
X14353515Y-12164984D01*
X14486848Y-11964984D02*
X14505896Y-11964984D01*
X14505896Y-11964984D02*
X14524944Y-11974508D01*
X14524944Y-11974508D02*
X14534467Y-11984031D01*
X14534467Y-11984031D02*
X14543991Y-12003079D01*
X14543991Y-12003079D02*
X14553515Y-12041174D01*
X14553515Y-12041174D02*
X14553515Y-12088793D01*
X14553515Y-12088793D02*
X14543991Y-12126888D01*
X14543991Y-12126888D02*
X14534467Y-12145936D01*
X14534467Y-12145936D02*
X14524944Y-12155460D01*
X14524944Y-12155460D02*
X14505896Y-12164984D01*
X14505896Y-12164984D02*
X14486848Y-12164984D01*
X14486848Y-12164984D02*
X14467801Y-12155460D01*
X14467801Y-12155460D02*
X14458277Y-12145936D01*
X14458277Y-12145936D02*
X14448753Y-12126888D01*
X14448753Y-12126888D02*
X14439229Y-12088793D01*
X14439229Y-12088793D02*
X14439229Y-12041174D01*
X14439229Y-12041174D02*
X14448753Y-12003079D01*
X14448753Y-12003079D02*
X14458277Y-11984031D01*
X14458277Y-11984031D02*
X14467801Y-11974508D01*
X14467801Y-11974508D02*
X14486848Y-11964984D01*
X14620182Y-11964984D02*
X14743991Y-11964984D01*
X14743991Y-11964984D02*
X14677325Y-12041174D01*
X14677325Y-12041174D02*
X14705896Y-12041174D01*
X14705896Y-12041174D02*
X14724944Y-12050698D01*
X14724944Y-12050698D02*
X14734467Y-12060222D01*
X14734467Y-12060222D02*
X14743991Y-12079269D01*
X14743991Y-12079269D02*
X14743991Y-12126888D01*
X14743991Y-12126888D02*
X14734467Y-12145936D01*
X14734467Y-12145936D02*
X14724944Y-12155460D01*
X14724944Y-12155460D02*
X14705896Y-12164984D01*
X14705896Y-12164984D02*
X14648753Y-12164984D01*
X14648753Y-12164984D02*
X14629706Y-12155460D01*
X14629706Y-12155460D02*
X14620182Y-12145936D01*
X14839229Y-12164984D02*
X14877325Y-12164984D01*
X14877325Y-12164984D02*
X14896372Y-12155460D01*
X14896372Y-12155460D02*
X14905896Y-12145936D01*
X14905896Y-12145936D02*
X14924944Y-12117365D01*
X14924944Y-12117365D02*
X14934467Y-12079269D01*
X14934467Y-12079269D02*
X14934467Y-12003079D01*
X14934467Y-12003079D02*
X14924944Y-11984031D01*
X14924944Y-11984031D02*
X14915420Y-11974508D01*
X14915420Y-11974508D02*
X14896372Y-11964984D01*
X14896372Y-11964984D02*
X14858277Y-11964984D01*
X14858277Y-11964984D02*
X14839229Y-11974508D01*
X14839229Y-11974508D02*
X14829706Y-11984031D01*
X14829706Y-11984031D02*
X14820182Y-12003079D01*
X14820182Y-12003079D02*
X14820182Y-12050698D01*
X14820182Y-12050698D02*
X14829706Y-12069746D01*
X14829706Y-12069746D02*
X14839229Y-12079269D01*
X14839229Y-12079269D02*
X14858277Y-12088793D01*
X14858277Y-12088793D02*
X14896372Y-12088793D01*
X14896372Y-12088793D02*
X14915420Y-12079269D01*
X14915420Y-12079269D02*
X14924944Y-12069746D01*
X14924944Y-12069746D02*
X14934467Y-12050698D01*
X15105896Y-12031650D02*
X15105896Y-12164984D01*
X15058277Y-11955460D02*
X15010658Y-12098317D01*
X15010658Y-12098317D02*
X15134467Y-12098317D01*
X15201134Y-11964984D02*
X15201134Y-12003079D01*
X15277325Y-11964984D02*
X15277325Y-12003079D01*
X15572563Y-12241174D02*
X15563039Y-12231650D01*
X15563039Y-12231650D02*
X15543991Y-12203079D01*
X15543991Y-12203079D02*
X15534468Y-12184031D01*
X15534468Y-12184031D02*
X15524944Y-12155460D01*
X15524944Y-12155460D02*
X15515420Y-12107841D01*
X15515420Y-12107841D02*
X15515420Y-12069746D01*
X15515420Y-12069746D02*
X15524944Y-12022127D01*
X15524944Y-12022127D02*
X15534468Y-11993555D01*
X15534468Y-11993555D02*
X15543991Y-11974508D01*
X15543991Y-11974508D02*
X15563039Y-11945936D01*
X15563039Y-11945936D02*
X15572563Y-11936412D01*
X15629706Y-11964984D02*
X15753515Y-11964984D01*
X15753515Y-11964984D02*
X15686848Y-12041174D01*
X15686848Y-12041174D02*
X15715420Y-12041174D01*
X15715420Y-12041174D02*
X15734468Y-12050698D01*
X15734468Y-12050698D02*
X15743991Y-12060222D01*
X15743991Y-12060222D02*
X15753515Y-12079269D01*
X15753515Y-12079269D02*
X15753515Y-12126888D01*
X15753515Y-12126888D02*
X15743991Y-12145936D01*
X15743991Y-12145936D02*
X15734468Y-12155460D01*
X15734468Y-12155460D02*
X15715420Y-12164984D01*
X15715420Y-12164984D02*
X15658277Y-12164984D01*
X15658277Y-12164984D02*
X15639229Y-12155460D01*
X15639229Y-12155460D02*
X15629706Y-12145936D01*
X15991610Y-12164984D02*
X15991610Y-11964984D01*
X16077325Y-12164984D02*
X16077325Y-12060222D01*
X16077325Y-12060222D02*
X16067801Y-12041174D01*
X16067801Y-12041174D02*
X16048753Y-12031650D01*
X16048753Y-12031650D02*
X16020182Y-12031650D01*
X16020182Y-12031650D02*
X16001134Y-12041174D01*
X16001134Y-12041174D02*
X15991610Y-12050698D01*
X16201134Y-12164984D02*
X16182087Y-12155460D01*
X16182087Y-12155460D02*
X16172563Y-12145936D01*
X16172563Y-12145936D02*
X16163039Y-12126888D01*
X16163039Y-12126888D02*
X16163039Y-12069746D01*
X16163039Y-12069746D02*
X16172563Y-12050698D01*
X16172563Y-12050698D02*
X16182087Y-12041174D01*
X16182087Y-12041174D02*
X16201134Y-12031650D01*
X16201134Y-12031650D02*
X16229706Y-12031650D01*
X16229706Y-12031650D02*
X16248753Y-12041174D01*
X16248753Y-12041174D02*
X16258277Y-12050698D01*
X16258277Y-12050698D02*
X16267801Y-12069746D01*
X16267801Y-12069746D02*
X16267801Y-12126888D01*
X16267801Y-12126888D02*
X16258277Y-12145936D01*
X16258277Y-12145936D02*
X16248753Y-12155460D01*
X16248753Y-12155460D02*
X16229706Y-12164984D01*
X16229706Y-12164984D02*
X16201134Y-12164984D01*
X16382087Y-12164984D02*
X16363039Y-12155460D01*
X16363039Y-12155460D02*
X16353515Y-12136412D01*
X16353515Y-12136412D02*
X16353515Y-11964984D01*
X16534468Y-12155460D02*
X16515420Y-12164984D01*
X16515420Y-12164984D02*
X16477325Y-12164984D01*
X16477325Y-12164984D02*
X16458277Y-12155460D01*
X16458277Y-12155460D02*
X16448753Y-12136412D01*
X16448753Y-12136412D02*
X16448753Y-12060222D01*
X16448753Y-12060222D02*
X16458277Y-12041174D01*
X16458277Y-12041174D02*
X16477325Y-12031650D01*
X16477325Y-12031650D02*
X16515420Y-12031650D01*
X16515420Y-12031650D02*
X16534468Y-12041174D01*
X16534468Y-12041174D02*
X16543991Y-12060222D01*
X16543991Y-12060222D02*
X16543991Y-12079269D01*
X16543991Y-12079269D02*
X16448753Y-12098317D01*
X16620182Y-12155460D02*
X16639230Y-12164984D01*
X16639230Y-12164984D02*
X16677325Y-12164984D01*
X16677325Y-12164984D02*
X16696372Y-12155460D01*
X16696372Y-12155460D02*
X16705896Y-12136412D01*
X16705896Y-12136412D02*
X16705896Y-12126888D01*
X16705896Y-12126888D02*
X16696372Y-12107841D01*
X16696372Y-12107841D02*
X16677325Y-12098317D01*
X16677325Y-12098317D02*
X16648753Y-12098317D01*
X16648753Y-12098317D02*
X16629706Y-12088793D01*
X16629706Y-12088793D02*
X16620182Y-12069746D01*
X16620182Y-12069746D02*
X16620182Y-12060222D01*
X16620182Y-12060222D02*
X16629706Y-12041174D01*
X16629706Y-12041174D02*
X16648753Y-12031650D01*
X16648753Y-12031650D02*
X16677325Y-12031650D01*
X16677325Y-12031650D02*
X16696372Y-12041174D01*
X16772563Y-12241174D02*
X16782087Y-12231650D01*
X16782087Y-12231650D02*
X16801134Y-12203079D01*
X16801134Y-12203079D02*
X16810658Y-12184031D01*
X16810658Y-12184031D02*
X16820182Y-12155460D01*
X16820182Y-12155460D02*
X16829706Y-12107841D01*
X16829706Y-12107841D02*
X16829706Y-12069746D01*
X16829706Y-12069746D02*
X16820182Y-12022127D01*
X16820182Y-12022127D02*
X16810658Y-11993555D01*
X16810658Y-11993555D02*
X16801134Y-11974508D01*
X16801134Y-11974508D02*
X16782087Y-11945936D01*
X16782087Y-11945936D02*
X16772563Y-11936412D01*
M02*
