%TF.GenerationSoftware,KiCad,Pcbnew,8.0.5-8.0.5-0~ubuntu20.04.1*%
%TF.CreationDate,2024-10-09T10:57:02+02:00*%
%TF.ProjectId,LIN_eval,4c494e5f-6576-4616-9c2e-6b696361645f,rev?*%
%TF.SameCoordinates,Original*%
%TF.FileFunction,Copper,L2,Bot*%
%TF.FilePolarity,Positive*%
%FSLAX46Y46*%
G04 Gerber Fmt 4.6, Leading zero omitted, Abs format (unit mm)*
G04 Created by KiCad (PCBNEW 8.0.5-8.0.5-0~ubuntu20.04.1) date 2024-10-09 10:57:02*
%MOMM*%
%LPD*%
G01*
G04 APERTURE LIST*
%TA.AperFunction,ComponentPad*%
%ADD10R,1.050000X1.500000*%
%TD*%
%TA.AperFunction,ComponentPad*%
%ADD11O,1.050000X1.500000*%
%TD*%
%TA.AperFunction,ComponentPad*%
%ADD12C,1.400000*%
%TD*%
%TA.AperFunction,ComponentPad*%
%ADD13C,1.600000*%
%TD*%
%TA.AperFunction,ComponentPad*%
%ADD14R,1.700000X1.700000*%
%TD*%
%TA.AperFunction,ComponentPad*%
%ADD15O,1.700000X1.700000*%
%TD*%
%TA.AperFunction,ComponentPad*%
%ADD16R,1.800000X1.800000*%
%TD*%
%TA.AperFunction,ComponentPad*%
%ADD17C,1.800000*%
%TD*%
%TA.AperFunction,ViaPad*%
%ADD18C,0.600000*%
%TD*%
%TA.AperFunction,Conductor*%
%ADD19C,0.200000*%
%TD*%
G04 APERTURE END LIST*
D10*
%TO.P,U4,1,GND*%
%TO.N,GND*%
X150770000Y-99360000D03*
D11*
%TO.P,U4,2,DQ*%
%TO.N,Net-(U3-PA9{slash}NC)*%
X149500000Y-99360000D03*
%TO.P,U4,3,V_{DD}*%
%TO.N,+3V3*%
X148230000Y-99360000D03*
%TD*%
D12*
%TO.P,JP4,1,A*%
%TO.N,GND*%
X160000000Y-97000000D03*
%TO.P,JP4,2,B*%
%TO.N,Net-(JP4-B)*%
X160000000Y-94460000D03*
%TD*%
%TO.P,JP3,1,A*%
%TO.N,GND*%
X157500000Y-97000000D03*
%TO.P,JP3,2,B*%
%TO.N,Net-(JP3-B)*%
X157500000Y-94460000D03*
%TD*%
%TO.P,JP1,1,A*%
%TO.N,VBAT*%
X125960000Y-95500000D03*
%TO.P,JP1,2,B*%
%TO.N,Net-(D1-A)*%
X128500000Y-95500000D03*
%TD*%
D13*
%TO.P,R9,1*%
%TO.N,Net-(U3-PA0)*%
X143000000Y-101000000D03*
%TO.P,R9,2*%
%TO.N,GND*%
X140000000Y-101000000D03*
%TD*%
D12*
%TO.P,JP2,1,A*%
%TO.N,GND*%
X155000000Y-97040000D03*
%TO.P,JP2,2,B*%
%TO.N,Net-(JP2-B)*%
X155000000Y-94500000D03*
%TD*%
D14*
%TO.P,J2,1,Pin_1*%
%TO.N,Net-(D4-A)*%
X122500000Y-88420000D03*
D15*
%TO.P,J2,2,Pin_2*%
%TO.N,/LIN*%
X122500000Y-90960000D03*
%TO.P,J2,3,Pin_3*%
%TO.N,GND*%
X122500000Y-93500000D03*
%TD*%
D16*
%TO.P,D7,1,K*%
%TO.N,Net-(D7-K)*%
X137141666Y-76000000D03*
D17*
%TO.P,D7,2,A*%
%TO.N,Net-(D7-A)*%
X137141666Y-78540000D03*
%TD*%
D16*
%TO.P,D11,1,K*%
%TO.N,Net-(D11-K)*%
X154475000Y-76000000D03*
D17*
%TO.P,D11,2,A*%
%TO.N,Net-(D11-A)*%
X154475000Y-78540000D03*
%TD*%
D16*
%TO.P,D9,1,K*%
%TO.N,Net-(D10-K)*%
X145808332Y-76000000D03*
D17*
%TO.P,D9,2,A*%
%TO.N,Net-(D10-A)*%
X145808332Y-78540000D03*
%TD*%
D16*
%TO.P,D2,1,K*%
%TO.N,Net-(D2-K)*%
X128475000Y-76000000D03*
D17*
%TO.P,D2,2,A*%
%TO.N,Net-(D2-A)*%
X128475000Y-78540000D03*
%TD*%
D18*
%TO.N,GND*%
X145250000Y-85000000D03*
X143250000Y-86000000D03*
X143750000Y-77750000D03*
X122750000Y-97000000D03*
X156250000Y-99000000D03*
X122500000Y-82500000D03*
X126250000Y-78250000D03*
X150750000Y-85000000D03*
X121500000Y-85000000D03*
X129500000Y-99250000D03*
X151500000Y-79500000D03*
X132000000Y-94500000D03*
X146000000Y-93500000D03*
X159750000Y-82000000D03*
X131500000Y-78750000D03*
X142250000Y-97750000D03*
X134250000Y-79000000D03*
X153750000Y-99000000D03*
X154750000Y-101500000D03*
X131500000Y-87000000D03*
X156750000Y-80000000D03*
%TO.N,/LIN*%
X127875000Y-99500000D03*
%TO.N,/RST*%
X152250000Y-87265000D03*
X154250000Y-85500000D03*
%TO.N,/RXD*%
X161750000Y-85000000D03*
X145623742Y-97822031D03*
X134799999Y-100326993D03*
%TO.N,/LED_0*%
X153750000Y-90150000D03*
X130000000Y-85750000D03*
%TO.N,/LIN_SLEEP*%
X146646029Y-97648273D03*
X132418270Y-101234281D03*
%TO.N,/TXD*%
X132000000Y-99500000D03*
X158000000Y-85250000D03*
X145389756Y-97057012D03*
%TO.N,Net-(JP4-B)*%
X147478115Y-88432526D03*
%TO.N,Net-(JP2-B)*%
X145799265Y-88450735D03*
%TO.N,/LED_2*%
X147000000Y-84750000D03*
X150625000Y-88375000D03*
%TO.N,Net-(JP3-B)*%
X146598530Y-88401470D03*
%TO.N,/LED_B*%
X150025000Y-93500000D03*
X135075000Y-89500000D03*
%TO.N,/LED_G*%
X149000000Y-92500000D03*
X139000000Y-87000000D03*
%TO.N,/LED_R*%
X148000000Y-93500000D03*
X138000000Y-90000000D03*
%TO.N,/LED_3*%
X148750000Y-85000000D03*
X151250000Y-89500000D03*
%TD*%
D19*
%TO.N,/LIN*%
X123650000Y-95275000D02*
X127875000Y-99500000D01*
X123650000Y-92110000D02*
X123650000Y-95275000D01*
X122500000Y-90960000D02*
X123650000Y-92110000D01*
%TO.N,/RST*%
X152485000Y-87265000D02*
X154250000Y-85500000D01*
X152250000Y-87265000D02*
X152485000Y-87265000D01*
%TO.N,/RXD*%
X134997245Y-100326993D02*
X134799999Y-100326993D01*
X160539900Y-95900000D02*
X161750000Y-94689900D01*
X161750000Y-94689900D02*
X161750000Y-85000000D01*
X144345773Y-99100000D02*
X136224238Y-99100000D01*
X145623742Y-97822031D02*
X147545773Y-95900000D01*
X134997245Y-100326993D02*
X136224238Y-99100000D01*
X147545773Y-95900000D02*
X160539900Y-95900000D01*
X145623742Y-97822031D02*
X144345773Y-99100000D01*
%TO.N,/LED_0*%
X140000000Y-87100000D02*
X147100000Y-87100000D01*
X138598529Y-85750000D02*
X130000000Y-85750000D01*
X140000000Y-87100000D02*
X139948529Y-87100000D01*
X147100000Y-87100000D02*
X150150000Y-90150000D01*
X138598529Y-85750000D02*
X139948529Y-87100000D01*
X153750000Y-90150000D02*
X150150000Y-90150000D01*
%TO.N,/LIN_SLEEP*%
X139000000Y-99900000D02*
X137973007Y-100926993D01*
X137973007Y-100926993D02*
X132725558Y-100926993D01*
X146646029Y-97648273D02*
X144394302Y-99900000D01*
X132725558Y-100926993D02*
X132418270Y-101234281D01*
X136272767Y-99900000D02*
X139000000Y-99900000D01*
X139000000Y-99900000D02*
X144394302Y-99900000D01*
X136272767Y-99900000D02*
X135172767Y-101000000D01*
%TO.N,/TXD*%
X143946768Y-98500000D02*
X145389756Y-97057012D01*
X145389756Y-97057012D02*
X146946768Y-95500000D01*
X146946768Y-95500000D02*
X160374214Y-95500000D01*
X132000000Y-99500000D02*
X133000000Y-98500000D01*
X133000000Y-98500000D02*
X143946768Y-98500000D01*
X161000000Y-88250000D02*
X158000000Y-85250000D01*
X160374214Y-95500000D02*
X161000000Y-94874214D01*
X161000000Y-94874214D02*
X161000000Y-88250000D01*
%TO.N,Net-(JP4-B)*%
X149804023Y-90750000D02*
X156290000Y-90750000D01*
X147486550Y-88432526D02*
X147478115Y-88432526D01*
X147486550Y-88432526D02*
X149804023Y-90750000D01*
X160000000Y-94460000D02*
X156290000Y-90750000D01*
%TO.N,Net-(JP2-B)*%
X149250000Y-91569769D02*
X152069769Y-91569769D01*
X148918299Y-91569769D02*
X145799265Y-88450735D01*
X148918299Y-91569769D02*
X149000000Y-91569769D01*
X152069769Y-91569769D02*
X155000000Y-94500000D01*
X149250000Y-91569769D02*
X148918299Y-91569769D01*
X149000000Y-91569769D02*
X149250000Y-91569769D01*
%TO.N,/LED_2*%
X147000000Y-84750000D02*
X150625000Y-88375000D01*
%TO.N,Net-(JP3-B)*%
X157500000Y-94460000D02*
X154209769Y-91169769D01*
X149366829Y-91169769D02*
X154209769Y-91169769D01*
X146598530Y-88401470D02*
X149366829Y-91169769D01*
%TO.N,/LED_B*%
X144748529Y-89400000D02*
X135175000Y-89400000D01*
X135175000Y-89400000D02*
X135075000Y-89500000D01*
X150025000Y-93500000D02*
X148848529Y-93500000D01*
X148848529Y-93500000D02*
X144748529Y-89400000D01*
%TO.N,/LED_G*%
X144000000Y-87500000D02*
X149000000Y-92500000D01*
X139500000Y-87500000D02*
X144000000Y-87500000D01*
X139000000Y-87000000D02*
X139500000Y-87500000D01*
%TO.N,/LED_R*%
X148000000Y-93500000D02*
X144500000Y-90000000D01*
X144500000Y-90000000D02*
X138000000Y-90000000D01*
%TO.N,/LED_3*%
X151250000Y-87500000D02*
X148750000Y-85000000D01*
X151250000Y-89500000D02*
X151250000Y-87500000D01*
%TD*%
%TA.AperFunction,Conductor*%
%TO.N,GND*%
G36*
X162442539Y-74270185D02*
G01*
X162488294Y-74322989D01*
X162499500Y-74374500D01*
X162499500Y-84318060D01*
X162479815Y-84385099D01*
X162427011Y-84430854D01*
X162357853Y-84440798D01*
X162294297Y-84411773D01*
X162287819Y-84405741D01*
X162252262Y-84370184D01*
X162099523Y-84274211D01*
X161929254Y-84214631D01*
X161929249Y-84214630D01*
X161750004Y-84194435D01*
X161749996Y-84194435D01*
X161570750Y-84214630D01*
X161570745Y-84214631D01*
X161400476Y-84274211D01*
X161247737Y-84370184D01*
X161120184Y-84497737D01*
X161024211Y-84650476D01*
X160964631Y-84820745D01*
X160964630Y-84820750D01*
X160944435Y-84999996D01*
X160944435Y-85000003D01*
X160964630Y-85179249D01*
X160964631Y-85179254D01*
X161024211Y-85349523D01*
X161074307Y-85429249D01*
X161118760Y-85499996D01*
X161120185Y-85502263D01*
X161122445Y-85505097D01*
X161123334Y-85507275D01*
X161123889Y-85508158D01*
X161123734Y-85508255D01*
X161148855Y-85569783D01*
X161149500Y-85582412D01*
X161149500Y-87250902D01*
X161129815Y-87317941D01*
X161077011Y-87363696D01*
X161007853Y-87373640D01*
X160944297Y-87344615D01*
X160937819Y-87338583D01*
X158830700Y-85231465D01*
X158797215Y-85170142D01*
X158795163Y-85157686D01*
X158785368Y-85070745D01*
X158725789Y-84900478D01*
X158629816Y-84747738D01*
X158502262Y-84620184D01*
X158485376Y-84609574D01*
X158349523Y-84524211D01*
X158179254Y-84464631D01*
X158179249Y-84464630D01*
X158000004Y-84444435D01*
X157999996Y-84444435D01*
X157820750Y-84464630D01*
X157820745Y-84464631D01*
X157650476Y-84524211D01*
X157497737Y-84620184D01*
X157370184Y-84747737D01*
X157274211Y-84900476D01*
X157214631Y-85070745D01*
X157214630Y-85070750D01*
X157194435Y-85249996D01*
X157194435Y-85250003D01*
X157214630Y-85429249D01*
X157214631Y-85429254D01*
X157274211Y-85599523D01*
X157368760Y-85749996D01*
X157370184Y-85752262D01*
X157497738Y-85879816D01*
X157650478Y-85975789D01*
X157820745Y-86035368D01*
X157907669Y-86045161D01*
X157972080Y-86072226D01*
X157981465Y-86080700D01*
X160363181Y-88462416D01*
X160396666Y-88523739D01*
X160399500Y-88550097D01*
X160399500Y-93164057D01*
X160379815Y-93231096D01*
X160327011Y-93276851D01*
X160257853Y-93286795D01*
X160252715Y-93285946D01*
X160249211Y-93285291D01*
X160111243Y-93259500D01*
X159888757Y-93259500D01*
X159818734Y-93272589D01*
X159750783Y-93285291D01*
X159681268Y-93278259D01*
X159640318Y-93251083D01*
X156777590Y-90388355D01*
X156777588Y-90388352D01*
X156658717Y-90269481D01*
X156658716Y-90269480D01*
X156571904Y-90219360D01*
X156571904Y-90219359D01*
X156571900Y-90219358D01*
X156521785Y-90190423D01*
X156369057Y-90149499D01*
X156210943Y-90149499D01*
X156203347Y-90149499D01*
X156203331Y-90149500D01*
X154666322Y-90149500D01*
X154599283Y-90129815D01*
X154553528Y-90077011D01*
X154543102Y-90039383D01*
X154535369Y-89970750D01*
X154535368Y-89970748D01*
X154535368Y-89970745D01*
X154475789Y-89800478D01*
X154379816Y-89647738D01*
X154252262Y-89520184D01*
X154220144Y-89500003D01*
X154099523Y-89424211D01*
X153929254Y-89364631D01*
X153929249Y-89364630D01*
X153750004Y-89344435D01*
X153749996Y-89344435D01*
X153570750Y-89364630D01*
X153570745Y-89364631D01*
X153400476Y-89424211D01*
X153247736Y-89520185D01*
X153244903Y-89522445D01*
X153242724Y-89523334D01*
X153241842Y-89523889D01*
X153241744Y-89523734D01*
X153180217Y-89548855D01*
X153167588Y-89549500D01*
X152171956Y-89549500D01*
X152104917Y-89529815D01*
X152059162Y-89477011D01*
X152048736Y-89439384D01*
X152035369Y-89320749D01*
X152035368Y-89320745D01*
X151982094Y-89168498D01*
X151975789Y-89150478D01*
X151879816Y-88997738D01*
X151879814Y-88997736D01*
X151879813Y-88997734D01*
X151877550Y-88994896D01*
X151876659Y-88992715D01*
X151876111Y-88991842D01*
X151876264Y-88991745D01*
X151851144Y-88930209D01*
X151850500Y-88917587D01*
X151850500Y-88148062D01*
X151870185Y-88081023D01*
X151922989Y-88035268D01*
X151992147Y-88025324D01*
X152015448Y-88031018D01*
X152070745Y-88050368D01*
X152070748Y-88050368D01*
X152070750Y-88050369D01*
X152249996Y-88070565D01*
X152250000Y-88070565D01*
X152250004Y-88070565D01*
X152429249Y-88050369D01*
X152429252Y-88050368D01*
X152429255Y-88050368D01*
X152599522Y-87990789D01*
X152752262Y-87894816D01*
X152879816Y-87767262D01*
X152953262Y-87650370D01*
X152970591Y-87628646D01*
X152975712Y-87623526D01*
X152975728Y-87623506D01*
X154268535Y-86330698D01*
X154329856Y-86297215D01*
X154342311Y-86295163D01*
X154429255Y-86285368D01*
X154599522Y-86225789D01*
X154752262Y-86129816D01*
X154879816Y-86002262D01*
X154975789Y-85849522D01*
X155035368Y-85679255D01*
X155044352Y-85599522D01*
X155055565Y-85500003D01*
X155055565Y-85499996D01*
X155035369Y-85320750D01*
X155035368Y-85320745D01*
X155009821Y-85247737D01*
X154975789Y-85150478D01*
X154975174Y-85149500D01*
X154936582Y-85088080D01*
X154879816Y-84997738D01*
X154752262Y-84870184D01*
X154737447Y-84860875D01*
X154599523Y-84774211D01*
X154429254Y-84714631D01*
X154429249Y-84714630D01*
X154250004Y-84694435D01*
X154249996Y-84694435D01*
X154070750Y-84714630D01*
X154070745Y-84714631D01*
X153900476Y-84774211D01*
X153747737Y-84870184D01*
X153620184Y-84997737D01*
X153524210Y-85150478D01*
X153464630Y-85320750D01*
X153454837Y-85407668D01*
X153427770Y-85472082D01*
X153419298Y-85481465D01*
X152464179Y-86436584D01*
X152402856Y-86470069D01*
X152362615Y-86472123D01*
X152250003Y-86459435D01*
X152249996Y-86459435D01*
X152070750Y-86479630D01*
X152070745Y-86479631D01*
X151900476Y-86539211D01*
X151747737Y-86635184D01*
X151620184Y-86762737D01*
X151620182Y-86762740D01*
X151603271Y-86789654D01*
X151550936Y-86835945D01*
X151481882Y-86846592D01*
X151418034Y-86818216D01*
X151410597Y-86811362D01*
X149580700Y-84981465D01*
X149547215Y-84920142D01*
X149545163Y-84907686D01*
X149535368Y-84820745D01*
X149475789Y-84650478D01*
X149379816Y-84497738D01*
X149252262Y-84370184D01*
X149099523Y-84274211D01*
X148929254Y-84214631D01*
X148929249Y-84214630D01*
X148750004Y-84194435D01*
X148749996Y-84194435D01*
X148570750Y-84214630D01*
X148570745Y-84214631D01*
X148400476Y-84274211D01*
X148247737Y-84370184D01*
X148120184Y-84497737D01*
X148020506Y-84656374D01*
X148019211Y-84655560D01*
X147977845Y-84701364D01*
X147910415Y-84719667D01*
X147843794Y-84698609D01*
X147799134Y-84644876D01*
X147789743Y-84609578D01*
X147785368Y-84570745D01*
X147725789Y-84400478D01*
X147629816Y-84247738D01*
X147502262Y-84120184D01*
X147349523Y-84024211D01*
X147179254Y-83964631D01*
X147179249Y-83964630D01*
X147000004Y-83944435D01*
X146999996Y-83944435D01*
X146820750Y-83964630D01*
X146820745Y-83964631D01*
X146650476Y-84024211D01*
X146497737Y-84120184D01*
X146370184Y-84247737D01*
X146274211Y-84400476D01*
X146214631Y-84570745D01*
X146214630Y-84570750D01*
X146194435Y-84749996D01*
X146194435Y-84750003D01*
X146214630Y-84929249D01*
X146214631Y-84929254D01*
X146274211Y-85099523D01*
X146357116Y-85231465D01*
X146370184Y-85252262D01*
X146497738Y-85379816D01*
X146650478Y-85475789D01*
X146820745Y-85535368D01*
X146907669Y-85545161D01*
X146972080Y-85572226D01*
X146981465Y-85580700D01*
X149794298Y-88393533D01*
X149827783Y-88454856D01*
X149829837Y-88467330D01*
X149839630Y-88554249D01*
X149894956Y-88712363D01*
X149898517Y-88782142D01*
X149863788Y-88842769D01*
X149801794Y-88874996D01*
X149732219Y-88868590D01*
X149690233Y-88840998D01*
X147587590Y-86738355D01*
X147587588Y-86738352D01*
X147468717Y-86619481D01*
X147468716Y-86619480D01*
X147358012Y-86555565D01*
X147358010Y-86555564D01*
X147331785Y-86540423D01*
X147331784Y-86540422D01*
X147331783Y-86540422D01*
X147275881Y-86525443D01*
X147179057Y-86499499D01*
X147020943Y-86499499D01*
X147013347Y-86499499D01*
X147013331Y-86499500D01*
X140248626Y-86499500D01*
X140181587Y-86479815D01*
X140160945Y-86463181D01*
X139086119Y-85388355D01*
X139086117Y-85388352D01*
X138967246Y-85269481D01*
X138967238Y-85269475D01*
X138865465Y-85210717D01*
X138865463Y-85210716D01*
X138830319Y-85190425D01*
X138830318Y-85190424D01*
X138788631Y-85179254D01*
X138677586Y-85149499D01*
X138519472Y-85149499D01*
X138511876Y-85149499D01*
X138511860Y-85149500D01*
X130582412Y-85149500D01*
X130515373Y-85129815D01*
X130505097Y-85122445D01*
X130502263Y-85120185D01*
X130502262Y-85120184D01*
X130445496Y-85084515D01*
X130349523Y-85024211D01*
X130179254Y-84964631D01*
X130179249Y-84964630D01*
X130000004Y-84944435D01*
X129999996Y-84944435D01*
X129820750Y-84964630D01*
X129820745Y-84964631D01*
X129650476Y-85024211D01*
X129497737Y-85120184D01*
X129370184Y-85247737D01*
X129274211Y-85400476D01*
X129214631Y-85570745D01*
X129214630Y-85570750D01*
X129194435Y-85749996D01*
X129194435Y-85750003D01*
X129214630Y-85929249D01*
X129214631Y-85929254D01*
X129274211Y-86099523D01*
X129353550Y-86225789D01*
X129370184Y-86252262D01*
X129497738Y-86379816D01*
X129584471Y-86434314D01*
X129644643Y-86472123D01*
X129650478Y-86475789D01*
X129820745Y-86535368D01*
X129820750Y-86535369D01*
X129999996Y-86555565D01*
X130000000Y-86555565D01*
X130000004Y-86555565D01*
X130179249Y-86535369D01*
X130179252Y-86535368D01*
X130179255Y-86535368D01*
X130349522Y-86475789D01*
X130502262Y-86379816D01*
X130502267Y-86379810D01*
X130505097Y-86377555D01*
X130507275Y-86376665D01*
X130508158Y-86376111D01*
X130508255Y-86376265D01*
X130569783Y-86351145D01*
X130582412Y-86350500D01*
X138238339Y-86350500D01*
X138305378Y-86370185D01*
X138351133Y-86422989D01*
X138361077Y-86492147D01*
X138343332Y-86540473D01*
X138274211Y-86650475D01*
X138214631Y-86820745D01*
X138214630Y-86820750D01*
X138194435Y-86999996D01*
X138194435Y-87000003D01*
X138214630Y-87179249D01*
X138214631Y-87179254D01*
X138274211Y-87349523D01*
X138370184Y-87502262D01*
X138497738Y-87629816D01*
X138650478Y-87725789D01*
X138820745Y-87785368D01*
X138907669Y-87795161D01*
X138972080Y-87822226D01*
X138981453Y-87830689D01*
X139131284Y-87980520D01*
X139131286Y-87980521D01*
X139131287Y-87980522D01*
X139131290Y-87980524D01*
X139252265Y-88050368D01*
X139268216Y-88059577D01*
X139420943Y-88100501D01*
X139420945Y-88100501D01*
X139586654Y-88100501D01*
X139586670Y-88100500D01*
X143699903Y-88100500D01*
X143766942Y-88120185D01*
X143787584Y-88136819D01*
X144238584Y-88587819D01*
X144272069Y-88649142D01*
X144267085Y-88718834D01*
X144225213Y-88774767D01*
X144159749Y-88799184D01*
X144150903Y-88799500D01*
X135500494Y-88799500D01*
X135434523Y-88780494D01*
X135424525Y-88774212D01*
X135254254Y-88714631D01*
X135254249Y-88714630D01*
X135075004Y-88694435D01*
X135074996Y-88694435D01*
X134895750Y-88714630D01*
X134895745Y-88714631D01*
X134725476Y-88774211D01*
X134572737Y-88870184D01*
X134445184Y-88997737D01*
X134349211Y-89150476D01*
X134289631Y-89320745D01*
X134289630Y-89320750D01*
X134269435Y-89499996D01*
X134269435Y-89500003D01*
X134289630Y-89679249D01*
X134289631Y-89679254D01*
X134349211Y-89849523D01*
X134425384Y-89970750D01*
X134445184Y-90002262D01*
X134572738Y-90129816D01*
X134604065Y-90149500D01*
X134715244Y-90219359D01*
X134725478Y-90225789D01*
X134895745Y-90285368D01*
X134895750Y-90285369D01*
X135074996Y-90305565D01*
X135075000Y-90305565D01*
X135075004Y-90305565D01*
X135254249Y-90285369D01*
X135254252Y-90285368D01*
X135254255Y-90285368D01*
X135424522Y-90225789D01*
X135577262Y-90129816D01*
X135670260Y-90036818D01*
X135731584Y-90003334D01*
X135757941Y-90000500D01*
X137083678Y-90000500D01*
X137150717Y-90020185D01*
X137196472Y-90072989D01*
X137206898Y-90110617D01*
X137214630Y-90179249D01*
X137274210Y-90349521D01*
X137298611Y-90388355D01*
X137370184Y-90502262D01*
X137497738Y-90629816D01*
X137650478Y-90725789D01*
X137820745Y-90785368D01*
X137820750Y-90785369D01*
X137999996Y-90805565D01*
X138000000Y-90805565D01*
X138000004Y-90805565D01*
X138179249Y-90785369D01*
X138179252Y-90785368D01*
X138179255Y-90785368D01*
X138349522Y-90725789D01*
X138502262Y-90629816D01*
X138502267Y-90629810D01*
X138505097Y-90627555D01*
X138507275Y-90626665D01*
X138508158Y-90626111D01*
X138508255Y-90626265D01*
X138569783Y-90601145D01*
X138582412Y-90600500D01*
X144199903Y-90600500D01*
X144266942Y-90620185D01*
X144287584Y-90636819D01*
X147169298Y-93518533D01*
X147202783Y-93579856D01*
X147204837Y-93592330D01*
X147214630Y-93679249D01*
X147274210Y-93849521D01*
X147345819Y-93963486D01*
X147370184Y-94002262D01*
X147497738Y-94129816D01*
X147650478Y-94225789D01*
X147746910Y-94259532D01*
X147820745Y-94285368D01*
X147820750Y-94285369D01*
X147999996Y-94305565D01*
X148000000Y-94305565D01*
X148000004Y-94305565D01*
X148179249Y-94285369D01*
X148179252Y-94285368D01*
X148179255Y-94285368D01*
X148349522Y-94225789D01*
X148502262Y-94129816D01*
X148531227Y-94100850D01*
X148592549Y-94067365D01*
X148651000Y-94068755D01*
X148769472Y-94100501D01*
X148769474Y-94100501D01*
X148935183Y-94100501D01*
X148935199Y-94100500D01*
X149442588Y-94100500D01*
X149509627Y-94120185D01*
X149519903Y-94127555D01*
X149522736Y-94129814D01*
X149522738Y-94129816D01*
X149675478Y-94225789D01*
X149771910Y-94259532D01*
X149845745Y-94285368D01*
X149845750Y-94285369D01*
X150024996Y-94305565D01*
X150025000Y-94305565D01*
X150025004Y-94305565D01*
X150204249Y-94285369D01*
X150204252Y-94285368D01*
X150204255Y-94285368D01*
X150374522Y-94225789D01*
X150527262Y-94129816D01*
X150654816Y-94002262D01*
X150750789Y-93849522D01*
X150810368Y-93679255D01*
X150820162Y-93592330D01*
X150830565Y-93500003D01*
X150830565Y-93499996D01*
X150810369Y-93320750D01*
X150810368Y-93320745D01*
X150797962Y-93285291D01*
X150750789Y-93150478D01*
X150654816Y-92997738D01*
X150527262Y-92870184D01*
X150374523Y-92774211D01*
X150204254Y-92714631D01*
X150204249Y-92714630D01*
X150025004Y-92694435D01*
X150024996Y-92694435D01*
X149935067Y-92704567D01*
X149866245Y-92692512D01*
X149814866Y-92645163D01*
X149797242Y-92577552D01*
X149797964Y-92567463D01*
X149805565Y-92500002D01*
X149805565Y-92499996D01*
X149784589Y-92313825D01*
X149786127Y-92313651D01*
X149789895Y-92252126D01*
X149831192Y-92195767D01*
X149896403Y-92170682D01*
X149906514Y-92170269D01*
X151769672Y-92170269D01*
X151836711Y-92189954D01*
X151857353Y-92206588D01*
X153788685Y-94137920D01*
X153822170Y-94199243D01*
X153820271Y-94259532D01*
X153814885Y-94278462D01*
X153794357Y-94499999D01*
X153794357Y-94500000D01*
X153814884Y-94721535D01*
X153820584Y-94741565D01*
X153819998Y-94811433D01*
X153781731Y-94869891D01*
X153717934Y-94898382D01*
X153701318Y-94899500D01*
X146867708Y-94899500D01*
X146826787Y-94910464D01*
X146826787Y-94910465D01*
X146789519Y-94920451D01*
X146714982Y-94940423D01*
X146714977Y-94940426D01*
X146578058Y-95019475D01*
X146578050Y-95019481D01*
X146466246Y-95131286D01*
X145371221Y-96226310D01*
X145309898Y-96259795D01*
X145297424Y-96261849D01*
X145210506Y-96271642D01*
X145040234Y-96331222D01*
X144887493Y-96427196D01*
X144759940Y-96554749D01*
X144663966Y-96707490D01*
X144604386Y-96877762D01*
X144594593Y-96964680D01*
X144567526Y-97029094D01*
X144559054Y-97038477D01*
X143734352Y-97863181D01*
X143673029Y-97896666D01*
X143646671Y-97899500D01*
X133086670Y-97899500D01*
X133086654Y-97899499D01*
X133079058Y-97899499D01*
X132920943Y-97899499D01*
X132844579Y-97919961D01*
X132768214Y-97940423D01*
X132768209Y-97940426D01*
X132631290Y-98019475D01*
X132631282Y-98019481D01*
X131981465Y-98669298D01*
X131920142Y-98702783D01*
X131907668Y-98704837D01*
X131820750Y-98714630D01*
X131650478Y-98774210D01*
X131497737Y-98870184D01*
X131370184Y-98997737D01*
X131274211Y-99150476D01*
X131214631Y-99320745D01*
X131214630Y-99320750D01*
X131194435Y-99499996D01*
X131194435Y-99500003D01*
X131214630Y-99679249D01*
X131214631Y-99679254D01*
X131274211Y-99849523D01*
X131326509Y-99932754D01*
X131370184Y-100002262D01*
X131497738Y-100129816D01*
X131588080Y-100186582D01*
X131641089Y-100219890D01*
X131650478Y-100225789D01*
X131807662Y-100280790D01*
X131820745Y-100285368D01*
X131820750Y-100285369D01*
X131980000Y-100303312D01*
X132044414Y-100330378D01*
X132083969Y-100387973D01*
X132086107Y-100457810D01*
X132050149Y-100517716D01*
X132032089Y-100531526D01*
X131916007Y-100604465D01*
X131788454Y-100732018D01*
X131692481Y-100884757D01*
X131632901Y-101055026D01*
X131632900Y-101055031D01*
X131612705Y-101234277D01*
X131612705Y-101234284D01*
X131632900Y-101413530D01*
X131632901Y-101413535D01*
X131692481Y-101583804D01*
X131735632Y-101652478D01*
X131788454Y-101736543D01*
X131916008Y-101864097D01*
X132006350Y-101920863D01*
X132065160Y-101957816D01*
X132068748Y-101960070D01*
X132182990Y-102000045D01*
X132239015Y-102019649D01*
X132239020Y-102019650D01*
X132418266Y-102039846D01*
X132418270Y-102039846D01*
X132418274Y-102039846D01*
X132597519Y-102019650D01*
X132597522Y-102019649D01*
X132597525Y-102019649D01*
X132767792Y-101960070D01*
X132920532Y-101864097D01*
X133048086Y-101736543D01*
X133142980Y-101585521D01*
X133195315Y-101539230D01*
X133247974Y-101527493D01*
X134852185Y-101527493D01*
X134914185Y-101544105D01*
X134940982Y-101559577D01*
X135093710Y-101600501D01*
X135093713Y-101600501D01*
X135251821Y-101600501D01*
X135251824Y-101600501D01*
X135404552Y-101559577D01*
X135431348Y-101544105D01*
X135493349Y-101527493D01*
X137886338Y-101527493D01*
X137886354Y-101527494D01*
X137893950Y-101527494D01*
X138052061Y-101527494D01*
X138052064Y-101527494D01*
X138204792Y-101486570D01*
X138254911Y-101457632D01*
X138341723Y-101407513D01*
X138453527Y-101295709D01*
X138453528Y-101295706D01*
X138522370Y-101226863D01*
X138583689Y-101193380D01*
X138653381Y-101198364D01*
X138709314Y-101240235D01*
X138729823Y-101282452D01*
X138773731Y-101446319D01*
X138773735Y-101446331D01*
X138869863Y-101652478D01*
X138920974Y-101725472D01*
X139600000Y-101046446D01*
X139600000Y-101052661D01*
X139627259Y-101154394D01*
X139679920Y-101245606D01*
X139754394Y-101320080D01*
X139845606Y-101372741D01*
X139947339Y-101400000D01*
X139953553Y-101400000D01*
X139274526Y-102079025D01*
X139347513Y-102130132D01*
X139347521Y-102130136D01*
X139553668Y-102226264D01*
X139553682Y-102226269D01*
X139773389Y-102285139D01*
X139773400Y-102285141D01*
X139999998Y-102304966D01*
X140000002Y-102304966D01*
X140226599Y-102285141D01*
X140226610Y-102285139D01*
X140446317Y-102226269D01*
X140446331Y-102226264D01*
X140652478Y-102130136D01*
X140725471Y-102079024D01*
X140046447Y-101400000D01*
X140052661Y-101400000D01*
X140154394Y-101372741D01*
X140245606Y-101320080D01*
X140320080Y-101245606D01*
X140372741Y-101154394D01*
X140400000Y-101052661D01*
X140400000Y-101046447D01*
X141079024Y-101725471D01*
X141130136Y-101652478D01*
X141226264Y-101446331D01*
X141226269Y-101446317D01*
X141285139Y-101226610D01*
X141285141Y-101226599D01*
X141304966Y-101000002D01*
X141304966Y-100999997D01*
X141285141Y-100773400D01*
X141285139Y-100773390D01*
X141253844Y-100656593D01*
X141255507Y-100586744D01*
X141294669Y-100528881D01*
X141358898Y-100501377D01*
X141373619Y-100500500D01*
X141625863Y-100500500D01*
X141692902Y-100520185D01*
X141738657Y-100572989D01*
X141748601Y-100642147D01*
X141745638Y-100656593D01*
X141714366Y-100773302D01*
X141714364Y-100773313D01*
X141694532Y-100999998D01*
X141694532Y-101000001D01*
X141714364Y-101226686D01*
X141714366Y-101226697D01*
X141773258Y-101446488D01*
X141773261Y-101446497D01*
X141869431Y-101652732D01*
X141869432Y-101652734D01*
X141999954Y-101839141D01*
X142160858Y-102000045D01*
X142160861Y-102000047D01*
X142347266Y-102130568D01*
X142553504Y-102226739D01*
X142773308Y-102285635D01*
X142935230Y-102299801D01*
X142999998Y-102305468D01*
X143000000Y-102305468D01*
X143000002Y-102305468D01*
X143056673Y-102300509D01*
X143226692Y-102285635D01*
X143446496Y-102226739D01*
X143652734Y-102130568D01*
X143839139Y-102000047D01*
X144000047Y-101839139D01*
X144130568Y-101652734D01*
X144226739Y-101446496D01*
X144285635Y-101226692D01*
X144292895Y-101143713D01*
X159149500Y-101143713D01*
X159149500Y-101356286D01*
X159182753Y-101566239D01*
X159248444Y-101768414D01*
X159344951Y-101957820D01*
X159469890Y-102129786D01*
X159620213Y-102280109D01*
X159792179Y-102405048D01*
X159792181Y-102405049D01*
X159792184Y-102405051D01*
X159981588Y-102501557D01*
X160183757Y-102567246D01*
X160393713Y-102600500D01*
X160393714Y-102600500D01*
X160606286Y-102600500D01*
X160606287Y-102600500D01*
X160816243Y-102567246D01*
X161018412Y-102501557D01*
X161207816Y-102405051D01*
X161229789Y-102389086D01*
X161379786Y-102280109D01*
X161379788Y-102280106D01*
X161379792Y-102280104D01*
X161530104Y-102129792D01*
X161530106Y-102129788D01*
X161530109Y-102129786D01*
X161655048Y-101957820D01*
X161655047Y-101957820D01*
X161655051Y-101957816D01*
X161751557Y-101768412D01*
X161817246Y-101566243D01*
X161850500Y-101356287D01*
X161850500Y-101143713D01*
X161817246Y-100933757D01*
X161751557Y-100731588D01*
X161655051Y-100542184D01*
X161655049Y-100542181D01*
X161655048Y-100542179D01*
X161530109Y-100370213D01*
X161379786Y-100219890D01*
X161207820Y-100094951D01*
X161018414Y-99998444D01*
X161018413Y-99998443D01*
X161018412Y-99998443D01*
X160816243Y-99932754D01*
X160816241Y-99932753D01*
X160816240Y-99932753D01*
X160654957Y-99907208D01*
X160606287Y-99899500D01*
X160393713Y-99899500D01*
X160345042Y-99907208D01*
X160183760Y-99932753D01*
X159981585Y-99998444D01*
X159792179Y-100094951D01*
X159620213Y-100219890D01*
X159469890Y-100370213D01*
X159344951Y-100542179D01*
X159248444Y-100731585D01*
X159182753Y-100933760D01*
X159149500Y-101143713D01*
X144292895Y-101143713D01*
X144305468Y-101000000D01*
X144285635Y-100773308D01*
X144254362Y-100656594D01*
X144256025Y-100586744D01*
X144295188Y-100528882D01*
X144359416Y-100501378D01*
X144374137Y-100500501D01*
X144473356Y-100500501D01*
X144473359Y-100500501D01*
X144626087Y-100459577D01*
X144684304Y-100425965D01*
X144763018Y-100380520D01*
X144874822Y-100268716D01*
X144874822Y-100268714D01*
X144885026Y-100258511D01*
X144885030Y-100258506D01*
X146109543Y-99033992D01*
X147204500Y-99033992D01*
X147204500Y-99686007D01*
X147243907Y-99884119D01*
X147243909Y-99884127D01*
X147321212Y-100070752D01*
X147321217Y-100070762D01*
X147433441Y-100238718D01*
X147576281Y-100381558D01*
X147744237Y-100493782D01*
X147744241Y-100493784D01*
X147744244Y-100493786D01*
X147930873Y-100571091D01*
X148076210Y-100600000D01*
X148128992Y-100610499D01*
X148128996Y-100610500D01*
X148128997Y-100610500D01*
X148331004Y-100610500D01*
X148331005Y-100610499D01*
X148529127Y-100571091D01*
X148715756Y-100493786D01*
X148796110Y-100440094D01*
X148862786Y-100419217D01*
X148930166Y-100437701D01*
X148933865Y-100440078D01*
X149014244Y-100493786D01*
X149014245Y-100493786D01*
X149014246Y-100493787D01*
X149049747Y-100508492D01*
X149200873Y-100571091D01*
X149346210Y-100600000D01*
X149398992Y-100610499D01*
X149398996Y-100610500D01*
X149398997Y-100610500D01*
X149601004Y-100610500D01*
X149601005Y-100610499D01*
X149799127Y-100571091D01*
X149880338Y-100537451D01*
X149949804Y-100529983D01*
X149994859Y-100549594D01*
X149995128Y-100549103D01*
X150000613Y-100552098D01*
X150002099Y-100552745D01*
X150002911Y-100553353D01*
X150002913Y-100553354D01*
X150137620Y-100603596D01*
X150137627Y-100603598D01*
X150197155Y-100609999D01*
X150197172Y-100610000D01*
X150520000Y-100610000D01*
X150520000Y-99725865D01*
X150522383Y-99701671D01*
X150525500Y-99686002D01*
X150525500Y-99645830D01*
X150539745Y-99660075D01*
X150625255Y-99709444D01*
X150720630Y-99735000D01*
X150819370Y-99735000D01*
X150914745Y-99709444D01*
X151000255Y-99660075D01*
X151020000Y-99640330D01*
X151020000Y-100610000D01*
X151342828Y-100610000D01*
X151342844Y-100609999D01*
X151402372Y-100603598D01*
X151402379Y-100603596D01*
X151537086Y-100553354D01*
X151537093Y-100553350D01*
X151652187Y-100467190D01*
X151652190Y-100467187D01*
X151738350Y-100352093D01*
X151738354Y-100352086D01*
X151788596Y-100217379D01*
X151788598Y-100217372D01*
X151794999Y-100157844D01*
X151795000Y-100157827D01*
X151795000Y-99610000D01*
X151050330Y-99610000D01*
X151070075Y-99590255D01*
X151119444Y-99504745D01*
X151145000Y-99409370D01*
X151145000Y-99310630D01*
X151119444Y-99215255D01*
X151070075Y-99129745D01*
X151050330Y-99110000D01*
X151795000Y-99110000D01*
X151795000Y-98562172D01*
X151794999Y-98562155D01*
X151788598Y-98502627D01*
X151788596Y-98502620D01*
X151738354Y-98367913D01*
X151738350Y-98367906D01*
X151652190Y-98252812D01*
X151652187Y-98252809D01*
X151537093Y-98166649D01*
X151537086Y-98166645D01*
X151402379Y-98116403D01*
X151402372Y-98116401D01*
X151342844Y-98110000D01*
X151020000Y-98110000D01*
X151020000Y-99079670D01*
X151000255Y-99059925D01*
X150914745Y-99010556D01*
X150819370Y-98985000D01*
X150720630Y-98985000D01*
X150625255Y-99010556D01*
X150539745Y-99059925D01*
X150525500Y-99074170D01*
X150525500Y-99033996D01*
X150525499Y-99033995D01*
X150522383Y-99018326D01*
X150520000Y-98994134D01*
X150520000Y-98110000D01*
X150197155Y-98110000D01*
X150137627Y-98116401D01*
X150137620Y-98116403D01*
X150002913Y-98166645D01*
X150002911Y-98166646D01*
X150002092Y-98167260D01*
X150001134Y-98167616D01*
X149995132Y-98170895D01*
X149994660Y-98170031D01*
X149936625Y-98191671D01*
X149880338Y-98182547D01*
X149799131Y-98148910D01*
X149799119Y-98148907D01*
X149601007Y-98109500D01*
X149601003Y-98109500D01*
X149398997Y-98109500D01*
X149398992Y-98109500D01*
X149200880Y-98148907D01*
X149200872Y-98148909D01*
X149014244Y-98226213D01*
X148933891Y-98279904D01*
X148867213Y-98300782D01*
X148799833Y-98282297D01*
X148796109Y-98279904D01*
X148715755Y-98226213D01*
X148529127Y-98148909D01*
X148529119Y-98148907D01*
X148331007Y-98109500D01*
X148331003Y-98109500D01*
X148128997Y-98109500D01*
X148128992Y-98109500D01*
X147930880Y-98148907D01*
X147930872Y-98148909D01*
X147744247Y-98226212D01*
X147744237Y-98226217D01*
X147576281Y-98338441D01*
X147433441Y-98481281D01*
X147321217Y-98649237D01*
X147321212Y-98649247D01*
X147243909Y-98835872D01*
X147243907Y-98835880D01*
X147204500Y-99033992D01*
X146109543Y-99033992D01*
X146664564Y-98478971D01*
X146725885Y-98445488D01*
X146738340Y-98443436D01*
X146825284Y-98433641D01*
X146995551Y-98374062D01*
X147148291Y-98278089D01*
X147275845Y-98150535D01*
X147371818Y-97997795D01*
X147431397Y-97827528D01*
X147431398Y-97827522D01*
X147451594Y-97648276D01*
X147451594Y-97648269D01*
X147431398Y-97469023D01*
X147431397Y-97469018D01*
X147411040Y-97410842D01*
X147371818Y-97298751D01*
X147371817Y-97298750D01*
X147371816Y-97298746D01*
X147279508Y-97151840D01*
X147260507Y-97084604D01*
X147280874Y-97017769D01*
X147296815Y-96998192D01*
X147758189Y-96536819D01*
X147819512Y-96503334D01*
X147845870Y-96500500D01*
X153741670Y-96500500D01*
X153808709Y-96520185D01*
X153854464Y-96572989D01*
X153864408Y-96642147D01*
X153860937Y-96658433D01*
X153815378Y-96818558D01*
X153794859Y-97039999D01*
X153794859Y-97040000D01*
X153815378Y-97261439D01*
X153876240Y-97475350D01*
X153975369Y-97674428D01*
X153991137Y-97695308D01*
X153991138Y-97695308D01*
X154600000Y-97086446D01*
X154600000Y-97092661D01*
X154627259Y-97194394D01*
X154679920Y-97285606D01*
X154754394Y-97360080D01*
X154845606Y-97412741D01*
X154947339Y-97440000D01*
X154953553Y-97440000D01*
X154346672Y-98046879D01*
X154346672Y-98046880D01*
X154462821Y-98118797D01*
X154462822Y-98118798D01*
X154670195Y-98199134D01*
X154888807Y-98240000D01*
X155111193Y-98240000D01*
X155329809Y-98199133D01*
X155537168Y-98118801D01*
X155537181Y-98118795D01*
X155653326Y-98046879D01*
X155046448Y-97440000D01*
X155052661Y-97440000D01*
X155154394Y-97412741D01*
X155245606Y-97360080D01*
X155320080Y-97285606D01*
X155372741Y-97194394D01*
X155400000Y-97092661D01*
X155400000Y-97086447D01*
X156008861Y-97695308D01*
X156024631Y-97674425D01*
X156024633Y-97674422D01*
X156123760Y-97475348D01*
X156123761Y-97475347D01*
X156136423Y-97430843D01*
X156173701Y-97371749D01*
X156237011Y-97342190D01*
X156306250Y-97351551D01*
X156359437Y-97396860D01*
X156374956Y-97430840D01*
X156376237Y-97435344D01*
X156376239Y-97435348D01*
X156475369Y-97634428D01*
X156491137Y-97655308D01*
X156491138Y-97655308D01*
X157100000Y-97046446D01*
X157100000Y-97052661D01*
X157127259Y-97154394D01*
X157179920Y-97245606D01*
X157254394Y-97320080D01*
X157345606Y-97372741D01*
X157447339Y-97400000D01*
X157453553Y-97400000D01*
X156846672Y-98006879D01*
X156846672Y-98006880D01*
X156962821Y-98078797D01*
X156962822Y-98078798D01*
X157170195Y-98159134D01*
X157388807Y-98200000D01*
X157611193Y-98200000D01*
X157829809Y-98159133D01*
X158037168Y-98078801D01*
X158037181Y-98078795D01*
X158153326Y-98006879D01*
X157546448Y-97400000D01*
X157552661Y-97400000D01*
X157654394Y-97372741D01*
X157745606Y-97320080D01*
X157820080Y-97245606D01*
X157872741Y-97154394D01*
X157900000Y-97052661D01*
X157900000Y-97046447D01*
X158508861Y-97655308D01*
X158524631Y-97634425D01*
X158524633Y-97634422D01*
X158623760Y-97435349D01*
X158630733Y-97410842D01*
X158668012Y-97351749D01*
X158731321Y-97322190D01*
X158800561Y-97331551D01*
X158853748Y-97376860D01*
X158869267Y-97410842D01*
X158876239Y-97435349D01*
X158975369Y-97634428D01*
X158991137Y-97655308D01*
X158991138Y-97655308D01*
X159600000Y-97046446D01*
X159600000Y-97052661D01*
X159627259Y-97154394D01*
X159679920Y-97245606D01*
X159754394Y-97320080D01*
X159845606Y-97372741D01*
X159947339Y-97400000D01*
X159953553Y-97400000D01*
X159346672Y-98006879D01*
X159346672Y-98006880D01*
X159462821Y-98078797D01*
X159462822Y-98078798D01*
X159670195Y-98159134D01*
X159888807Y-98200000D01*
X160111193Y-98200000D01*
X160329809Y-98159133D01*
X160537168Y-98078801D01*
X160537181Y-98078795D01*
X160653326Y-98006879D01*
X160046448Y-97400000D01*
X160052661Y-97400000D01*
X160154394Y-97372741D01*
X160245606Y-97320080D01*
X160320080Y-97245606D01*
X160372741Y-97154394D01*
X160400000Y-97052661D01*
X160400000Y-97046447D01*
X161008861Y-97655308D01*
X161024631Y-97634425D01*
X161024633Y-97634422D01*
X161123759Y-97435350D01*
X161184621Y-97221439D01*
X161205141Y-97000000D01*
X161205141Y-96999999D01*
X161184621Y-96778560D01*
X161123759Y-96564649D01*
X161030802Y-96377965D01*
X161018541Y-96309179D01*
X161045414Y-96244684D01*
X161054111Y-96235022D01*
X162118713Y-95170421D01*
X162118716Y-95170420D01*
X162230520Y-95058616D01*
X162268112Y-94993501D01*
X162318678Y-94945285D01*
X162387285Y-94932061D01*
X162452150Y-94958028D01*
X162492679Y-95014942D01*
X162499500Y-95055500D01*
X162499500Y-103125500D01*
X162479815Y-103192539D01*
X162427011Y-103238294D01*
X162375500Y-103249500D01*
X120624500Y-103249500D01*
X120557461Y-103229815D01*
X120511706Y-103177011D01*
X120500500Y-103125500D01*
X120500500Y-101143713D01*
X121149500Y-101143713D01*
X121149500Y-101356286D01*
X121182753Y-101566239D01*
X121248444Y-101768414D01*
X121344951Y-101957820D01*
X121469890Y-102129786D01*
X121620213Y-102280109D01*
X121792179Y-102405048D01*
X121792181Y-102405049D01*
X121792184Y-102405051D01*
X121981588Y-102501557D01*
X122183757Y-102567246D01*
X122393713Y-102600500D01*
X122393714Y-102600500D01*
X122606286Y-102600500D01*
X122606287Y-102600500D01*
X122816243Y-102567246D01*
X123018412Y-102501557D01*
X123207816Y-102405051D01*
X123229789Y-102389086D01*
X123379786Y-102280109D01*
X123379788Y-102280106D01*
X123379792Y-102280104D01*
X123530104Y-102129792D01*
X123530106Y-102129788D01*
X123530109Y-102129786D01*
X123655048Y-101957820D01*
X123655047Y-101957820D01*
X123655051Y-101957816D01*
X123751557Y-101768412D01*
X123817246Y-101566243D01*
X123850500Y-101356287D01*
X123850500Y-101143713D01*
X123817246Y-100933757D01*
X123751557Y-100731588D01*
X123655051Y-100542184D01*
X123655049Y-100542181D01*
X123655048Y-100542179D01*
X123530109Y-100370213D01*
X123379786Y-100219890D01*
X123207820Y-100094951D01*
X123018414Y-99998444D01*
X123018413Y-99998443D01*
X123018412Y-99998443D01*
X122816243Y-99932754D01*
X122816241Y-99932753D01*
X122816240Y-99932753D01*
X122654957Y-99907208D01*
X122606287Y-99899500D01*
X122393713Y-99899500D01*
X122345042Y-99907208D01*
X122183760Y-99932753D01*
X121981585Y-99998444D01*
X121792179Y-100094951D01*
X121620213Y-100219890D01*
X121469890Y-100370213D01*
X121344951Y-100542179D01*
X121248444Y-100731585D01*
X121182753Y-100933760D01*
X121149500Y-101143713D01*
X120500500Y-101143713D01*
X120500500Y-90959999D01*
X121144341Y-90959999D01*
X121144341Y-90960000D01*
X121164936Y-91195403D01*
X121164938Y-91195413D01*
X121226094Y-91423655D01*
X121226096Y-91423659D01*
X121226097Y-91423663D01*
X121262094Y-91500858D01*
X121325965Y-91637830D01*
X121325967Y-91637834D01*
X121461501Y-91831395D01*
X121461506Y-91831402D01*
X121628597Y-91998493D01*
X121628603Y-91998498D01*
X121814594Y-92128730D01*
X121858219Y-92183307D01*
X121865413Y-92252805D01*
X121833890Y-92315160D01*
X121814595Y-92331880D01*
X121628922Y-92461890D01*
X121628920Y-92461891D01*
X121461891Y-92628920D01*
X121461886Y-92628926D01*
X121326400Y-92822420D01*
X121326399Y-92822422D01*
X121226570Y-93036507D01*
X121226567Y-93036513D01*
X121169364Y-93249999D01*
X121169364Y-93250000D01*
X122066988Y-93250000D01*
X122034075Y-93307007D01*
X122000000Y-93434174D01*
X122000000Y-93565826D01*
X122034075Y-93692993D01*
X122066988Y-93750000D01*
X121169364Y-93750000D01*
X121226567Y-93963486D01*
X121226570Y-93963492D01*
X121326399Y-94177578D01*
X121461894Y-94371082D01*
X121628917Y-94538105D01*
X121822421Y-94673600D01*
X122036507Y-94773429D01*
X122036516Y-94773433D01*
X122250000Y-94830634D01*
X122250000Y-93933012D01*
X122307007Y-93965925D01*
X122434174Y-94000000D01*
X122565826Y-94000000D01*
X122692993Y-93965925D01*
X122750000Y-93933012D01*
X122750000Y-94830633D01*
X122893407Y-94792209D01*
X122963257Y-94793872D01*
X123021119Y-94833035D01*
X123048623Y-94897263D01*
X123049500Y-94911984D01*
X123049500Y-95188330D01*
X123049499Y-95188348D01*
X123049499Y-95354054D01*
X123049498Y-95354054D01*
X123049499Y-95354057D01*
X123090423Y-95506785D01*
X123090424Y-95506787D01*
X123090423Y-95506787D01*
X123104568Y-95531285D01*
X123104569Y-95531287D01*
X123169475Y-95643709D01*
X123169481Y-95643717D01*
X123288349Y-95762585D01*
X123288355Y-95762590D01*
X127044298Y-99518533D01*
X127077783Y-99579856D01*
X127079837Y-99592330D01*
X127089630Y-99679249D01*
X127149210Y-99849521D01*
X127201509Y-99932754D01*
X127245184Y-100002262D01*
X127372738Y-100129816D01*
X127463080Y-100186582D01*
X127516089Y-100219890D01*
X127525478Y-100225789D01*
X127682662Y-100280790D01*
X127695745Y-100285368D01*
X127695750Y-100285369D01*
X127874996Y-100305565D01*
X127875000Y-100305565D01*
X127875004Y-100305565D01*
X128054249Y-100285369D01*
X128054252Y-100285368D01*
X128054255Y-100285368D01*
X128224522Y-100225789D01*
X128377262Y-100129816D01*
X128504816Y-100002262D01*
X128600789Y-99849522D01*
X128660368Y-99679255D01*
X128670396Y-99590255D01*
X128680565Y-99500003D01*
X128680565Y-99499996D01*
X128660369Y-99320750D01*
X128660368Y-99320745D01*
X128600788Y-99150476D01*
X128504815Y-98997737D01*
X128377262Y-98870184D01*
X128224521Y-98774210D01*
X128054249Y-98714630D01*
X127967330Y-98704837D01*
X127902916Y-98677770D01*
X127893533Y-98669298D01*
X126114152Y-96889917D01*
X126080667Y-96828594D01*
X126085651Y-96758902D01*
X126127523Y-96702969D01*
X126179045Y-96680347D01*
X126289940Y-96659618D01*
X126497401Y-96579247D01*
X126686562Y-96462124D01*
X126850981Y-96312236D01*
X126985058Y-96134689D01*
X127084229Y-95935528D01*
X127110734Y-95842371D01*
X127148013Y-95783278D01*
X127211323Y-95753721D01*
X127280562Y-95763083D01*
X127333749Y-95808393D01*
X127349266Y-95842372D01*
X127375769Y-95935523D01*
X127375775Y-95935538D01*
X127474938Y-96134683D01*
X127474943Y-96134691D01*
X127609020Y-96312238D01*
X127773437Y-96462123D01*
X127773439Y-96462125D01*
X127962595Y-96579245D01*
X127962596Y-96579245D01*
X127962599Y-96579247D01*
X128170060Y-96659618D01*
X128388757Y-96700500D01*
X128388759Y-96700500D01*
X128611241Y-96700500D01*
X128611243Y-96700500D01*
X128829940Y-96659618D01*
X129037401Y-96579247D01*
X129226562Y-96462124D01*
X129390981Y-96312236D01*
X129525058Y-96134689D01*
X129624229Y-95935528D01*
X129685115Y-95721536D01*
X129705643Y-95500000D01*
X129685115Y-95278464D01*
X129624229Y-95064472D01*
X129623289Y-95062584D01*
X129525061Y-94865316D01*
X129525056Y-94865308D01*
X129390979Y-94687761D01*
X129226562Y-94537876D01*
X129226560Y-94537874D01*
X129037404Y-94420754D01*
X129037398Y-94420752D01*
X128829940Y-94340382D01*
X128611243Y-94299500D01*
X128388757Y-94299500D01*
X128170060Y-94340382D01*
X128038864Y-94391207D01*
X127962601Y-94420752D01*
X127962595Y-94420754D01*
X127773439Y-94537874D01*
X127773437Y-94537876D01*
X127609020Y-94687761D01*
X127474943Y-94865308D01*
X127474938Y-94865316D01*
X127375775Y-95064461D01*
X127375769Y-95064476D01*
X127349266Y-95157627D01*
X127311987Y-95216721D01*
X127248677Y-95246278D01*
X127179438Y-95236916D01*
X127126251Y-95191606D01*
X127110734Y-95157627D01*
X127084230Y-95064476D01*
X127084229Y-95064472D01*
X127083289Y-95062584D01*
X126985061Y-94865316D01*
X126985056Y-94865308D01*
X126850979Y-94687761D01*
X126686562Y-94537876D01*
X126686560Y-94537874D01*
X126497404Y-94420754D01*
X126497398Y-94420752D01*
X126289940Y-94340382D01*
X126071243Y-94299500D01*
X125848757Y-94299500D01*
X125630060Y-94340382D01*
X125498864Y-94391207D01*
X125422601Y-94420752D01*
X125422595Y-94420754D01*
X125233439Y-94537874D01*
X125233437Y-94537876D01*
X125069020Y-94687761D01*
X124934943Y-94865308D01*
X124934938Y-94865316D01*
X124835775Y-95064461D01*
X124835769Y-95064476D01*
X124773316Y-95283978D01*
X124771702Y-95283518D01*
X124743560Y-95338841D01*
X124683241Y-95374103D01*
X124613433Y-95371156D01*
X124565674Y-95341439D01*
X124286819Y-95062584D01*
X124253334Y-95001261D01*
X124250500Y-94974903D01*
X124250500Y-92199060D01*
X124250501Y-92199047D01*
X124250501Y-92030944D01*
X124209576Y-91878214D01*
X124209573Y-91878209D01*
X124130524Y-91741290D01*
X124130518Y-91741282D01*
X123832766Y-91443530D01*
X123799281Y-91382207D01*
X123800672Y-91323755D01*
X123835063Y-91195408D01*
X123855659Y-90960000D01*
X123835063Y-90724592D01*
X123773903Y-90496337D01*
X123674035Y-90282171D01*
X123665149Y-90269481D01*
X123538496Y-90088600D01*
X123486714Y-90036818D01*
X123416567Y-89966671D01*
X123383084Y-89905351D01*
X123388068Y-89835659D01*
X123429939Y-89779725D01*
X123460915Y-89762810D01*
X123592331Y-89713796D01*
X123707546Y-89627546D01*
X123793796Y-89512331D01*
X123844091Y-89377483D01*
X123850500Y-89317873D01*
X123850499Y-87522128D01*
X123844091Y-87462517D01*
X123800116Y-87344615D01*
X123793797Y-87327671D01*
X123793793Y-87327664D01*
X123707547Y-87212455D01*
X123707544Y-87212452D01*
X123592335Y-87126206D01*
X123592328Y-87126202D01*
X123457482Y-87075908D01*
X123457483Y-87075908D01*
X123397883Y-87069501D01*
X123397881Y-87069500D01*
X123397873Y-87069500D01*
X123397864Y-87069500D01*
X121602129Y-87069500D01*
X121602123Y-87069501D01*
X121542516Y-87075908D01*
X121407671Y-87126202D01*
X121407664Y-87126206D01*
X121292455Y-87212452D01*
X121292452Y-87212455D01*
X121206206Y-87327664D01*
X121206202Y-87327671D01*
X121155908Y-87462517D01*
X121149501Y-87522116D01*
X121149501Y-87522123D01*
X121149500Y-87522135D01*
X121149500Y-89317870D01*
X121149501Y-89317876D01*
X121155908Y-89377483D01*
X121206202Y-89512328D01*
X121206206Y-89512335D01*
X121292452Y-89627544D01*
X121292455Y-89627547D01*
X121407664Y-89713793D01*
X121407671Y-89713797D01*
X121539081Y-89762810D01*
X121595015Y-89804681D01*
X121619432Y-89870145D01*
X121604580Y-89938418D01*
X121583430Y-89966673D01*
X121461503Y-90088600D01*
X121325965Y-90282169D01*
X121325964Y-90282171D01*
X121226098Y-90496335D01*
X121226094Y-90496344D01*
X121164938Y-90724586D01*
X121164936Y-90724596D01*
X121144341Y-90959999D01*
X120500500Y-90959999D01*
X120500500Y-78539993D01*
X127069700Y-78539993D01*
X127069700Y-78540006D01*
X127088864Y-78771297D01*
X127088866Y-78771308D01*
X127145842Y-78996300D01*
X127239075Y-79208848D01*
X127366016Y-79403147D01*
X127366019Y-79403151D01*
X127366021Y-79403153D01*
X127523216Y-79573913D01*
X127523219Y-79573915D01*
X127523222Y-79573918D01*
X127706365Y-79716464D01*
X127706371Y-79716468D01*
X127706374Y-79716470D01*
X127910497Y-79826936D01*
X128024487Y-79866068D01*
X128130015Y-79902297D01*
X128130017Y-79902297D01*
X128130019Y-79902298D01*
X128358951Y-79940500D01*
X128358952Y-79940500D01*
X128591048Y-79940500D01*
X128591049Y-79940500D01*
X128819981Y-79902298D01*
X129039503Y-79826936D01*
X129243626Y-79716470D01*
X129426784Y-79573913D01*
X129583979Y-79403153D01*
X129710924Y-79208849D01*
X129804157Y-78996300D01*
X129861134Y-78771305D01*
X129880300Y-78540000D01*
X129880300Y-78539993D01*
X135736366Y-78539993D01*
X135736366Y-78540006D01*
X135755530Y-78771297D01*
X135755532Y-78771308D01*
X135812508Y-78996300D01*
X135905741Y-79208848D01*
X136032682Y-79403147D01*
X136032685Y-79403151D01*
X136032687Y-79403153D01*
X136189882Y-79573913D01*
X136189885Y-79573915D01*
X136189888Y-79573918D01*
X136373031Y-79716464D01*
X136373037Y-79716468D01*
X136373040Y-79716470D01*
X136577163Y-79826936D01*
X136691153Y-79866068D01*
X136796681Y-79902297D01*
X136796683Y-79902297D01*
X136796685Y-79902298D01*
X137025617Y-79940500D01*
X137025618Y-79940500D01*
X137257714Y-79940500D01*
X137257715Y-79940500D01*
X137486647Y-79902298D01*
X137706169Y-79826936D01*
X137910292Y-79716470D01*
X138093450Y-79573913D01*
X138250645Y-79403153D01*
X138377590Y-79208849D01*
X138470823Y-78996300D01*
X138527800Y-78771305D01*
X138546966Y-78540000D01*
X138546966Y-78539993D01*
X144403032Y-78539993D01*
X144403032Y-78540006D01*
X144422196Y-78771297D01*
X144422198Y-78771308D01*
X144479174Y-78996300D01*
X144572407Y-79208848D01*
X144699348Y-79403147D01*
X144699351Y-79403151D01*
X144699353Y-79403153D01*
X144856548Y-79573913D01*
X144856551Y-79573915D01*
X144856554Y-79573918D01*
X145039697Y-79716464D01*
X145039703Y-79716468D01*
X145039706Y-79716470D01*
X145243829Y-79826936D01*
X145357819Y-79866068D01*
X145463347Y-79902297D01*
X145463349Y-79902297D01*
X145463351Y-79902298D01*
X145692283Y-79940500D01*
X145692284Y-79940500D01*
X145924380Y-79940500D01*
X145924381Y-79940500D01*
X146153313Y-79902298D01*
X146372835Y-79826936D01*
X146576958Y-79716470D01*
X146760116Y-79573913D01*
X146917311Y-79403153D01*
X147044256Y-79208849D01*
X147137489Y-78996300D01*
X147194466Y-78771305D01*
X147213632Y-78540000D01*
X147213632Y-78539993D01*
X153069700Y-78539993D01*
X153069700Y-78540006D01*
X153088864Y-78771297D01*
X153088866Y-78771308D01*
X153145842Y-78996300D01*
X153239075Y-79208848D01*
X153366016Y-79403147D01*
X153366019Y-79403151D01*
X153366021Y-79403153D01*
X153523216Y-79573913D01*
X153523219Y-79573915D01*
X153523222Y-79573918D01*
X153706365Y-79716464D01*
X153706371Y-79716468D01*
X153706374Y-79716470D01*
X153910497Y-79826936D01*
X154024487Y-79866068D01*
X154130015Y-79902297D01*
X154130017Y-79902297D01*
X154130019Y-79902298D01*
X154358951Y-79940500D01*
X154358952Y-79940500D01*
X154591048Y-79940500D01*
X154591049Y-79940500D01*
X154819981Y-79902298D01*
X155039503Y-79826936D01*
X155243626Y-79716470D01*
X155426784Y-79573913D01*
X155583979Y-79403153D01*
X155710924Y-79208849D01*
X155804157Y-78996300D01*
X155861134Y-78771305D01*
X155880300Y-78540000D01*
X155880300Y-78539993D01*
X155861135Y-78308702D01*
X155861133Y-78308691D01*
X155804157Y-78083699D01*
X155710924Y-77871151D01*
X155583983Y-77676852D01*
X155583980Y-77676849D01*
X155583979Y-77676847D01*
X155489195Y-77573884D01*
X155458275Y-77511232D01*
X155466135Y-77441806D01*
X155510283Y-77387651D01*
X155537095Y-77373722D01*
X155617326Y-77343798D01*
X155617326Y-77343797D01*
X155617331Y-77343796D01*
X155732546Y-77257546D01*
X155818796Y-77142331D01*
X155869091Y-77007483D01*
X155875500Y-76947873D01*
X155875500Y-76143713D01*
X159124500Y-76143713D01*
X159124500Y-76356286D01*
X159157753Y-76566239D01*
X159223444Y-76768414D01*
X159319951Y-76957820D01*
X159444890Y-77129786D01*
X159595213Y-77280109D01*
X159767179Y-77405048D01*
X159767181Y-77405049D01*
X159767184Y-77405051D01*
X159956588Y-77501557D01*
X160158757Y-77567246D01*
X160368713Y-77600500D01*
X160368714Y-77600500D01*
X160581286Y-77600500D01*
X160581287Y-77600500D01*
X160791243Y-77567246D01*
X160993412Y-77501557D01*
X161182816Y-77405051D01*
X161267131Y-77343793D01*
X161354786Y-77280109D01*
X161354788Y-77280106D01*
X161354792Y-77280104D01*
X161505104Y-77129792D01*
X161505106Y-77129788D01*
X161505109Y-77129786D01*
X161630048Y-76957820D01*
X161630047Y-76957820D01*
X161630051Y-76957816D01*
X161726557Y-76768412D01*
X161792246Y-76566243D01*
X161825500Y-76356287D01*
X161825500Y-76143713D01*
X161792246Y-75933757D01*
X161726557Y-75731588D01*
X161630051Y-75542184D01*
X161630049Y-75542181D01*
X161630048Y-75542179D01*
X161505109Y-75370213D01*
X161354786Y-75219890D01*
X161182820Y-75094951D01*
X160993414Y-74998444D01*
X160993413Y-74998443D01*
X160993412Y-74998443D01*
X160791243Y-74932754D01*
X160791241Y-74932753D01*
X160791240Y-74932753D01*
X160629957Y-74907208D01*
X160581287Y-74899500D01*
X160368713Y-74899500D01*
X160320042Y-74907208D01*
X160158760Y-74932753D01*
X159956585Y-74998444D01*
X159767179Y-75094951D01*
X159595213Y-75219890D01*
X159444890Y-75370213D01*
X159319951Y-75542179D01*
X159223444Y-75731585D01*
X159157753Y-75933760D01*
X159124500Y-76143713D01*
X155875500Y-76143713D01*
X155875499Y-75052128D01*
X155869091Y-74992517D01*
X155846800Y-74932753D01*
X155818797Y-74857671D01*
X155818793Y-74857664D01*
X155732547Y-74742455D01*
X155732544Y-74742452D01*
X155617335Y-74656206D01*
X155617328Y-74656202D01*
X155482482Y-74605908D01*
X155482483Y-74605908D01*
X155422883Y-74599501D01*
X155422881Y-74599500D01*
X155422873Y-74599500D01*
X155422864Y-74599500D01*
X153527129Y-74599500D01*
X153527123Y-74599501D01*
X153467516Y-74605908D01*
X153332671Y-74656202D01*
X153332664Y-74656206D01*
X153217455Y-74742452D01*
X153217452Y-74742455D01*
X153131206Y-74857664D01*
X153131202Y-74857671D01*
X153080908Y-74992517D01*
X153074501Y-75052116D01*
X153074501Y-75052123D01*
X153074500Y-75052135D01*
X153074500Y-76947870D01*
X153074501Y-76947876D01*
X153080908Y-77007483D01*
X153131202Y-77142328D01*
X153131206Y-77142335D01*
X153217452Y-77257544D01*
X153217455Y-77257547D01*
X153332664Y-77343793D01*
X153332673Y-77343798D01*
X153412904Y-77373722D01*
X153468838Y-77415593D01*
X153493256Y-77481057D01*
X153478405Y-77549330D01*
X153460802Y-77573886D01*
X153366019Y-77676849D01*
X153239075Y-77871151D01*
X153145842Y-78083699D01*
X153088866Y-78308691D01*
X153088864Y-78308702D01*
X153069700Y-78539993D01*
X147213632Y-78539993D01*
X147194467Y-78308702D01*
X147194465Y-78308691D01*
X147137489Y-78083699D01*
X147044256Y-77871151D01*
X146917315Y-77676852D01*
X146917312Y-77676849D01*
X146917311Y-77676847D01*
X146822527Y-77573884D01*
X146791607Y-77511232D01*
X146799467Y-77441806D01*
X146843615Y-77387651D01*
X146870427Y-77373722D01*
X146950658Y-77343798D01*
X146950658Y-77343797D01*
X146950663Y-77343796D01*
X147065878Y-77257546D01*
X147152128Y-77142331D01*
X147202423Y-77007483D01*
X147208832Y-76947873D01*
X147208831Y-75052128D01*
X147202423Y-74992517D01*
X147180132Y-74932753D01*
X147152129Y-74857671D01*
X147152125Y-74857664D01*
X147065879Y-74742455D01*
X147065876Y-74742452D01*
X146950667Y-74656206D01*
X146950660Y-74656202D01*
X146815814Y-74605908D01*
X146815815Y-74605908D01*
X146756215Y-74599501D01*
X146756213Y-74599500D01*
X146756205Y-74599500D01*
X146756196Y-74599500D01*
X144860461Y-74599500D01*
X144860455Y-74599501D01*
X144800848Y-74605908D01*
X144666003Y-74656202D01*
X144665996Y-74656206D01*
X144550787Y-74742452D01*
X144550784Y-74742455D01*
X144464538Y-74857664D01*
X144464534Y-74857671D01*
X144414240Y-74992517D01*
X144407833Y-75052116D01*
X144407833Y-75052123D01*
X144407832Y-75052135D01*
X144407832Y-76947870D01*
X144407833Y-76947876D01*
X144414240Y-77007483D01*
X144464534Y-77142328D01*
X144464538Y-77142335D01*
X144550784Y-77257544D01*
X144550787Y-77257547D01*
X144665996Y-77343793D01*
X144666005Y-77343798D01*
X144746236Y-77373722D01*
X144802170Y-77415593D01*
X144826588Y-77481057D01*
X144811737Y-77549330D01*
X144794134Y-77573886D01*
X144699351Y-77676849D01*
X144572407Y-77871151D01*
X144479174Y-78083699D01*
X144422198Y-78308691D01*
X144422196Y-78308702D01*
X144403032Y-78539993D01*
X138546966Y-78539993D01*
X138527801Y-78308702D01*
X138527799Y-78308691D01*
X138470823Y-78083699D01*
X138377590Y-77871151D01*
X138250649Y-77676852D01*
X138250646Y-77676849D01*
X138250645Y-77676847D01*
X138155861Y-77573884D01*
X138124941Y-77511232D01*
X138132801Y-77441806D01*
X138176949Y-77387651D01*
X138203761Y-77373722D01*
X138283992Y-77343798D01*
X138283992Y-77343797D01*
X138283997Y-77343796D01*
X138399212Y-77257546D01*
X138485462Y-77142331D01*
X138535757Y-77007483D01*
X138542166Y-76947873D01*
X138542165Y-75052128D01*
X138535757Y-74992517D01*
X138513466Y-74932753D01*
X138485463Y-74857671D01*
X138485459Y-74857664D01*
X138399213Y-74742455D01*
X138399210Y-74742452D01*
X138284001Y-74656206D01*
X138283994Y-74656202D01*
X138149148Y-74605908D01*
X138149149Y-74605908D01*
X138089549Y-74599501D01*
X138089547Y-74599500D01*
X138089539Y-74599500D01*
X138089530Y-74599500D01*
X136193795Y-74599500D01*
X136193789Y-74599501D01*
X136134182Y-74605908D01*
X135999337Y-74656202D01*
X135999330Y-74656206D01*
X135884121Y-74742452D01*
X135884118Y-74742455D01*
X135797872Y-74857664D01*
X135797868Y-74857671D01*
X135747574Y-74992517D01*
X135741167Y-75052116D01*
X135741167Y-75052123D01*
X135741166Y-75052135D01*
X135741166Y-76947870D01*
X135741167Y-76947876D01*
X135747574Y-77007483D01*
X135797868Y-77142328D01*
X135797872Y-77142335D01*
X135884118Y-77257544D01*
X135884121Y-77257547D01*
X135999330Y-77343793D01*
X135999339Y-77343798D01*
X136079570Y-77373722D01*
X136135504Y-77415593D01*
X136159922Y-77481057D01*
X136145071Y-77549330D01*
X136127468Y-77573886D01*
X136032685Y-77676849D01*
X135905741Y-77871151D01*
X135812508Y-78083699D01*
X135755532Y-78308691D01*
X135755530Y-78308702D01*
X135736366Y-78539993D01*
X129880300Y-78539993D01*
X129861135Y-78308702D01*
X129861133Y-78308691D01*
X129804157Y-78083699D01*
X129710924Y-77871151D01*
X129583983Y-77676852D01*
X129583980Y-77676849D01*
X129583979Y-77676847D01*
X129489195Y-77573884D01*
X129458275Y-77511232D01*
X129466135Y-77441806D01*
X129510283Y-77387651D01*
X129537095Y-77373722D01*
X129617326Y-77343798D01*
X129617326Y-77343797D01*
X129617331Y-77343796D01*
X129732546Y-77257546D01*
X129818796Y-77142331D01*
X129869091Y-77007483D01*
X129875500Y-76947873D01*
X129875499Y-75052128D01*
X129869091Y-74992517D01*
X129846800Y-74932753D01*
X129818797Y-74857671D01*
X129818793Y-74857664D01*
X129732547Y-74742455D01*
X129732544Y-74742452D01*
X129617335Y-74656206D01*
X129617328Y-74656202D01*
X129482482Y-74605908D01*
X129482483Y-74605908D01*
X129422883Y-74599501D01*
X129422881Y-74599500D01*
X129422873Y-74599500D01*
X129422864Y-74599500D01*
X127527129Y-74599500D01*
X127527123Y-74599501D01*
X127467516Y-74605908D01*
X127332671Y-74656202D01*
X127332664Y-74656206D01*
X127217455Y-74742452D01*
X127217452Y-74742455D01*
X127131206Y-74857664D01*
X127131202Y-74857671D01*
X127080908Y-74992517D01*
X127074501Y-75052116D01*
X127074501Y-75052123D01*
X127074500Y-75052135D01*
X127074500Y-76947870D01*
X127074501Y-76947876D01*
X127080908Y-77007483D01*
X127131202Y-77142328D01*
X127131206Y-77142335D01*
X127217452Y-77257544D01*
X127217455Y-77257547D01*
X127332664Y-77343793D01*
X127332673Y-77343798D01*
X127412904Y-77373722D01*
X127468838Y-77415593D01*
X127493256Y-77481057D01*
X127478405Y-77549330D01*
X127460802Y-77573886D01*
X127366019Y-77676849D01*
X127239075Y-77871151D01*
X127145842Y-78083699D01*
X127088866Y-78308691D01*
X127088864Y-78308702D01*
X127069700Y-78539993D01*
X120500500Y-78539993D01*
X120500500Y-76143713D01*
X121124500Y-76143713D01*
X121124500Y-76356286D01*
X121157753Y-76566239D01*
X121223444Y-76768414D01*
X121319951Y-76957820D01*
X121444890Y-77129786D01*
X121595213Y-77280109D01*
X121767179Y-77405048D01*
X121767181Y-77405049D01*
X121767184Y-77405051D01*
X121956588Y-77501557D01*
X122158757Y-77567246D01*
X122368713Y-77600500D01*
X122368714Y-77600500D01*
X122581286Y-77600500D01*
X122581287Y-77600500D01*
X122791243Y-77567246D01*
X122993412Y-77501557D01*
X123182816Y-77405051D01*
X123267131Y-77343793D01*
X123354786Y-77280109D01*
X123354788Y-77280106D01*
X123354792Y-77280104D01*
X123505104Y-77129792D01*
X123505106Y-77129788D01*
X123505109Y-77129786D01*
X123630048Y-76957820D01*
X123630047Y-76957820D01*
X123630051Y-76957816D01*
X123726557Y-76768412D01*
X123792246Y-76566243D01*
X123825500Y-76356287D01*
X123825500Y-76143713D01*
X123792246Y-75933757D01*
X123726557Y-75731588D01*
X123630051Y-75542184D01*
X123630049Y-75542181D01*
X123630048Y-75542179D01*
X123505109Y-75370213D01*
X123354786Y-75219890D01*
X123182820Y-75094951D01*
X122993414Y-74998444D01*
X122993413Y-74998443D01*
X122993412Y-74998443D01*
X122791243Y-74932754D01*
X122791241Y-74932753D01*
X122791240Y-74932753D01*
X122629957Y-74907208D01*
X122581287Y-74899500D01*
X122368713Y-74899500D01*
X122320042Y-74907208D01*
X122158760Y-74932753D01*
X121956585Y-74998444D01*
X121767179Y-75094951D01*
X121595213Y-75219890D01*
X121444890Y-75370213D01*
X121319951Y-75542179D01*
X121223444Y-75731585D01*
X121157753Y-75933760D01*
X121124500Y-76143713D01*
X120500500Y-76143713D01*
X120500500Y-74374500D01*
X120520185Y-74307461D01*
X120572989Y-74261706D01*
X120624500Y-74250500D01*
X162375500Y-74250500D01*
X162442539Y-74270185D01*
G37*
%TD.AperFunction*%
%TD*%
M02*
