%TF.GenerationSoftware,KiCad,Pcbnew,8.0.5-8.0.5-0~ubuntu20.04.1*%
%TF.CreationDate,2024-10-09T10:57:02+02:00*%
%TF.ProjectId,LIN_eval,4c494e5f-6576-4616-9c2e-6b696361645f,rev?*%
%TF.SameCoordinates,Original*%
%TF.FileFunction,Legend,Bot*%
%TF.FilePolarity,Positive*%
%FSLAX46Y46*%
G04 Gerber Fmt 4.6, Leading zero omitted, Abs format (unit mm)*
G04 Created by KiCad (PCBNEW 8.0.5-8.0.5-0~ubuntu20.04.1) date 2024-10-09 10:57:02*
%MOMM*%
%LPD*%
G01*
G04 APERTURE LIST*
%ADD10C,0.150000*%
%ADD11C,0.100000*%
%ADD12C,0.120000*%
%ADD13R,1.050000X1.500000*%
%ADD14O,1.050000X1.500000*%
%ADD15C,1.400000*%
%ADD16C,2.200000*%
%ADD17C,1.600000*%
%ADD18R,1.700000X1.700000*%
%ADD19O,1.700000X1.700000*%
%ADD20R,1.800000X1.800000*%
%ADD21C,1.800000*%
G04 APERTURE END LIST*
D10*
X154758458Y-81119819D02*
X154139411Y-81119819D01*
X154139411Y-81119819D02*
X154472744Y-81500771D01*
X154472744Y-81500771D02*
X154329887Y-81500771D01*
X154329887Y-81500771D02*
X154234649Y-81548390D01*
X154234649Y-81548390D02*
X154187030Y-81596009D01*
X154187030Y-81596009D02*
X154139411Y-81691247D01*
X154139411Y-81691247D02*
X154139411Y-81929342D01*
X154139411Y-81929342D02*
X154187030Y-82024580D01*
X154187030Y-82024580D02*
X154234649Y-82072200D01*
X154234649Y-82072200D02*
X154329887Y-82119819D01*
X154329887Y-82119819D02*
X154615601Y-82119819D01*
X154615601Y-82119819D02*
X154710839Y-82072200D01*
X154710839Y-82072200D02*
X154758458Y-82024580D01*
D11*
X122824687Y-86896895D02*
X123281830Y-86896895D01*
X123053258Y-86896895D02*
X123053258Y-86096895D01*
X123053258Y-86096895D02*
X123129449Y-86211180D01*
X123129449Y-86211180D02*
X123205639Y-86287371D01*
X123205639Y-86287371D02*
X123281830Y-86325466D01*
X122519925Y-86173085D02*
X122481829Y-86134990D01*
X122481829Y-86134990D02*
X122405639Y-86096895D01*
X122405639Y-86096895D02*
X122215163Y-86096895D01*
X122215163Y-86096895D02*
X122138972Y-86134990D01*
X122138972Y-86134990D02*
X122100877Y-86173085D01*
X122100877Y-86173085D02*
X122062782Y-86249276D01*
X122062782Y-86249276D02*
X122062782Y-86325466D01*
X122062782Y-86325466D02*
X122100877Y-86439752D01*
X122100877Y-86439752D02*
X122558020Y-86896895D01*
X122558020Y-86896895D02*
X122062782Y-86896895D01*
X121834210Y-86096895D02*
X121567543Y-86896895D01*
X121567543Y-86896895D02*
X121300877Y-86096895D01*
D10*
X128472744Y-80869819D02*
X128377506Y-80869819D01*
X128377506Y-80869819D02*
X128282268Y-80917438D01*
X128282268Y-80917438D02*
X128234649Y-80965057D01*
X128234649Y-80965057D02*
X128187030Y-81060295D01*
X128187030Y-81060295D02*
X128139411Y-81250771D01*
X128139411Y-81250771D02*
X128139411Y-81488866D01*
X128139411Y-81488866D02*
X128187030Y-81679342D01*
X128187030Y-81679342D02*
X128234649Y-81774580D01*
X128234649Y-81774580D02*
X128282268Y-81822200D01*
X128282268Y-81822200D02*
X128377506Y-81869819D01*
X128377506Y-81869819D02*
X128472744Y-81869819D01*
X128472744Y-81869819D02*
X128567982Y-81822200D01*
X128567982Y-81822200D02*
X128615601Y-81774580D01*
X128615601Y-81774580D02*
X128663220Y-81679342D01*
X128663220Y-81679342D02*
X128710839Y-81488866D01*
X128710839Y-81488866D02*
X128710839Y-81250771D01*
X128710839Y-81250771D02*
X128663220Y-81060295D01*
X128663220Y-81060295D02*
X128615601Y-80965057D01*
X128615601Y-80965057D02*
X128567982Y-80917438D01*
X128567982Y-80917438D02*
X128472744Y-80869819D01*
X137139411Y-81869819D02*
X137710839Y-81869819D01*
X137425125Y-81869819D02*
X137425125Y-80869819D01*
X137425125Y-80869819D02*
X137520363Y-81012676D01*
X137520363Y-81012676D02*
X137615601Y-81107914D01*
X137615601Y-81107914D02*
X137710839Y-81155533D01*
X145960839Y-80965057D02*
X145913220Y-80917438D01*
X145913220Y-80917438D02*
X145817982Y-80869819D01*
X145817982Y-80869819D02*
X145579887Y-80869819D01*
X145579887Y-80869819D02*
X145484649Y-80917438D01*
X145484649Y-80917438D02*
X145437030Y-80965057D01*
X145437030Y-80965057D02*
X145389411Y-81060295D01*
X145389411Y-81060295D02*
X145389411Y-81155533D01*
X145389411Y-81155533D02*
X145437030Y-81298390D01*
X145437030Y-81298390D02*
X146008458Y-81869819D01*
X146008458Y-81869819D02*
X145389411Y-81869819D01*
D12*
%TO.C,D7*%
X138686666Y-74710000D02*
X135596666Y-74710000D01*
X137142128Y-80260000D02*
G75*
G02*
X135596836Y-74710000I-462J2990000D01*
G01*
X138686496Y-74710000D02*
G75*
G02*
X137141204Y-80260000I-1544830J-2560000D01*
G01*
X139641666Y-77270000D02*
G75*
G02*
X134641666Y-77270000I-2500000J0D01*
G01*
X134641666Y-77270000D02*
G75*
G02*
X139641666Y-77270000I2500000J0D01*
G01*
%TO.C,D11*%
X156020000Y-74710000D02*
X152930000Y-74710000D01*
X154475462Y-80260000D02*
G75*
G02*
X152930170Y-74710000I-462J2990000D01*
G01*
X156019830Y-74710000D02*
G75*
G02*
X154474538Y-80260000I-1544830J-2560000D01*
G01*
X156975000Y-77270000D02*
G75*
G02*
X151975000Y-77270000I-2500000J0D01*
G01*
X151975000Y-77270000D02*
G75*
G02*
X156975000Y-77270000I2500000J0D01*
G01*
%TO.C,D9*%
X147353332Y-74710000D02*
X144263332Y-74710000D01*
X145808794Y-80260000D02*
G75*
G02*
X144263502Y-74710000I-462J2990000D01*
G01*
X147353162Y-74710000D02*
G75*
G02*
X145807870Y-80260000I-1544830J-2560000D01*
G01*
X148308332Y-77270000D02*
G75*
G02*
X143308332Y-77270000I-2500000J0D01*
G01*
X143308332Y-77270000D02*
G75*
G02*
X148308332Y-77270000I2500000J0D01*
G01*
%TO.C,D2*%
X130020000Y-74710000D02*
X126930000Y-74710000D01*
X128475462Y-80260000D02*
G75*
G02*
X126930170Y-74710000I-462J2990000D01*
G01*
X130019830Y-74710000D02*
G75*
G02*
X128474538Y-80260000I-1544830J-2560000D01*
G01*
X130975000Y-77270000D02*
G75*
G02*
X125975000Y-77270000I-2500000J0D01*
G01*
X125975000Y-77270000D02*
G75*
G02*
X130975000Y-77270000I2500000J0D01*
G01*
%TD*%
%LPC*%
D13*
%TO.C,U4*%
X150770000Y-99360000D03*
D14*
X149500000Y-99360000D03*
X148230000Y-99360000D03*
%TD*%
D15*
%TO.C,JP4*%
X160000000Y-97000000D03*
X160000000Y-94460000D03*
%TD*%
%TO.C,JP3*%
X157500000Y-97000000D03*
X157500000Y-94460000D03*
%TD*%
D16*
%TO.C,H1*%
X160500000Y-101250000D03*
%TD*%
%TO.C,H2*%
X122475000Y-76250000D03*
%TD*%
%TO.C,H4*%
X122500000Y-101250000D03*
%TD*%
%TO.C,H3*%
X160475000Y-76250000D03*
%TD*%
D15*
%TO.C,JP1*%
X125960000Y-95500000D03*
X128500000Y-95500000D03*
%TD*%
D17*
%TO.C,R9*%
X143000000Y-101000000D03*
X140000000Y-101000000D03*
%TD*%
D15*
%TO.C,JP2*%
X155000000Y-97040000D03*
X155000000Y-94500000D03*
%TD*%
D18*
%TO.C,J2*%
X122500000Y-88420000D03*
D19*
X122500000Y-90960000D03*
X122500000Y-93500000D03*
%TD*%
D20*
%TO.C,D7*%
X137141666Y-76000000D03*
D21*
X137141666Y-78540000D03*
%TD*%
D20*
%TO.C,D11*%
X154475000Y-76000000D03*
D21*
X154475000Y-78540000D03*
%TD*%
D20*
%TO.C,D9*%
X145808332Y-76000000D03*
D21*
X145808332Y-78540000D03*
%TD*%
D20*
%TO.C,D2*%
X128475000Y-76000000D03*
D21*
X128475000Y-78540000D03*
%TD*%
%LPD*%
M02*
