%TF.GenerationSoftware,KiCad,Pcbnew,8.0.5-8.0.5-0~ubuntu20.04.1*%
%TF.CreationDate,2024-10-09T10:56:54+02:00*%
%TF.ProjectId,LIN_eval,4c494e5f-6576-4616-9c2e-6b696361645f,rev?*%
%TF.SameCoordinates,Original*%
%TF.FileFunction,Drillmap*%
%TF.FilePolarity,Positive*%
%FSLAX45Y45*%
G04 Gerber Fmt 4.5, Leading zero omitted, Abs format (unit mm)*
G04 Created by KiCad (PCBNEW 8.0.5-8.0.5-0~ubuntu20.04.1) date 2024-10-09 10:56:54*
%MOMM*%
%LPD*%
G01*
G04 APERTURE LIST*
%ADD10C,0.050000*%
%ADD11C,0.200000*%
%ADD12C,0.220000*%
G04 APERTURE END LIST*
D10*
X12000000Y-7375000D02*
X16300000Y-7375000D01*
X16300000Y-10375000D01*
X12000000Y-10375000D01*
X12000000Y-7375000D01*
D11*
D12*
X12137500Y-7515000D02*
X12357500Y-7735000D01*
X12357500Y-7515000D02*
X12137500Y-7735000D01*
X12140000Y-10015000D02*
X12360000Y-10235000D01*
X12360000Y-10015000D02*
X12140000Y-10235000D01*
X15937500Y-7515000D02*
X16157500Y-7735000D01*
X16157500Y-7515000D02*
X15937500Y-7735000D01*
X15940000Y-10015000D02*
X16160000Y-10235000D01*
X16160000Y-10015000D02*
X15940000Y-10235000D01*
D11*
X12258277Y-10688984D02*
X12258277Y-10488984D01*
X12258277Y-10488984D02*
X12305896Y-10488984D01*
X12305896Y-10488984D02*
X12334467Y-10498508D01*
X12334467Y-10498508D02*
X12353515Y-10517555D01*
X12353515Y-10517555D02*
X12363039Y-10536603D01*
X12363039Y-10536603D02*
X12372562Y-10574698D01*
X12372562Y-10574698D02*
X12372562Y-10603270D01*
X12372562Y-10603270D02*
X12363039Y-10641365D01*
X12363039Y-10641365D02*
X12353515Y-10660412D01*
X12353515Y-10660412D02*
X12334467Y-10679460D01*
X12334467Y-10679460D02*
X12305896Y-10688984D01*
X12305896Y-10688984D02*
X12258277Y-10688984D01*
X12458277Y-10688984D02*
X12458277Y-10555650D01*
X12458277Y-10593746D02*
X12467801Y-10574698D01*
X12467801Y-10574698D02*
X12477324Y-10565174D01*
X12477324Y-10565174D02*
X12496372Y-10555650D01*
X12496372Y-10555650D02*
X12515420Y-10555650D01*
X12582086Y-10688984D02*
X12582086Y-10555650D01*
X12582086Y-10488984D02*
X12572562Y-10498508D01*
X12572562Y-10498508D02*
X12582086Y-10508031D01*
X12582086Y-10508031D02*
X12591610Y-10498508D01*
X12591610Y-10498508D02*
X12582086Y-10488984D01*
X12582086Y-10488984D02*
X12582086Y-10508031D01*
X12705896Y-10688984D02*
X12686848Y-10679460D01*
X12686848Y-10679460D02*
X12677324Y-10660412D01*
X12677324Y-10660412D02*
X12677324Y-10488984D01*
X12810658Y-10688984D02*
X12791610Y-10679460D01*
X12791610Y-10679460D02*
X12782086Y-10660412D01*
X12782086Y-10660412D02*
X12782086Y-10488984D01*
X13039229Y-10688984D02*
X13039229Y-10488984D01*
X13039229Y-10488984D02*
X13105896Y-10631841D01*
X13105896Y-10631841D02*
X13172562Y-10488984D01*
X13172562Y-10488984D02*
X13172562Y-10688984D01*
X13353515Y-10688984D02*
X13353515Y-10584222D01*
X13353515Y-10584222D02*
X13343991Y-10565174D01*
X13343991Y-10565174D02*
X13324943Y-10555650D01*
X13324943Y-10555650D02*
X13286848Y-10555650D01*
X13286848Y-10555650D02*
X13267801Y-10565174D01*
X13353515Y-10679460D02*
X13334467Y-10688984D01*
X13334467Y-10688984D02*
X13286848Y-10688984D01*
X13286848Y-10688984D02*
X13267801Y-10679460D01*
X13267801Y-10679460D02*
X13258277Y-10660412D01*
X13258277Y-10660412D02*
X13258277Y-10641365D01*
X13258277Y-10641365D02*
X13267801Y-10622317D01*
X13267801Y-10622317D02*
X13286848Y-10612793D01*
X13286848Y-10612793D02*
X13334467Y-10612793D01*
X13334467Y-10612793D02*
X13353515Y-10603270D01*
X13448753Y-10555650D02*
X13448753Y-10755650D01*
X13448753Y-10565174D02*
X13467801Y-10555650D01*
X13467801Y-10555650D02*
X13505896Y-10555650D01*
X13505896Y-10555650D02*
X13524943Y-10565174D01*
X13524943Y-10565174D02*
X13534467Y-10574698D01*
X13534467Y-10574698D02*
X13543991Y-10593746D01*
X13543991Y-10593746D02*
X13543991Y-10650889D01*
X13543991Y-10650889D02*
X13534467Y-10669936D01*
X13534467Y-10669936D02*
X13524943Y-10679460D01*
X13524943Y-10679460D02*
X13505896Y-10688984D01*
X13505896Y-10688984D02*
X13467801Y-10688984D01*
X13467801Y-10688984D02*
X13448753Y-10679460D01*
X13629705Y-10669936D02*
X13639229Y-10679460D01*
X13639229Y-10679460D02*
X13629705Y-10688984D01*
X13629705Y-10688984D02*
X13620182Y-10679460D01*
X13620182Y-10679460D02*
X13629705Y-10669936D01*
X13629705Y-10669936D02*
X13629705Y-10688984D01*
X13629705Y-10565174D02*
X13639229Y-10574698D01*
X13639229Y-10574698D02*
X13629705Y-10584222D01*
X13629705Y-10584222D02*
X13620182Y-10574698D01*
X13620182Y-10574698D02*
X13629705Y-10565174D01*
X13629705Y-10565174D02*
X13629705Y-10584222D01*
X11797500Y-10917500D02*
X11997500Y-11117500D01*
X11997500Y-10917500D02*
X11797500Y-11117500D01*
X12248753Y-10928031D02*
X12258277Y-10918508D01*
X12258277Y-10918508D02*
X12277324Y-10908984D01*
X12277324Y-10908984D02*
X12324943Y-10908984D01*
X12324943Y-10908984D02*
X12343991Y-10918508D01*
X12343991Y-10918508D02*
X12353515Y-10928031D01*
X12353515Y-10928031D02*
X12363039Y-10947079D01*
X12363039Y-10947079D02*
X12363039Y-10966127D01*
X12363039Y-10966127D02*
X12353515Y-10994698D01*
X12353515Y-10994698D02*
X12239229Y-11108984D01*
X12239229Y-11108984D02*
X12363039Y-11108984D01*
X12448753Y-11089936D02*
X12458277Y-11099460D01*
X12458277Y-11099460D02*
X12448753Y-11108984D01*
X12448753Y-11108984D02*
X12439229Y-11099460D01*
X12439229Y-11099460D02*
X12448753Y-11089936D01*
X12448753Y-11089936D02*
X12448753Y-11108984D01*
X12534467Y-10928031D02*
X12543991Y-10918508D01*
X12543991Y-10918508D02*
X12563039Y-10908984D01*
X12563039Y-10908984D02*
X12610658Y-10908984D01*
X12610658Y-10908984D02*
X12629705Y-10918508D01*
X12629705Y-10918508D02*
X12639229Y-10928031D01*
X12639229Y-10928031D02*
X12648753Y-10947079D01*
X12648753Y-10947079D02*
X12648753Y-10966127D01*
X12648753Y-10966127D02*
X12639229Y-10994698D01*
X12639229Y-10994698D02*
X12524943Y-11108984D01*
X12524943Y-11108984D02*
X12648753Y-11108984D01*
X12772562Y-10908984D02*
X12791610Y-10908984D01*
X12791610Y-10908984D02*
X12810658Y-10918508D01*
X12810658Y-10918508D02*
X12820182Y-10928031D01*
X12820182Y-10928031D02*
X12829705Y-10947079D01*
X12829705Y-10947079D02*
X12839229Y-10985174D01*
X12839229Y-10985174D02*
X12839229Y-11032793D01*
X12839229Y-11032793D02*
X12829705Y-11070889D01*
X12829705Y-11070889D02*
X12820182Y-11089936D01*
X12820182Y-11089936D02*
X12810658Y-11099460D01*
X12810658Y-11099460D02*
X12791610Y-11108984D01*
X12791610Y-11108984D02*
X12772562Y-11108984D01*
X12772562Y-11108984D02*
X12753515Y-11099460D01*
X12753515Y-11099460D02*
X12743991Y-11089936D01*
X12743991Y-11089936D02*
X12734467Y-11070889D01*
X12734467Y-11070889D02*
X12724943Y-11032793D01*
X12724943Y-11032793D02*
X12724943Y-10985174D01*
X12724943Y-10985174D02*
X12734467Y-10947079D01*
X12734467Y-10947079D02*
X12743991Y-10928031D01*
X12743991Y-10928031D02*
X12753515Y-10918508D01*
X12753515Y-10918508D02*
X12772562Y-10908984D01*
X12963039Y-10908984D02*
X12982086Y-10908984D01*
X12982086Y-10908984D02*
X13001134Y-10918508D01*
X13001134Y-10918508D02*
X13010658Y-10928031D01*
X13010658Y-10928031D02*
X13020182Y-10947079D01*
X13020182Y-10947079D02*
X13029705Y-10985174D01*
X13029705Y-10985174D02*
X13029705Y-11032793D01*
X13029705Y-11032793D02*
X13020182Y-11070889D01*
X13020182Y-11070889D02*
X13010658Y-11089936D01*
X13010658Y-11089936D02*
X13001134Y-11099460D01*
X13001134Y-11099460D02*
X12982086Y-11108984D01*
X12982086Y-11108984D02*
X12963039Y-11108984D01*
X12963039Y-11108984D02*
X12943991Y-11099460D01*
X12943991Y-11099460D02*
X12934467Y-11089936D01*
X12934467Y-11089936D02*
X12924943Y-11070889D01*
X12924943Y-11070889D02*
X12915420Y-11032793D01*
X12915420Y-11032793D02*
X12915420Y-10985174D01*
X12915420Y-10985174D02*
X12924943Y-10947079D01*
X12924943Y-10947079D02*
X12934467Y-10928031D01*
X12934467Y-10928031D02*
X12943991Y-10918508D01*
X12943991Y-10918508D02*
X12963039Y-10908984D01*
X13115420Y-11108984D02*
X13115420Y-10975650D01*
X13115420Y-10994698D02*
X13124943Y-10985174D01*
X13124943Y-10985174D02*
X13143991Y-10975650D01*
X13143991Y-10975650D02*
X13172563Y-10975650D01*
X13172563Y-10975650D02*
X13191610Y-10985174D01*
X13191610Y-10985174D02*
X13201134Y-11004222D01*
X13201134Y-11004222D02*
X13201134Y-11108984D01*
X13201134Y-11004222D02*
X13210658Y-10985174D01*
X13210658Y-10985174D02*
X13229705Y-10975650D01*
X13229705Y-10975650D02*
X13258277Y-10975650D01*
X13258277Y-10975650D02*
X13277324Y-10985174D01*
X13277324Y-10985174D02*
X13286848Y-11004222D01*
X13286848Y-11004222D02*
X13286848Y-11108984D01*
X13382086Y-11108984D02*
X13382086Y-10975650D01*
X13382086Y-10994698D02*
X13391610Y-10985174D01*
X13391610Y-10985174D02*
X13410658Y-10975650D01*
X13410658Y-10975650D02*
X13439229Y-10975650D01*
X13439229Y-10975650D02*
X13458277Y-10985174D01*
X13458277Y-10985174D02*
X13467801Y-11004222D01*
X13467801Y-11004222D02*
X13467801Y-11108984D01*
X13467801Y-11004222D02*
X13477324Y-10985174D01*
X13477324Y-10985174D02*
X13496372Y-10975650D01*
X13496372Y-10975650D02*
X13524943Y-10975650D01*
X13524943Y-10975650D02*
X13543991Y-10985174D01*
X13543991Y-10985174D02*
X13553515Y-11004222D01*
X13553515Y-11004222D02*
X13553515Y-11108984D01*
X13943991Y-10899460D02*
X13772563Y-11156603D01*
X14201134Y-10908984D02*
X14220182Y-10908984D01*
X14220182Y-10908984D02*
X14239229Y-10918508D01*
X14239229Y-10918508D02*
X14248753Y-10928031D01*
X14248753Y-10928031D02*
X14258277Y-10947079D01*
X14258277Y-10947079D02*
X14267801Y-10985174D01*
X14267801Y-10985174D02*
X14267801Y-11032793D01*
X14267801Y-11032793D02*
X14258277Y-11070889D01*
X14258277Y-11070889D02*
X14248753Y-11089936D01*
X14248753Y-11089936D02*
X14239229Y-11099460D01*
X14239229Y-11099460D02*
X14220182Y-11108984D01*
X14220182Y-11108984D02*
X14201134Y-11108984D01*
X14201134Y-11108984D02*
X14182086Y-11099460D01*
X14182086Y-11099460D02*
X14172563Y-11089936D01*
X14172563Y-11089936D02*
X14163039Y-11070889D01*
X14163039Y-11070889D02*
X14153515Y-11032793D01*
X14153515Y-11032793D02*
X14153515Y-10985174D01*
X14153515Y-10985174D02*
X14163039Y-10947079D01*
X14163039Y-10947079D02*
X14172563Y-10928031D01*
X14172563Y-10928031D02*
X14182086Y-10918508D01*
X14182086Y-10918508D02*
X14201134Y-10908984D01*
X14353515Y-11089936D02*
X14363039Y-11099460D01*
X14363039Y-11099460D02*
X14353515Y-11108984D01*
X14353515Y-11108984D02*
X14343991Y-11099460D01*
X14343991Y-11099460D02*
X14353515Y-11089936D01*
X14353515Y-11089936D02*
X14353515Y-11108984D01*
X14486848Y-10908984D02*
X14505896Y-10908984D01*
X14505896Y-10908984D02*
X14524944Y-10918508D01*
X14524944Y-10918508D02*
X14534467Y-10928031D01*
X14534467Y-10928031D02*
X14543991Y-10947079D01*
X14543991Y-10947079D02*
X14553515Y-10985174D01*
X14553515Y-10985174D02*
X14553515Y-11032793D01*
X14553515Y-11032793D02*
X14543991Y-11070889D01*
X14543991Y-11070889D02*
X14534467Y-11089936D01*
X14534467Y-11089936D02*
X14524944Y-11099460D01*
X14524944Y-11099460D02*
X14505896Y-11108984D01*
X14505896Y-11108984D02*
X14486848Y-11108984D01*
X14486848Y-11108984D02*
X14467801Y-11099460D01*
X14467801Y-11099460D02*
X14458277Y-11089936D01*
X14458277Y-11089936D02*
X14448753Y-11070889D01*
X14448753Y-11070889D02*
X14439229Y-11032793D01*
X14439229Y-11032793D02*
X14439229Y-10985174D01*
X14439229Y-10985174D02*
X14448753Y-10947079D01*
X14448753Y-10947079D02*
X14458277Y-10928031D01*
X14458277Y-10928031D02*
X14467801Y-10918508D01*
X14467801Y-10918508D02*
X14486848Y-10908984D01*
X14667801Y-10994698D02*
X14648753Y-10985174D01*
X14648753Y-10985174D02*
X14639229Y-10975650D01*
X14639229Y-10975650D02*
X14629706Y-10956603D01*
X14629706Y-10956603D02*
X14629706Y-10947079D01*
X14629706Y-10947079D02*
X14639229Y-10928031D01*
X14639229Y-10928031D02*
X14648753Y-10918508D01*
X14648753Y-10918508D02*
X14667801Y-10908984D01*
X14667801Y-10908984D02*
X14705896Y-10908984D01*
X14705896Y-10908984D02*
X14724944Y-10918508D01*
X14724944Y-10918508D02*
X14734467Y-10928031D01*
X14734467Y-10928031D02*
X14743991Y-10947079D01*
X14743991Y-10947079D02*
X14743991Y-10956603D01*
X14743991Y-10956603D02*
X14734467Y-10975650D01*
X14734467Y-10975650D02*
X14724944Y-10985174D01*
X14724944Y-10985174D02*
X14705896Y-10994698D01*
X14705896Y-10994698D02*
X14667801Y-10994698D01*
X14667801Y-10994698D02*
X14648753Y-11004222D01*
X14648753Y-11004222D02*
X14639229Y-11013746D01*
X14639229Y-11013746D02*
X14629706Y-11032793D01*
X14629706Y-11032793D02*
X14629706Y-11070889D01*
X14629706Y-11070889D02*
X14639229Y-11089936D01*
X14639229Y-11089936D02*
X14648753Y-11099460D01*
X14648753Y-11099460D02*
X14667801Y-11108984D01*
X14667801Y-11108984D02*
X14705896Y-11108984D01*
X14705896Y-11108984D02*
X14724944Y-11099460D01*
X14724944Y-11099460D02*
X14734467Y-11089936D01*
X14734467Y-11089936D02*
X14743991Y-11070889D01*
X14743991Y-11070889D02*
X14743991Y-11032793D01*
X14743991Y-11032793D02*
X14734467Y-11013746D01*
X14734467Y-11013746D02*
X14724944Y-11004222D01*
X14724944Y-11004222D02*
X14705896Y-10994698D01*
X14915420Y-10908984D02*
X14877325Y-10908984D01*
X14877325Y-10908984D02*
X14858277Y-10918508D01*
X14858277Y-10918508D02*
X14848753Y-10928031D01*
X14848753Y-10928031D02*
X14829706Y-10956603D01*
X14829706Y-10956603D02*
X14820182Y-10994698D01*
X14820182Y-10994698D02*
X14820182Y-11070889D01*
X14820182Y-11070889D02*
X14829706Y-11089936D01*
X14829706Y-11089936D02*
X14839229Y-11099460D01*
X14839229Y-11099460D02*
X14858277Y-11108984D01*
X14858277Y-11108984D02*
X14896372Y-11108984D01*
X14896372Y-11108984D02*
X14915420Y-11099460D01*
X14915420Y-11099460D02*
X14924944Y-11089936D01*
X14924944Y-11089936D02*
X14934467Y-11070889D01*
X14934467Y-11070889D02*
X14934467Y-11023270D01*
X14934467Y-11023270D02*
X14924944Y-11004222D01*
X14924944Y-11004222D02*
X14915420Y-10994698D01*
X14915420Y-10994698D02*
X14896372Y-10985174D01*
X14896372Y-10985174D02*
X14858277Y-10985174D01*
X14858277Y-10985174D02*
X14839229Y-10994698D01*
X14839229Y-10994698D02*
X14829706Y-11004222D01*
X14829706Y-11004222D02*
X14820182Y-11023270D01*
X15105896Y-10908984D02*
X15067801Y-10908984D01*
X15067801Y-10908984D02*
X15048753Y-10918508D01*
X15048753Y-10918508D02*
X15039229Y-10928031D01*
X15039229Y-10928031D02*
X15020182Y-10956603D01*
X15020182Y-10956603D02*
X15010658Y-10994698D01*
X15010658Y-10994698D02*
X15010658Y-11070889D01*
X15010658Y-11070889D02*
X15020182Y-11089936D01*
X15020182Y-11089936D02*
X15029706Y-11099460D01*
X15029706Y-11099460D02*
X15048753Y-11108984D01*
X15048753Y-11108984D02*
X15086848Y-11108984D01*
X15086848Y-11108984D02*
X15105896Y-11099460D01*
X15105896Y-11099460D02*
X15115420Y-11089936D01*
X15115420Y-11089936D02*
X15124944Y-11070889D01*
X15124944Y-11070889D02*
X15124944Y-11023270D01*
X15124944Y-11023270D02*
X15115420Y-11004222D01*
X15115420Y-11004222D02*
X15105896Y-10994698D01*
X15105896Y-10994698D02*
X15086848Y-10985174D01*
X15086848Y-10985174D02*
X15048753Y-10985174D01*
X15048753Y-10985174D02*
X15029706Y-10994698D01*
X15029706Y-10994698D02*
X15020182Y-11004222D01*
X15020182Y-11004222D02*
X15010658Y-11023270D01*
X15201134Y-10908984D02*
X15201134Y-10947079D01*
X15277325Y-10908984D02*
X15277325Y-10947079D01*
X15572563Y-11185174D02*
X15563039Y-11175650D01*
X15563039Y-11175650D02*
X15543991Y-11147079D01*
X15543991Y-11147079D02*
X15534468Y-11128031D01*
X15534468Y-11128031D02*
X15524944Y-11099460D01*
X15524944Y-11099460D02*
X15515420Y-11051841D01*
X15515420Y-11051841D02*
X15515420Y-11013746D01*
X15515420Y-11013746D02*
X15524944Y-10966127D01*
X15524944Y-10966127D02*
X15534468Y-10937555D01*
X15534468Y-10937555D02*
X15543991Y-10918508D01*
X15543991Y-10918508D02*
X15563039Y-10889936D01*
X15563039Y-10889936D02*
X15572563Y-10880412D01*
X15734468Y-10975650D02*
X15734468Y-11108984D01*
X15686848Y-10899460D02*
X15639229Y-11042317D01*
X15639229Y-11042317D02*
X15763039Y-11042317D01*
X15991610Y-11108984D02*
X15991610Y-10908984D01*
X16077325Y-11108984D02*
X16077325Y-11004222D01*
X16077325Y-11004222D02*
X16067801Y-10985174D01*
X16067801Y-10985174D02*
X16048753Y-10975650D01*
X16048753Y-10975650D02*
X16020182Y-10975650D01*
X16020182Y-10975650D02*
X16001134Y-10985174D01*
X16001134Y-10985174D02*
X15991610Y-10994698D01*
X16201134Y-11108984D02*
X16182087Y-11099460D01*
X16182087Y-11099460D02*
X16172563Y-11089936D01*
X16172563Y-11089936D02*
X16163039Y-11070889D01*
X16163039Y-11070889D02*
X16163039Y-11013746D01*
X16163039Y-11013746D02*
X16172563Y-10994698D01*
X16172563Y-10994698D02*
X16182087Y-10985174D01*
X16182087Y-10985174D02*
X16201134Y-10975650D01*
X16201134Y-10975650D02*
X16229706Y-10975650D01*
X16229706Y-10975650D02*
X16248753Y-10985174D01*
X16248753Y-10985174D02*
X16258277Y-10994698D01*
X16258277Y-10994698D02*
X16267801Y-11013746D01*
X16267801Y-11013746D02*
X16267801Y-11070889D01*
X16267801Y-11070889D02*
X16258277Y-11089936D01*
X16258277Y-11089936D02*
X16248753Y-11099460D01*
X16248753Y-11099460D02*
X16229706Y-11108984D01*
X16229706Y-11108984D02*
X16201134Y-11108984D01*
X16382087Y-11108984D02*
X16363039Y-11099460D01*
X16363039Y-11099460D02*
X16353515Y-11080412D01*
X16353515Y-11080412D02*
X16353515Y-10908984D01*
X16534468Y-11099460D02*
X16515420Y-11108984D01*
X16515420Y-11108984D02*
X16477325Y-11108984D01*
X16477325Y-11108984D02*
X16458277Y-11099460D01*
X16458277Y-11099460D02*
X16448753Y-11080412D01*
X16448753Y-11080412D02*
X16448753Y-11004222D01*
X16448753Y-11004222D02*
X16458277Y-10985174D01*
X16458277Y-10985174D02*
X16477325Y-10975650D01*
X16477325Y-10975650D02*
X16515420Y-10975650D01*
X16515420Y-10975650D02*
X16534468Y-10985174D01*
X16534468Y-10985174D02*
X16543991Y-11004222D01*
X16543991Y-11004222D02*
X16543991Y-11023270D01*
X16543991Y-11023270D02*
X16448753Y-11042317D01*
X16620182Y-11099460D02*
X16639230Y-11108984D01*
X16639230Y-11108984D02*
X16677325Y-11108984D01*
X16677325Y-11108984D02*
X16696372Y-11099460D01*
X16696372Y-11099460D02*
X16705896Y-11080412D01*
X16705896Y-11080412D02*
X16705896Y-11070889D01*
X16705896Y-11070889D02*
X16696372Y-11051841D01*
X16696372Y-11051841D02*
X16677325Y-11042317D01*
X16677325Y-11042317D02*
X16648753Y-11042317D01*
X16648753Y-11042317D02*
X16629706Y-11032793D01*
X16629706Y-11032793D02*
X16620182Y-11013746D01*
X16620182Y-11013746D02*
X16620182Y-11004222D01*
X16620182Y-11004222D02*
X16629706Y-10985174D01*
X16629706Y-10985174D02*
X16648753Y-10975650D01*
X16648753Y-10975650D02*
X16677325Y-10975650D01*
X16677325Y-10975650D02*
X16696372Y-10985174D01*
X16772563Y-11185174D02*
X16782087Y-11175650D01*
X16782087Y-11175650D02*
X16801134Y-11147079D01*
X16801134Y-11147079D02*
X16810658Y-11128031D01*
X16810658Y-11128031D02*
X16820182Y-11099460D01*
X16820182Y-11099460D02*
X16829706Y-11051841D01*
X16829706Y-11051841D02*
X16829706Y-11013746D01*
X16829706Y-11013746D02*
X16820182Y-10966127D01*
X16820182Y-10966127D02*
X16810658Y-10937555D01*
X16810658Y-10937555D02*
X16801134Y-10918508D01*
X16801134Y-10918508D02*
X16782087Y-10889936D01*
X16782087Y-10889936D02*
X16772563Y-10880412D01*
X17134468Y-11185174D02*
X17124944Y-11175650D01*
X17124944Y-11175650D02*
X17105896Y-11147079D01*
X17105896Y-11147079D02*
X17096373Y-11128031D01*
X17096373Y-11128031D02*
X17086849Y-11099460D01*
X17086849Y-11099460D02*
X17077325Y-11051841D01*
X17077325Y-11051841D02*
X17077325Y-11013746D01*
X17077325Y-11013746D02*
X17086849Y-10966127D01*
X17086849Y-10966127D02*
X17096373Y-10937555D01*
X17096373Y-10937555D02*
X17105896Y-10918508D01*
X17105896Y-10918508D02*
X17124944Y-10889936D01*
X17124944Y-10889936D02*
X17134468Y-10880412D01*
X17210658Y-10975650D02*
X17210658Y-11108984D01*
X17210658Y-10994698D02*
X17220182Y-10985174D01*
X17220182Y-10985174D02*
X17239230Y-10975650D01*
X17239230Y-10975650D02*
X17267801Y-10975650D01*
X17267801Y-10975650D02*
X17286849Y-10985174D01*
X17286849Y-10985174D02*
X17296373Y-11004222D01*
X17296373Y-11004222D02*
X17296373Y-11108984D01*
X17420182Y-11108984D02*
X17401134Y-11099460D01*
X17401134Y-11099460D02*
X17391611Y-11089936D01*
X17391611Y-11089936D02*
X17382087Y-11070889D01*
X17382087Y-11070889D02*
X17382087Y-11013746D01*
X17382087Y-11013746D02*
X17391611Y-10994698D01*
X17391611Y-10994698D02*
X17401134Y-10985174D01*
X17401134Y-10985174D02*
X17420182Y-10975650D01*
X17420182Y-10975650D02*
X17448754Y-10975650D01*
X17448754Y-10975650D02*
X17467801Y-10985174D01*
X17467801Y-10985174D02*
X17477325Y-10994698D01*
X17477325Y-10994698D02*
X17486849Y-11013746D01*
X17486849Y-11013746D02*
X17486849Y-11070889D01*
X17486849Y-11070889D02*
X17477325Y-11089936D01*
X17477325Y-11089936D02*
X17467801Y-11099460D01*
X17467801Y-11099460D02*
X17448754Y-11108984D01*
X17448754Y-11108984D02*
X17420182Y-11108984D01*
X17543992Y-10975650D02*
X17620182Y-10975650D01*
X17572563Y-10908984D02*
X17572563Y-11080412D01*
X17572563Y-11080412D02*
X17582087Y-11099460D01*
X17582087Y-11099460D02*
X17601134Y-11108984D01*
X17601134Y-11108984D02*
X17620182Y-11108984D01*
X17839230Y-10975650D02*
X17839230Y-11175650D01*
X17839230Y-10985174D02*
X17858277Y-10975650D01*
X17858277Y-10975650D02*
X17896373Y-10975650D01*
X17896373Y-10975650D02*
X17915420Y-10985174D01*
X17915420Y-10985174D02*
X17924944Y-10994698D01*
X17924944Y-10994698D02*
X17934468Y-11013746D01*
X17934468Y-11013746D02*
X17934468Y-11070889D01*
X17934468Y-11070889D02*
X17924944Y-11089936D01*
X17924944Y-11089936D02*
X17915420Y-11099460D01*
X17915420Y-11099460D02*
X17896373Y-11108984D01*
X17896373Y-11108984D02*
X17858277Y-11108984D01*
X17858277Y-11108984D02*
X17839230Y-11099460D01*
X18048754Y-11108984D02*
X18029706Y-11099460D01*
X18029706Y-11099460D02*
X18020182Y-11080412D01*
X18020182Y-11080412D02*
X18020182Y-10908984D01*
X18210658Y-11108984D02*
X18210658Y-11004222D01*
X18210658Y-11004222D02*
X18201135Y-10985174D01*
X18201135Y-10985174D02*
X18182087Y-10975650D01*
X18182087Y-10975650D02*
X18143992Y-10975650D01*
X18143992Y-10975650D02*
X18124944Y-10985174D01*
X18210658Y-11099460D02*
X18191611Y-11108984D01*
X18191611Y-11108984D02*
X18143992Y-11108984D01*
X18143992Y-11108984D02*
X18124944Y-11099460D01*
X18124944Y-11099460D02*
X18115420Y-11080412D01*
X18115420Y-11080412D02*
X18115420Y-11061365D01*
X18115420Y-11061365D02*
X18124944Y-11042317D01*
X18124944Y-11042317D02*
X18143992Y-11032793D01*
X18143992Y-11032793D02*
X18191611Y-11032793D01*
X18191611Y-11032793D02*
X18210658Y-11023270D01*
X18277325Y-10975650D02*
X18353515Y-10975650D01*
X18305896Y-10908984D02*
X18305896Y-11080412D01*
X18305896Y-11080412D02*
X18315420Y-11099460D01*
X18315420Y-11099460D02*
X18334468Y-11108984D01*
X18334468Y-11108984D02*
X18353515Y-11108984D01*
X18496373Y-11099460D02*
X18477325Y-11108984D01*
X18477325Y-11108984D02*
X18439230Y-11108984D01*
X18439230Y-11108984D02*
X18420182Y-11099460D01*
X18420182Y-11099460D02*
X18410658Y-11080412D01*
X18410658Y-11080412D02*
X18410658Y-11004222D01*
X18410658Y-11004222D02*
X18420182Y-10985174D01*
X18420182Y-10985174D02*
X18439230Y-10975650D01*
X18439230Y-10975650D02*
X18477325Y-10975650D01*
X18477325Y-10975650D02*
X18496373Y-10985174D01*
X18496373Y-10985174D02*
X18505896Y-11004222D01*
X18505896Y-11004222D02*
X18505896Y-11023270D01*
X18505896Y-11023270D02*
X18410658Y-11042317D01*
X18677325Y-11108984D02*
X18677325Y-10908984D01*
X18677325Y-11099460D02*
X18658277Y-11108984D01*
X18658277Y-11108984D02*
X18620182Y-11108984D01*
X18620182Y-11108984D02*
X18601135Y-11099460D01*
X18601135Y-11099460D02*
X18591611Y-11089936D01*
X18591611Y-11089936D02*
X18582087Y-11070889D01*
X18582087Y-11070889D02*
X18582087Y-11013746D01*
X18582087Y-11013746D02*
X18591611Y-10994698D01*
X18591611Y-10994698D02*
X18601135Y-10985174D01*
X18601135Y-10985174D02*
X18620182Y-10975650D01*
X18620182Y-10975650D02*
X18658277Y-10975650D01*
X18658277Y-10975650D02*
X18677325Y-10985174D01*
X18753516Y-11185174D02*
X18763039Y-11175650D01*
X18763039Y-11175650D02*
X18782087Y-11147079D01*
X18782087Y-11147079D02*
X18791611Y-11128031D01*
X18791611Y-11128031D02*
X18801135Y-11099460D01*
X18801135Y-11099460D02*
X18810658Y-11051841D01*
X18810658Y-11051841D02*
X18810658Y-11013746D01*
X18810658Y-11013746D02*
X18801135Y-10966127D01*
X18801135Y-10966127D02*
X18791611Y-10937555D01*
X18791611Y-10937555D02*
X18782087Y-10918508D01*
X18782087Y-10918508D02*
X18763039Y-10889936D01*
X18763039Y-10889936D02*
X18753516Y-10880412D01*
M02*
